<?xml version="1.0" encoding="UTF-8" standalone="no"?>
<svg width="810px" height="810px" viewBox="0 0 810 810" version="1.1" xmlns="http://www.w3.org/2000/svg" xmlns:xlink="http://www.w3.org/1999/xlink">
    <!-- Generator: Sketch 3.7.2 (28276) - http://www.bohemiancoding.com/sketch -->
    <title>Group</title>
    <desc>Created with Sketch.</desc>
    <defs></defs>
    <g id="Page-1" stroke="none" stroke-width="1" fill="none" fill-rule="evenodd">
        <g id="Group" transform="translate(1.000000, 1.000000)">
            <circle id="Oval-1" stroke="#907A90" cx="404" cy="404" r="404"></circle>
            <path d="M251.143133,338.588905 C252.32218,338.588905 253.181889,338.3924 253.722285,337.999385 C254.262682,337.606369 254.532876,336.82035 254.532876,335.641303 L254.532876,315.597604 C254.532876,312.551733 254.360934,309.948043 254.017045,307.786457 C253.673157,305.624871 253.009953,303.856327 252.027414,302.480772 C251.044874,301.105217 249.644777,300.049004 247.82708,299.312099 C246.009382,298.575195 243.577634,298.108496 240.531763,297.911988 C239.94224,297.911988 239.500104,297.641794 239.205342,297.101397 C238.91058,296.561001 238.763201,295.996049 238.763201,295.406526 C238.763201,294.817002 238.91058,294.276614 239.205342,293.785344 C239.500104,293.294075 239.94224,293.048443 240.531763,293.048443 C243.675888,293.048443 247.262102,293.195822 251.290513,293.490584 C255.318923,293.785346 259.101642,293.932724 262.638783,293.932724 C264.702116,293.932724 266.642601,293.883598 268.460299,293.785344 C270.277996,293.68709 272.04654,293.588838 273.765984,293.490584 C275.485427,293.39233 277.229408,293.294077 278.997978,293.195824 C280.766549,293.09757 282.682471,293.048443 284.745804,293.048443 C285.335327,293.048443 285.7529,293.294075 285.998535,293.785344 C286.24417,294.276614 286.342422,294.817002 286.293295,295.406526 C286.244168,295.996049 286.072226,296.561001 285.777465,297.101397 C285.482703,297.641794 285.089693,297.911988 284.598423,297.911988 C281.552552,298.108496 279.096241,298.526069 277.229417,299.164719 C275.362592,299.803369 273.937932,300.785894 272.955393,302.112322 C271.972854,303.43875 271.334213,305.18273 271.039451,307.344317 C270.744689,309.505903 270.597311,312.256971 270.597311,315.597604 L270.597311,373.370617 C270.597311,376.612996 270.793816,379.142997 271.186831,380.960694 C271.579847,382.778392 272.292177,384.203052 273.323843,385.234718 C274.355509,386.266384 275.804733,387.003278 277.671557,387.44542 C279.538382,387.887563 281.945566,388.256009 284.893184,388.550771 C285.482707,388.649025 285.949406,388.943782 286.293295,389.435052 C286.637184,389.926322 286.809126,390.46671 286.809126,391.056233 C286.809126,391.645757 286.637184,392.186145 286.293295,392.677415 C285.949406,393.168685 285.433581,393.414316 284.745804,393.414316 C280.815647,393.414316 277.057491,393.217811 273.471223,392.824795 C269.884955,392.431779 266.323304,392.235275 262.786163,392.235275 C259.052515,392.235275 255.196106,392.431779 251.216823,392.824795 C247.237539,393.217811 243.626762,393.414316 240.384383,393.414316 C239.794859,393.414316 239.352723,393.168685 239.057962,392.677415 C238.7632,392.186145 238.615821,391.645757 238.615821,391.056233 C238.615821,390.46671 238.7632,389.926322 239.057962,389.435052 C239.352723,388.943782 239.794859,388.649025 240.384383,388.550771 C243.430254,388.256009 245.862002,387.887563 247.6797,387.44542 C249.497397,387.003278 250.922057,386.266384 251.953723,385.234718 C252.98539,384.203052 253.673157,382.778392 254.017045,380.960694 C254.360934,379.142997 254.532876,376.612996 254.532876,373.370617 L254.532876,348.905515 C254.532876,346.350913 253.452099,345.073631 251.290513,345.073631 L207.223852,345.073631 C205.062266,345.073631 203.981489,346.056156 203.981489,348.021234 L203.981489,373.370617 C203.981489,376.612996 204.177994,379.142997 204.57101,380.960694 C204.964026,382.778392 205.676356,384.203052 206.708022,385.234718 C207.739688,386.266384 209.188912,387.003278 211.055736,387.44542 C212.92256,387.887563 215.329745,388.256009 218.277363,388.550771 C218.866886,388.649025 219.333585,388.943782 219.677474,389.435052 C220.021363,389.926322 220.193304,390.46671 220.193304,391.056233 C220.193304,391.645757 220.021363,392.186145 219.677474,392.677415 C219.333585,393.168685 218.81776,393.414316 218.129982,393.414316 C214.199826,393.414316 210.44167,393.217811 206.855402,392.824795 C203.269134,392.431779 199.707483,392.235275 196.170342,392.235275 C192.436693,392.235275 188.580285,392.431779 184.601002,392.824795 C180.621718,393.217811 177.010941,393.414316 173.768562,393.414316 C173.179038,393.414316 172.736902,393.168685 172.44214,392.677415 C172.147379,392.186145 172,391.645757 172,391.056233 C172,390.46671 172.147379,389.926322 172.44214,389.435052 C172.736902,388.943782 173.179038,388.649025 173.768562,388.550771 C176.814433,388.256009 179.246181,387.887563 181.063878,387.44542 C182.881576,387.003278 184.306236,386.266384 185.337902,385.234718 C186.369568,384.203052 187.057335,382.778392 187.401224,380.960694 C187.745113,379.142997 187.917055,376.612996 187.917055,373.370617 L187.917055,315.597604 C187.917055,312.551733 187.745113,309.948043 187.401224,307.786457 C187.057335,305.624871 186.394131,303.856327 185.411592,302.480772 C184.429053,301.105217 183.028956,300.049004 181.211258,299.312099 C179.393561,298.575195 176.961813,298.108496 173.915942,297.911988 C173.326418,297.911988 172.884282,297.641794 172.589521,297.101397 C172.294759,296.561001 172.14738,295.996049 172.14738,295.406526 C172.14738,294.817002 172.294759,294.276614 172.589521,293.785344 C172.884282,293.294075 173.326418,293.048443 173.915942,293.048443 C177.060067,293.048443 180.646281,293.195822 184.674692,293.490584 C188.703102,293.785346 192.485821,293.932724 196.022962,293.932724 C198.086294,293.932724 200.02678,293.883598 201.844477,293.785344 C203.662175,293.68709 205.430719,293.588838 207.150162,293.490584 C208.869606,293.39233 210.613587,293.294077 212.382157,293.195824 C214.150728,293.09757 216.06665,293.048443 218.129982,293.048443 C218.719506,293.048443 219.137079,293.294075 219.382714,293.785344 C219.628348,294.276614 219.726601,294.817002 219.677474,295.406526 C219.628347,295.996049 219.456405,296.561001 219.161643,297.101397 C218.866882,297.641794 218.473872,297.911988 217.982602,297.911988 C214.936731,298.108496 212.48042,298.526069 210.613595,299.164719 C208.746771,299.803369 207.322111,300.785894 206.339572,302.112322 C205.357032,303.43875 204.718392,305.18273 204.42363,307.344317 C204.128868,309.505903 203.981489,312.256971 203.981489,315.597604 L203.981489,335.641303 C203.981489,337.606381 205.062266,338.588905 207.223852,338.588905 L251.143133,338.588905 Z M331.207391,362.022347 C331.207391,360.941554 331.158265,360.27835 331.060011,360.032715 C330.961757,359.78708 330.716126,359.664265 330.323111,359.664265 C322.26629,360.352042 316.297454,362.046897 312.416424,364.748879 C308.535394,367.450862 306.594909,370.914261 306.594909,375.139179 C306.594909,378.086796 307.331802,380.56767 308.805611,382.581876 C310.27942,384.596081 312.735731,385.603168 316.174618,385.603168 C318.434458,385.603168 320.817079,385.161033 323.322554,384.276747 C325.828029,383.392462 328.063272,382.11518 330.02835,380.444864 C330.814382,379.658832 331.207391,378.872813 331.207391,378.086782 L331.207391,362.022347 Z M345.061124,376.61298 C345.061124,380.051867 345.380445,382.459052 346.019095,383.834607 C346.657745,385.210162 347.910464,385.897929 349.777288,385.897929 C350.858082,385.897929 351.742353,385.775113 352.430131,385.529478 C353.117908,385.283844 354.100433,384.768018 355.377734,383.981987 C355.672495,383.785479 355.991816,383.785479 356.335704,383.981987 C356.679593,384.178495 356.974351,384.448689 357.219985,384.792578 C357.46562,385.136466 357.637562,385.529476 357.735816,385.971619 C357.83407,386.413761 357.735817,386.782208 357.441055,387.07697 C353.609153,391.694904 349.089541,394.003836 343.882083,394.003836 C341.032719,394.003836 338.600972,393.24238 336.586766,391.719444 C334.572561,390.196508 333.074211,388.403401 332.091672,386.340069 C331.895164,385.8488 331.600407,385.799673 331.207391,386.192689 C328.65279,388.452529 325.680653,390.319325 322.290893,391.793134 C318.901133,393.266943 314.651715,394.003836 309.542511,394.003836 C303.942038,394.003836 299.618931,392.505486 296.57306,389.508742 C293.527188,386.511998 292.004275,382.26258 292.004275,376.76036 C292.004275,369.686078 295.295732,364.257631 301.878744,360.474855 C308.461757,356.69208 318.04137,354.80072 330.617871,354.80072 C330.814379,354.80072 330.961757,354.555089 331.060011,354.063819 C331.158265,353.57255 331.207391,352.442647 331.207391,350.674076 L331.207391,346.694813 C331.207391,344.238465 331.010886,341.929532 330.617871,339.767946 C330.224855,337.60636 329.561651,335.715001 328.628239,334.093811 C327.694827,332.472622 326.392982,331.19534 324.722665,330.261928 C323.052349,329.328515 320.989048,328.861816 318.5327,328.861816 C314.897305,328.861816 311.949732,329.574147 309.689892,330.998828 C307.430052,332.42351 306.300148,334.265743 306.300148,336.525583 C306.300148,337.606376 306.644032,338.66259 307.331809,339.694256 C308.019587,340.725922 308.36347,341.782136 308.36347,342.862929 C308.36347,344.238484 307.675703,345.564892 306.300148,346.842193 C304.924594,348.119494 303.254302,348.758135 301.289224,348.758135 C298.636368,348.758135 296.745009,348.045804 295.615089,346.621123 C294.485169,345.196441 293.920217,343.45246 293.920217,341.389128 C293.920217,338.93278 294.607984,336.599284 295.983539,334.388571 C297.359094,332.177858 299.22589,330.286499 301.583984,328.714436 C303.942078,327.142374 306.693146,325.889655 309.837272,324.956243 C312.981397,324.022831 316.272854,323.556131 319.711741,323.556131 C327.572054,323.556131 333.761958,325.373802 338.281638,329.009196 C342.801318,332.644591 345.061124,338.687116 345.061124,347.136953 L345.061124,376.61298 Z M383.711565,374.697038 C383.711565,377.153386 383.760691,379.216688 383.858945,380.887004 C383.957199,382.557321 384.227393,383.932855 384.669536,385.013648 C385.111678,386.094441 385.848571,386.929587 386.880238,387.51911 C387.911904,388.108634 389.361127,388.55077 391.227952,388.845531 C391.817475,388.943785 392.259611,389.21398 392.554373,389.656122 C392.849135,390.098265 392.996513,390.61409 392.996513,391.203614 C392.996513,391.694883 392.849135,392.161582 392.554373,392.603725 C392.259611,393.045868 391.817475,393.266936 391.227952,393.266936 C390.245412,393.266936 388.403179,393.094994 385.701197,392.751105 C382.999214,392.407216 380.174456,392.235275 377.226839,392.235275 C374.082713,392.235275 371.036888,392.407216 368.08927,392.751105 C365.141653,393.094994 362.390585,393.266936 359.835983,393.266936 C359.344713,393.266936 358.951703,393.045868 358.656942,392.603725 C358.36218,392.161582 358.214801,391.694883 358.214801,391.203614 C358.214801,390.61409 358.36218,390.098265 358.656942,389.656122 C358.951703,389.21398 359.393839,388.943785 359.983363,388.845531 C362.439711,388.55077 364.33107,388.15776 365.657498,387.66649 C366.983926,387.175221 367.96645,386.438327 368.605101,385.455788 C369.243751,384.473249 369.612198,383.195967 369.710452,381.623905 C369.808706,380.051842 369.857832,378.037667 369.857832,375.581319 L369.857832,357.011422 C369.857832,352.19698 369.808706,348.193193 369.710452,344.999941 C369.612198,341.806689 369.268314,339.276689 368.678791,337.409864 C368.089267,335.54304 367.155869,334.241195 365.878568,333.504291 C364.601267,332.767386 362.783597,332.39894 360.425503,332.39894 C359.83598,332.39894 359.369281,332.202435 359.025392,331.809419 C358.681503,331.416403 358.509562,330.974267 358.509562,330.482998 C358.509562,329.893474 358.681503,329.402212 359.025392,329.009196 C359.369281,328.616181 359.83598,328.419676 360.425503,328.419676 C362.292328,328.419676 365.018833,328.124919 368.605101,327.535395 C372.191369,326.945872 375.851272,326.110726 379.584921,325.029933 C380.960476,324.636917 381.992126,324.907111 382.679904,325.840524 C383.367681,326.773936 383.711565,327.830149 383.711565,329.009196 L383.711565,334.904402 C383.711565,335.10091 383.785254,335.223725 383.932635,335.272852 C384.080016,335.321979 384.202831,335.24829 384.301085,335.051782 C384.988863,333.970989 385.946824,332.767397 387.174998,331.440969 C388.403172,330.114541 389.876958,328.861822 391.596402,327.682775 C393.315845,326.503728 395.256331,325.521204 397.417917,324.735173 C399.579503,323.949141 401.986688,323.556131 404.639544,323.556131 C412.008588,323.556131 417.780918,325.59487 421.95671,329.672407 C426.132501,333.749945 428.220366,340.357421 428.220366,349.495035 L428.220366,374.697038 C428.220366,377.349894 428.294055,379.511448 428.441436,381.181764 C428.588817,382.852081 428.9327,384.203052 429.473097,385.234718 C430.013493,386.266384 430.848639,387.052404 431.978559,387.5928 C433.108479,388.133197 434.705081,388.55077 436.768413,388.845531 C437.357937,388.943785 437.800073,389.21398 438.094835,389.656122 C438.389596,390.098265 438.536975,390.61409 438.536975,391.203614 C438.536975,391.694883 438.389596,392.161582 438.094835,392.603725 C437.800073,393.045868 437.357937,393.266936 436.768413,393.266936 C435.491113,393.266936 433.403248,393.094994 430.504758,392.751105 C427.606267,392.407216 424.683257,392.235275 421.73564,392.235275 C418.591514,392.235275 415.594815,392.407216 412.745451,392.751105 C409.896088,393.094994 407.538029,393.266936 405.671205,393.266936 C405.179935,393.266936 404.786926,393.045868 404.492164,392.603725 C404.197402,392.161582 404.050023,391.694883 404.050023,391.203614 C404.050023,390.61409 404.197402,390.098265 404.492164,389.656122 C404.786926,389.21398 405.229062,388.943785 405.818585,388.845531 C407.980171,388.55077 409.6259,388.108634 410.75582,387.51911 C411.88574,386.929587 412.720885,386.119004 413.261282,385.087338 C413.801678,384.055672 414.120999,382.77839 414.219253,381.255454 C414.317507,379.732519 414.366633,377.841159 414.366633,375.581319 L414.366633,353.179539 C414.366633,350.723191 414.26838,348.26688 414.071873,345.810532 C413.875365,343.354184 413.334976,341.143504 412.450691,339.178426 C411.566406,337.213348 410.289124,335.592182 408.618808,334.314881 C406.948491,333.03758 404.639559,332.39894 401.691941,332.39894 C398.744324,332.39894 396.165197,332.865639 393.954484,333.799051 C391.743771,334.732463 389.876975,335.985182 388.354039,337.557244 C386.831103,339.129307 385.676637,340.97154 384.890606,343.083999 C384.104574,345.196459 383.711565,347.431702 383.711565,349.789796 L383.711565,374.697038 Z M480.230001,362.022347 C480.230001,360.941554 480.180875,360.27835 480.082621,360.032715 C479.984367,359.78708 479.738736,359.664265 479.34572,359.664265 C471.288899,360.352042 465.320064,362.046897 461.439034,364.748879 C457.558004,367.450862 455.617519,370.914261 455.617519,375.139179 C455.617519,378.086796 456.354412,380.56767 457.828221,382.581876 C459.302029,384.596081 461.75834,385.603168 465.197227,385.603168 C467.457067,385.603168 469.839689,385.161033 472.345164,384.276747 C474.850639,383.392462 477.085882,382.11518 479.05096,380.444864 C479.836991,379.658832 480.230001,378.872813 480.230001,378.086782 L480.230001,362.022347 Z M494.083734,376.61298 C494.083734,380.051867 494.403054,382.459052 495.041705,383.834607 C495.680355,385.210162 496.933074,385.897929 498.799898,385.897929 C499.880691,385.897929 500.764963,385.775113 501.452741,385.529478 C502.140518,385.283844 503.123043,384.768018 504.400343,383.981987 C504.695105,383.785479 505.014426,383.785479 505.358314,383.981987 C505.702203,384.178495 505.99696,384.448689 506.242595,384.792578 C506.48823,385.136466 506.660172,385.529476 506.758426,385.971619 C506.856679,386.413761 506.758427,386.782208 506.463665,387.07697 C502.631763,391.694904 498.11215,394.003836 492.904693,394.003836 C490.055329,394.003836 487.623581,393.24238 485.609376,391.719444 C483.595171,390.196508 482.096821,388.403401 481.114282,386.340069 C480.917774,385.8488 480.623017,385.799673 480.230001,386.192689 C477.675399,388.452529 474.703263,390.319325 471.313503,391.793134 C467.923743,393.266943 463.674325,394.003836 458.565121,394.003836 C452.964648,394.003836 448.641541,392.505486 445.595669,389.508742 C442.549798,386.511998 441.026885,382.26258 441.026885,376.76036 C441.026885,369.686078 444.318342,364.257631 450.901354,360.474855 C457.484367,356.69208 467.06398,354.80072 479.640481,354.80072 C479.836988,354.80072 479.984367,354.555089 480.082621,354.063819 C480.180875,353.57255 480.230001,352.442647 480.230001,350.674076 L480.230001,346.694813 C480.230001,344.238465 480.033496,341.929532 479.640481,339.767946 C479.247465,337.60636 478.584261,335.715001 477.650849,334.093811 C476.717437,332.472622 475.415592,331.19534 473.745275,330.261928 C472.074959,329.328515 470.011657,328.861816 467.55531,328.861816 C463.919915,328.861816 460.972341,329.574147 458.712501,330.998828 C456.452661,332.42351 455.322758,334.265743 455.322758,336.525583 C455.322758,337.606376 455.666642,338.66259 456.354419,339.694256 C457.042197,340.725922 457.38608,341.782136 457.38608,342.862929 C457.38608,344.238484 456.698313,345.564892 455.322758,346.842193 C453.947203,348.119494 452.276912,348.758135 450.311834,348.758135 C447.658978,348.758135 445.767619,348.045804 444.637698,346.621123 C443.507778,345.196441 442.942827,343.45246 442.942827,341.389128 C442.942827,338.93278 443.630594,336.599284 445.006149,334.388571 C446.381704,332.177858 448.2485,330.286499 450.606594,328.714436 C452.964688,327.142374 455.715756,325.889655 458.859882,324.956243 C462.004007,324.022831 465.295464,323.556131 468.734351,323.556131 C476.594664,323.556131 482.784568,325.373802 487.304248,329.009196 C491.823928,332.644591 494.083734,338.687116 494.083734,347.136953 L494.083734,376.61298 Z M580.464602,393.266936 C578.892539,393.168682 577.295937,393.070429 575.674748,392.972175 C574.053558,392.873921 572.358703,392.824795 570.590133,392.824795 C568.625055,392.824795 566.684569,392.898484 564.768618,393.045865 C562.852666,393.193246 561.059559,393.266936 559.389243,393.266936 C558.701465,393.266936 558.210203,393.021304 557.915441,392.530035 C557.62068,392.038765 557.424175,391.596629 557.325921,391.203614 C556.539889,387.076949 555.238045,383.220541 553.420347,379.634273 C551.60265,376.048005 549.514785,372.879364 547.156691,370.128254 C544.798597,367.377145 542.268597,365.215591 539.566614,363.643528 C536.864632,362.071466 534.187253,361.285446 531.534397,361.285446 L531.534397,372.781097 C531.534397,375.63046 531.583523,377.988519 531.681777,379.855343 C531.780031,381.722168 532.099352,383.24508 532.639748,384.424127 C533.180145,385.603174 534.039853,386.536573 535.2189,387.22435 C536.397947,387.912127 538.117365,388.452516 540.377205,388.845531 C540.966729,388.943785 541.408865,389.238543 541.703626,389.729812 C541.998388,390.221082 542.145767,390.712344 542.145767,391.203614 C542.145767,391.694883 541.998388,392.161582 541.703626,392.603725 C541.408865,393.045868 540.966729,393.266936 540.377205,393.266936 C537.626096,393.266936 535.120658,393.094994 532.860818,392.751105 C530.600978,392.407216 527.997289,392.235275 525.049671,392.235275 C521.905546,392.235275 518.810594,392.407216 515.764723,392.751105 C512.718851,393.094994 509.623899,393.266936 506.479774,393.266936 C505.988504,393.266936 505.595495,393.045868 505.300733,392.603725 C505.005971,392.161582 504.858593,391.694883 504.858593,391.203614 C504.858593,390.61409 505.005971,390.098265 505.300733,389.656122 C505.595495,389.21398 506.037631,388.943785 506.627154,388.845531 C509.378264,388.55077 511.515254,388.108634 513.03819,387.51911 C514.561126,386.929587 515.666466,386.119004 516.354243,385.087338 C517.042021,384.055672 517.43503,382.77839 517.533284,381.255454 C517.631538,379.732519 517.680664,377.841159 517.680664,375.581319 L517.680664,317.660926 C517.680664,313.436008 517.582412,310.070862 517.385904,307.565387 C517.189396,305.059912 516.649008,303.119426 515.764723,301.743871 C514.880437,300.368317 513.554029,299.434918 511.785459,298.943649 C510.016888,298.452379 507.560577,298.059369 504.416452,297.764608 C503.925183,297.764608 503.556736,297.518977 503.311101,297.027707 C503.065466,296.536437 502.918088,296.045175 502.868961,295.553906 C502.819834,295.062636 502.918086,294.571374 503.163721,294.080104 C503.409356,293.588835 503.826929,293.343204 504.416452,293.343204 C507.953593,293.146696 511.859128,292.851939 516.133173,292.458923 C520.407218,292.065907 524.361879,291.329014 527.997274,290.248221 C529.372829,289.855205 530.281664,289.928895 530.723806,290.469291 C531.165949,291.009688 531.436143,291.574639 531.534397,292.164163 L531.534397,354.9481 C533.401221,353.769053 535.169765,352.442645 536.840082,350.968837 C538.510399,349.495028 540.033311,347.972115 541.408866,346.400052 C542.784421,344.82799 544.061703,343.305077 545.24075,341.831268 C546.419797,340.35746 547.451447,339.080178 548.335733,337.999385 C550.300811,335.444783 551.16052,333.60255 550.914885,332.47263 C550.66925,331.34271 548.974395,330.679506 545.83027,330.482998 C545.339001,330.482998 544.945991,330.237367 544.651229,329.746097 C544.356467,329.254828 544.209089,328.763565 544.209089,328.272296 C544.209089,327.682772 544.356467,327.166947 544.651229,326.724804 C544.945991,326.282662 545.339001,326.061594 545.83027,326.061594 C547.402333,326.061594 548.753304,326.11072 549.883224,326.208974 C551.013144,326.307228 552.044795,326.430043 552.978207,326.577424 C553.911619,326.724805 554.820454,326.847621 555.704739,326.945875 C556.589025,327.044128 557.620675,327.093255 558.799722,327.093255 C561.059562,327.093255 563.368495,326.921313 565.726589,326.577424 C568.084682,326.233536 570.393615,326.061594 572.653455,326.061594 C573.046471,326.061594 573.390354,326.282662 573.685116,326.724804 C573.979878,327.166947 574.127256,327.682772 574.127256,328.272296 C574.127256,328.763565 574.004441,329.230264 573.758806,329.672407 C573.513171,330.11455 573.144724,330.384744 572.653455,330.482998 C570.688377,330.679506 569.067211,330.974263 567.78991,331.367279 C566.51261,331.760294 565.33358,332.300683 564.252787,332.98846 C563.171994,333.676238 562.140343,334.48682 561.157804,335.420232 C560.175265,336.353645 558.996236,337.458985 557.620681,338.736285 C556.736396,339.522317 555.557367,340.603094 554.083558,341.978648 C552.609749,343.354203 551.013147,344.803427 549.293703,346.326362 C547.57426,347.849298 545.903968,349.298522 544.282779,350.674076 C542.661589,352.049631 541.261492,353.179534 540.082445,354.063819 C539.689429,354.358581 539.542051,354.653339 539.640305,354.9481 C539.738558,355.242862 539.935063,355.390241 540.229825,355.390241 C544.159982,355.586749 547.426875,356.249953 550.030604,357.379873 C552.634333,358.509793 554.82045,359.934453 556.58902,361.653896 C558.357591,363.37334 559.85594,365.313826 561.084114,367.475412 C562.312288,369.636998 563.540444,371.872241 564.768618,374.181208 C565.996792,376.490175 567.372326,378.749981 568.895261,380.960694 C570.418197,383.171407 572.358683,385.210145 574.716777,387.07697 C575.404554,387.568239 576.264263,387.961249 577.295929,388.256011 C578.327595,388.550773 579.383809,388.747278 580.464602,388.845531 C581.054126,388.845531 581.496262,389.091163 581.791023,389.582432 C582.085785,390.073702 582.233164,390.61409 582.233164,391.203614 C582.233164,391.694883 582.085785,392.161582 581.791023,392.603725 C581.496262,393.045868 581.054126,393.266936 580.464602,393.266936 L580.464602,393.266936 Z M646.096532,356.864042 C646.096532,362.857531 645.261386,368.163163 643.59107,372.781097 C641.920753,377.399031 639.538131,381.280002 636.443133,384.424127 C633.348135,387.568253 629.639105,389.950874 625.315933,391.572064 C620.992761,393.193254 616.178391,394.003836 610.87268,394.003836 C606.254746,394.003836 601.980764,393.24238 598.050608,391.719444 C594.120451,390.196508 590.730742,387.936702 587.881379,384.939958 C585.032015,381.943213 582.772209,378.160494 581.101892,373.591687 C579.431576,369.02288 578.59643,363.643559 578.59643,357.453563 C578.59643,352.442613 579.431576,347.849311 581.101892,343.67352 C582.772209,339.497729 585.105704,335.936078 588.102449,332.98846 C591.099193,330.040843 594.70997,327.73191 598.934889,326.061594 C603.159807,324.391277 607.777672,323.556131 612.788621,323.556131 C617.603063,323.556131 622.048986,324.293025 626.126524,325.766833 C630.204061,327.240642 633.716586,329.377633 636.664203,332.177869 C639.611821,334.978106 641.920753,338.441505 643.59107,342.568169 C645.261386,346.694833 646.096532,351.460077 646.096532,356.864042 L646.096532,356.864042 Z M630.621618,358.485224 C630.621618,354.751575 630.375987,351.116234 629.884717,347.579094 C629.393448,344.041953 628.509176,340.897874 627.231875,338.146765 C625.954574,335.395655 624.18603,333.184975 621.92619,331.514659 C619.66635,329.844342 616.767903,329.009196 613.230762,329.009196 C609.300605,329.009196 606.107401,329.844342 603.651053,331.514659 C601.194705,333.184975 599.254219,335.420218 597.829538,338.220455 C596.404856,341.020692 595.422331,344.189333 594.881935,347.726474 C594.341538,351.263615 594.071344,354.948081 594.071344,358.779984 C594.071344,362.120617 594.316975,365.559452 594.808245,369.096593 C595.299514,372.633734 596.232913,375.826939 597.608467,378.676302 C598.984022,381.525666 600.875382,383.883724 603.282603,385.750549 C605.689824,387.617373 608.760212,388.550771 612.493861,388.550771 C616.325764,388.550771 619.420716,387.666499 621.77881,385.897929 C624.136904,384.129358 625.979137,381.820426 627.305565,378.971062 C628.631993,376.121699 629.516265,372.903931 629.958407,369.317664 C630.40055,365.731396 630.621618,362.120618 630.621618,358.485224 L630.621618,358.485224 Z M263.642531,431.621181 C267.376179,432.701975 271.060646,434.126635 274.696041,435.895205 C275.776834,436.386475 276.783921,436.853174 277.717334,437.295317 C278.650746,437.737459 279.461328,437.958527 280.149106,437.958527 C281.721168,437.958527 282.752819,437.025129 283.244089,435.158305 C283.342343,434.765289 283.661663,434.470532 284.20206,434.274024 C284.742456,434.077516 285.282844,434.003827 285.823241,434.052954 C286.363638,434.102081 286.830337,434.224896 287.223352,434.421404 C287.616368,434.617912 287.763747,434.912669 287.665493,435.305685 C287.272477,436.877748 287.002283,438.498913 286.854902,440.169229 C286.707521,441.839546 286.633832,443.558964 286.633832,445.327534 C286.633832,448.078644 286.830337,450.829712 287.223352,453.580822 C287.616368,456.331931 288.009378,459.181252 288.402393,462.12887 C288.402393,462.521885 288.181325,462.841206 287.739183,463.08684 C287.29704,463.332475 286.756652,463.479854 286.118001,463.528981 C285.479351,463.578108 284.865273,463.504418 284.27575,463.307911 C283.686226,463.111403 283.342343,462.767519 283.244089,462.27625 C280.787741,453.433397 276.808517,446.924173 271.306298,442.748382 C265.804078,438.57259 258.877281,436.484726 250.525699,436.484726 C244.04094,436.484726 238.686182,437.86026 234.461264,440.61137 C230.236345,443.362479 226.871199,446.92413 224.365725,451.29643 C221.86025,455.668729 220.116269,460.483098 219.13373,465.739683 C218.151191,470.996267 217.659928,476.129957 217.659928,481.140907 C217.659928,486.643126 218.249443,492.145263 219.42849,497.647482 C220.607537,503.149701 222.52346,508.11145 225.176315,512.532876 C227.829171,516.954302 231.29257,520.565079 235.566615,523.365316 C239.84066,526.165552 245.023476,527.56565 251.115219,527.56565 C255.831407,527.56565 260.056262,527.148077 263.789911,526.312919 C267.52356,525.47776 270.667638,523.930284 273.222239,521.670444 C276.366365,518.821081 278.871802,515.406808 280.738626,511.427525 C282.605451,507.448241 283.931859,502.953192 284.71789,497.942242 C284.816144,497.254465 285.135464,496.812329 285.675861,496.615821 C286.216257,496.419313 286.781209,496.39475 287.370732,496.542131 C287.960256,496.689512 288.500644,496.959706 288.991914,497.352722 C289.483184,497.745738 289.679688,498.138747 289.581434,498.531763 C289.286673,500.496841 289.090168,502.437327 288.991914,504.353278 C288.89366,506.26923 288.685591,507.65741 288.110151,510.848816 C287.598436,513.686808 287.288622,520.43731 285.675863,524.029724 C284.717894,526.31292 280.149107,528.607361 276.542524,530.158142 C274.300743,531.122077 265.910689,533.755615 250.083558,533.755615 C232.69404,533.755616 219.796982,529.407945 211.396273,520.712473 C202.995563,512.017002 198.795271,499.563505 198.795271,483.351609 C198.795271,474.705265 200.121679,467.066137 202.774535,460.433998 C205.42739,453.801859 209.087294,448.226033 213.754355,443.706353 C218.421416,439.186673 223.972679,435.7724 230.40831,433.463433 C236.843942,431.154466 243.844428,430 251.409979,430 C255.831406,430 259.908882,430.540388 263.642531,431.621181 Z M307.440215,456.660926 C307.440215,452.436008 307.341963,449.070862 307.145455,446.565387 C306.948947,444.059912 306.457685,442.119426 305.671654,440.743871 C304.885622,439.368317 303.68203,438.434918 302.06084,437.943649 C300.439651,437.452379 298.204408,437.059369 295.355044,436.764608 C294.863775,436.764608 294.495328,436.518977 294.249693,436.027707 C294.004059,435.536437 293.85668,435.045175 293.807553,434.553906 C293.758426,434.062636 293.856678,433.571374 294.102313,433.080104 C294.347948,432.588835 294.765521,432.343204 295.355044,432.343204 C298.302662,432.146696 301.864313,431.851939 306.040104,431.458923 C310.215896,431.065907 314.12143,430.329014 317.756825,429.248221 C319.13238,428.855205 320.041215,428.928895 320.483357,429.469291 C320.9255,430.009688 321.195694,430.574639 321.293948,431.164163 L321.293948,513.697038 C321.293948,516.153386 321.343074,518.216688 321.441328,519.887004 C321.539582,521.557321 321.908029,522.932855 322.546679,524.013648 C323.18533,525.094441 324.21698,525.929587 325.641662,526.51911 C327.066344,527.108634 329.055956,527.55077 331.610558,527.845531 C332.200081,527.943785 332.642217,528.21398 332.936979,528.656122 C333.231741,529.098265 333.379119,529.61409 333.379119,530.203614 C333.379119,530.694883 333.231741,531.161582 332.936979,531.603725 C332.642217,532.045868 332.200081,532.266936 331.610558,532.266936 C329.252464,532.266936 326.599648,532.094994 323.65203,531.751105 C320.704413,531.407216 317.75684,531.235275 314.809222,531.235275 C311.665097,531.235275 308.570145,531.407216 305.524274,531.751105 C302.478402,532.094994 299.38345,532.266936 296.239325,532.266936 C295.748056,532.266936 295.355046,532.045868 295.060284,531.603725 C294.765522,531.161582 294.618144,530.694883 294.618144,530.203614 C294.618144,529.61409 294.765522,529.098265 295.060284,528.656122 C295.355046,528.21398 295.797182,527.943785 296.386705,527.845531 C299.137815,527.55077 301.274805,527.108634 302.797741,526.51911 C304.320677,525.929587 305.426017,525.119004 306.113794,524.087338 C306.801572,523.055672 307.194581,521.77839 307.292835,520.255454 C307.391089,518.732519 307.440215,516.841159 307.440215,514.581319 L307.440215,456.660926 Z M404.623708,506.191987 C404.623708,510.220397 404.697397,513.487291 404.844778,515.992766 C404.992159,518.498241 405.434295,520.46329 406.171199,521.887971 C406.908104,523.312653 408.013444,524.295178 409.487252,524.835574 C410.961061,525.375971 413.024362,525.646165 415.677218,525.646165 C416.070234,525.646165 416.389554,525.867233 416.635189,526.309375 C416.880824,526.751518 417.003639,527.267343 417.003639,527.856867 C417.003639,528.348136 416.905387,528.839399 416.708879,529.330668 C416.512371,529.821938 416.168488,530.067569 415.677218,530.067569 C414.891187,530.067569 414.227983,530.092132 413.687586,530.141259 C413.14719,530.190386 412.606801,530.239512 412.066405,530.288639 C411.526008,530.337766 410.936494,530.411455 410.297843,530.509709 C409.659193,530.607963 408.84861,530.706216 407.866071,530.80447 C407.08004,530.902723 405.9747,531.099228 404.550018,531.39399 C403.125336,531.688752 401.676113,531.983509 400.202304,532.278271 C398.728495,532.573033 397.352961,532.818664 396.07566,533.015172 C394.798359,533.211679 393.963213,533.309932 393.570198,533.309932 C391.801627,533.309932 390.917355,530.558864 390.917355,525.056644 C390.917355,524.860136 390.819103,524.737321 390.622595,524.688194 C390.426087,524.639067 390.229582,524.712756 390.033075,524.909264 C386.39768,528.053389 382.737776,530.239506 379.053254,531.46768 C375.368733,532.695854 371.807082,533.309932 368.368195,533.309932 C363.848515,533.309932 360.114922,532.74498 357.167304,531.61506 C354.219687,530.48514 351.910755,528.839412 350.240438,526.677826 C348.570121,524.51624 347.391092,521.838861 346.703315,518.645608 C346.015537,515.452356 345.671654,511.841579 345.671654,507.813168 L345.671654,491.159213 C345.671654,486.934295 345.573401,483.642838 345.376894,481.284744 C345.180386,478.92665 344.73825,477.158106 344.050472,475.979059 C343.362695,474.800012 342.331044,474.013993 340.955489,473.620977 C339.579935,473.227961 337.713138,472.884078 335.355044,472.589316 C334.863775,472.589316 334.495328,472.343685 334.249693,471.852415 C334.004059,471.361146 333.85668,470.869884 333.807553,470.378614 C333.758426,469.887344 333.856678,469.396082 334.102313,468.904813 C334.347948,468.413543 334.765521,468.167912 335.355044,468.167912 C336.337583,468.069658 337.639428,467.922279 339.260618,467.725772 C340.881807,467.529264 342.625788,467.234506 344.492613,466.841491 C346.359437,466.448475 348.299923,466.030902 350.314128,465.58876 C352.328333,465.146617 354.219693,464.679918 355.988263,464.188648 C357.363818,463.795633 358.297216,464.016701 358.788486,464.851859 C359.279755,465.687017 359.525387,466.399347 359.525387,466.988871 L359.525387,502.065343 C359.525387,505.9955 359.697328,509.336083 360.041217,512.087192 C360.385106,514.838302 360.999183,517.098108 361.883469,518.866679 C362.767754,520.635249 363.995909,521.912531 365.567972,522.698562 C367.140035,523.484593 369.105084,523.877603 371.463177,523.877603 C374.803811,523.877603 378.291772,523.288089 381.927167,522.109042 C385.562562,520.929995 388.31363,519.505334 390.180455,517.835018 C390.475216,517.540256 390.647158,516.999867 390.696285,516.213836 C390.745412,515.427805 390.769975,514.83829 390.769975,514.445275 L390.769975,491.159213 C390.769975,486.934295 390.720849,483.642838 390.622595,481.284744 C390.524341,478.92665 390.180458,477.158106 389.590934,475.979059 C389.001411,474.800012 388.092576,474.013993 386.864402,473.620977 C385.636228,473.227961 383.843121,472.884078 381.485027,472.589316 C380.993757,472.491062 380.62531,472.220868 380.379676,471.778725 C380.134041,471.336583 379.986662,470.84532 379.937535,470.304924 C379.888408,469.764527 379.986661,469.273265 380.232296,468.831123 C380.47793,468.38898 380.895503,468.167912 381.485027,468.167912 C385.022168,467.971404 388.264498,467.529268 391.212116,466.841491 C394.159733,466.153713 397.45119,465.269441 401.086585,464.188648 C402.46214,463.795633 403.395538,464.016701 403.886807,464.851859 C404.378077,465.687017 404.623708,466.399347 404.623708,466.988871 L404.623708,506.191987 Z M428.440215,456.660926 C428.440215,452.436008 428.341963,449.070862 428.145455,446.565387 C427.948947,444.059912 427.457685,442.119426 426.671654,440.743871 C425.885622,439.368317 424.68203,438.434918 423.06084,437.943649 C421.439651,437.452379 419.204408,437.059369 416.355044,436.764608 C415.863775,436.764608 415.495328,436.518977 415.249693,436.027707 C415.004059,435.536437 414.85668,435.045175 414.807553,434.553906 C414.758426,434.062636 414.856678,433.571374 415.102313,433.080104 C415.347948,432.588835 415.765521,432.343204 416.355044,432.343204 C419.302662,432.146696 422.864313,431.851939 427.040104,431.458923 C431.215896,431.065907 435.12143,430.329014 438.756825,429.248221 C440.13238,428.855205 441.041215,428.928895 441.483357,429.469291 C441.9255,430.009688 442.195694,430.574639 442.293948,431.164163 L442.293948,513.697038 C442.293948,516.153386 442.343074,518.216688 442.441328,519.887004 C442.539582,521.557321 442.908029,522.932855 443.546679,524.013648 C444.18533,525.094441 445.21698,525.929587 446.641662,526.51911 C448.066344,527.108634 450.055956,527.55077 452.610558,527.845531 C453.200081,527.943785 453.642217,528.21398 453.936979,528.656122 C454.231741,529.098265 454.379119,529.61409 454.379119,530.203614 C454.379119,530.694883 454.231741,531.161582 453.936979,531.603725 C453.642217,532.045868 453.200081,532.266936 452.610558,532.266936 C450.252464,532.266936 447.599648,532.094994 444.65203,531.751105 C441.704413,531.407216 438.75684,531.235275 435.809222,531.235275 C432.665097,531.235275 429.570145,531.407216 426.524274,531.751105 C423.478402,532.094994 420.38345,532.266936 417.239325,532.266936 C416.748056,532.266936 416.355046,532.045868 416.060284,531.603725 C415.765522,531.161582 415.618144,530.694883 415.618144,530.203614 C415.618144,529.61409 415.765522,529.098265 416.060284,528.656122 C416.355046,528.21398 416.797182,527.943785 417.386705,527.845531 C420.137815,527.55077 422.274805,527.108634 423.797741,526.51911 C425.320677,525.929587 426.426017,525.119004 427.113794,524.087338 C427.801572,523.055672 428.194581,521.77839 428.292835,520.255454 C428.391089,518.732519 428.440215,516.841159 428.440215,514.581319 L428.440215,456.660926 Z M525.295373,496.307911 C525.295373,502.301399 524.460227,507.607031 522.789911,512.224965 C521.119594,516.842899 518.736973,520.723871 515.641974,523.867996 C512.546976,527.012121 508.837946,529.394743 504.514774,531.015933 C500.191602,532.637122 495.377232,533.447705 490.071521,533.447705 C485.453587,533.447705 481.179606,532.686248 477.249449,531.163313 C473.319292,529.640377 469.929583,527.380571 467.08022,524.383826 C464.230856,521.387082 461.97105,517.604363 460.300733,513.035556 C458.630417,508.466749 457.795271,503.087428 457.795271,496.897431 C457.795271,491.886481 458.630417,487.29318 460.300733,483.117388 C461.97105,478.941597 464.304545,475.379946 467.30129,472.432329 C470.298034,469.484711 473.908811,467.175779 478.13373,465.505462 C482.358648,463.835146 486.976513,463 491.987462,463 C496.801904,463 501.247827,463.736893 505.325365,465.210702 C509.402902,466.684511 512.915427,468.821501 515.863044,471.621738 C518.810662,474.421974 521.119594,477.885373 522.789911,482.012037 C524.460227,486.138702 525.295373,490.903945 525.295373,496.307911 L525.295373,496.307911 Z M509.345545,497.476027 C509.345545,493.742378 509.099914,490.107038 508.608644,486.569897 C508.117374,483.032756 507.233102,479.888678 505.955802,477.137568 C504.678501,474.386459 502.909957,472.175779 500.650117,470.505462 C498.390277,468.835146 495.49183,468 491.954689,468 C488.024532,468 484.831328,468.835146 482.37498,470.505462 C479.918632,472.175779 477.978146,474.411022 476.553464,477.211258 C475.128783,480.011495 474.146258,483.180136 473.605862,486.717277 C473.065465,490.254418 472.795271,493.938885 472.795271,497.770787 C472.795271,501.11142 473.040902,504.550256 473.532172,508.087397 C474.023441,511.624538 474.956839,514.817742 476.332394,517.667106 C477.707949,520.516469 479.599309,522.874528 482.00653,524.741352 C484.41375,526.608177 487.484139,527.541575 491.217788,527.541575 C495.049691,527.541575 498.144643,526.657303 500.502737,524.888732 C502.86083,523.120162 504.703064,520.811229 506.029492,517.961866 C507.355919,515.112502 508.240191,511.894735 508.682334,508.308467 C509.124477,504.722199 509.345545,501.111422 509.345545,497.476027 L509.345545,497.476027 Z M594.737513,487.917611 C597.783385,495.237528 600.878337,502.581898 604.022462,509.950941 C604.21897,510.638719 604.53829,510.933476 604.980433,510.835222 C605.422576,510.736968 605.741896,510.442211 605.938404,509.950941 C607.60872,504.64523 609.057944,499.536103 610.286118,494.623407 C611.514292,489.710711 612.668758,484.748963 613.749551,479.738014 C614.142567,478.165951 614.339072,476.741291 614.339072,475.46399 C614.339072,473.20415 613.749557,471.754926 612.57051,471.116276 C611.391463,470.477625 609.524667,469.9618 606.970065,469.568784 C606.282287,469.47053 605.791025,469.175773 605.496263,468.684503 C605.201502,468.193234 605.054123,467.701972 605.054123,467.210702 C605.054123,466.621179 605.226065,466.105353 605.569953,465.663211 C605.913842,465.221068 606.380541,465 606.970065,465 C609.328159,465 611.489712,465.196505 613.454791,465.589521 C615.419869,465.982536 617.384918,466.179041 619.349996,466.179041 C621.315074,466.179041 623.402939,465.982536 625.613652,465.589521 C627.824365,465.196505 629.617472,465 630.993027,465 C631.58255,465 632.000123,465.221068 632.245758,465.663211 C632.491393,466.105353 632.614208,466.621179 632.614208,467.210702 C632.614208,467.800226 632.491393,468.340614 632.245758,468.831884 C632.000123,469.323153 631.680803,469.568784 631.287787,469.568784 C629.322709,469.765292 627.67698,470.231991 626.350553,470.968895 C625.024125,471.7058 623.894222,472.712887 622.960809,473.990188 C622.027397,475.267489 621.241378,476.741276 620.602727,478.411592 C619.964077,480.081909 619.349999,481.899579 618.760476,483.864657 C613.84778,500.666077 608.591274,517.319866 602.990801,533.826523 C602.794293,534.416047 602.180215,534.735367 601.148549,534.784494 C600.116883,534.833621 599.502806,534.563427 599.306298,533.973903 C596.456934,526.211844 593.558487,518.499027 590.61087,510.835222 C587.663252,503.171417 584.371795,495.262095 580.736401,487.10702 C580.539893,486.615751 580.245135,486.37012 579.85212,486.37012 C579.459104,486.37012 579.164347,486.615751 578.967839,487.10702 C577.199269,491.724954 575.528977,496.048062 573.956914,500.076472 C572.384852,504.104883 570.886502,507.985854 569.46182,511.719503 C568.037138,515.453152 566.637041,519.137618 565.261486,522.773013 C563.885932,526.408408 562.510397,530.142001 561.134843,533.973903 C560.938335,534.563427 560.299694,534.882747 559.218901,534.931874 C558.138108,534.981001 557.499467,534.661681 557.302959,533.973903 C554.257088,525.327559 551.284951,516.755033 548.386461,508.25607 C545.48797,499.757106 542.712339,491.282833 540.059483,482.832996 C539.273452,480.376649 538.511995,478.362473 537.775091,476.790411 C537.038187,475.218348 536.227604,473.941066 535.343319,472.958527 C534.459034,471.975988 533.427383,471.239095 532.248336,470.747825 C531.069289,470.256556 529.693755,469.863546 528.121692,469.568784 C527.630423,469.47053 527.286539,469.175773 527.090031,468.684503 C526.893523,468.193234 526.795271,467.701972 526.795271,467.210702 C526.795271,466.621179 526.893523,466.105353 527.090031,465.663211 C527.286539,465.221068 527.630423,465 528.121692,465 C530.57804,465 533.10804,465.196505 535.711769,465.589521 C538.315498,465.982536 541.042003,466.179041 543.891367,466.179041 C546.74073,466.179041 549.516362,465.982536 552.218344,465.589521 C554.920327,465.196505 557.646832,465 560.397942,465 C560.889211,465 561.282221,465.221068 561.576983,465.663211 C561.871745,466.105353 562.043687,466.596615 562.092813,467.137012 C562.14194,467.677408 562.019125,468.193234 561.724363,468.684503 C561.429601,469.175773 560.987465,469.47053 560.397942,469.568784 C557.548578,469.9618 555.534403,470.600441 554.355356,471.484726 C553.176309,472.369011 552.586795,473.597167 552.586795,475.169229 C552.586795,475.955261 552.685047,476.81497 552.881555,477.748382 C553.078063,478.681794 553.323694,479.688881 553.618456,480.769674 C554.99401,485.780624 556.443234,490.693246 557.96617,495.507688 C559.489105,500.32213 561.085708,505.136499 562.756024,509.950941 C562.952532,510.540465 563.296415,510.835222 563.787685,510.835222 C564.377209,510.835222 564.770218,510.589591 564.966726,510.098321 C570.665453,494.574203 576.364095,479.885463 582.062822,466.031661 C582.357584,465.343884 582.897972,465 583.684003,465 C584.568289,465 585.157803,465.294757 585.452565,465.884281 C588.59669,473.253324 591.691642,480.597694 594.737513,487.917611 Z" id="Hanako-Copy-20" fill="#907A90"></path>
        </g>
    </g>
</svg>