<?xml version="1.0" encoding="UTF-8" standalone="no"?>
<svg width="482px" height="255px" viewBox="0 0 482 255" version="1.1" xmlns="http://www.w3.org/2000/svg" xmlns:xlink="http://www.w3.org/1999/xlink">
    <!-- Generator: Sketch 39.1 (31720) - http://www.bohemiancoding.com/sketch -->
    <title>Hanako Copy 19</title>
    <desc>Created with Sketch.</desc>
    <defs></defs>
    <g id="Page-1" stroke="none" stroke-width="1" fill="none" fill-rule="evenodd">
        <path d="M79.8074922,48.5889053 C80.9865392,48.5889053 81.846248,48.3924004 82.3866446,47.9993847 C82.9270411,47.6063691 83.1972353,46.8203495 83.1972353,45.6413026 L83.1972353,25.5976041 C83.1972353,22.5517328 83.0252935,19.9480431 82.6814048,17.786457 C82.3375161,15.6248708 81.6743121,13.8563269 80.691773,12.4807721 C79.7092338,11.1052173 78.3091366,10.0490035 76.4914391,9.31209917 C74.6737417,8.57519481 72.2419938,8.10849571 69.1961224,7.91198788 C68.6065989,7.91198788 68.164463,7.64179367 67.8697012,7.10139714 C67.5749395,6.56100061 67.4275608,5.99604907 67.4275608,5.40652558 C67.4275608,4.81700209 67.5749395,4.27661367 67.8697012,3.78534409 C68.164463,3.29407452 68.6065989,3.04844341 69.1961224,3.04844341 C72.3402477,3.04844341 75.9264618,3.19582207 79.9548723,3.49058382 C83.9832828,3.78534556 87.7660018,3.93272423 91.3031427,3.93272423 C93.366475,3.93272423 95.3069607,3.88359801 97.1246581,3.78534409 C98.9423555,3.68709018 100.710899,3.58883773 102.430343,3.49058382 C104.149786,3.3923299 105.893767,3.29407746 107.662338,3.19582355 C109.430908,3.09756963 111.346831,3.04844341 113.410163,3.04844341 C113.999687,3.04844341 114.417259,3.29407452 114.662894,3.78534409 C114.908529,4.27661367 115.006781,4.81700209 114.957654,5.40652558 C114.908528,5.99604907 114.736586,6.56100061 114.441824,7.10139714 C114.147062,7.64179367 113.754053,7.91198788 113.262783,7.91198788 C110.216912,8.10849571 107.760601,8.52606859 105.893776,9.16471904 C104.026952,9.80336948 102.602291,10.7858939 101.619752,12.1123217 C100.637213,13.4387496 99.9985722,15.1827304 99.7038105,17.3443166 C99.4090487,19.5059027 99.2616701,22.256971 99.2616701,25.5976041 L99.2616701,83.3706172 C99.2616701,86.6129964 99.4581749,89.1429968 99.8511906,90.9606942 C100.244206,92.7783916 100.956536,94.203052 101.988203,95.2347181 C103.019869,96.2663843 104.469092,97.0032776 106.335917,97.4454202 C108.202741,97.8875628 110.609926,98.2560095 113.557543,98.5507712 C114.147067,98.6490251 114.613766,98.9437824 114.957654,99.435052 C115.301543,99.9263216 115.473485,100.46671 115.473485,101.056233 C115.473485,101.645757 115.301543,102.186145 114.957654,102.677415 C114.613766,103.168685 114.09794,103.414316 113.410163,103.414316 C109.480006,103.414316 105.721851,103.217811 102.135583,102.824795 C98.5493148,102.431779 94.9876638,102.235275 91.4505229,102.235275 C87.7168741,102.235275 83.8604658,102.431779 79.8811822,102.824795 C75.9018987,103.217811 72.2911215,103.414316 69.0487423,103.414316 C68.4592188,103.414316 68.0170828,103.168685 67.7223211,102.677415 C67.4275593,102.186145 67.2801807,101.645757 67.2801807,101.056233 C67.2801807,100.46671 67.4275593,99.9263216 67.7223211,99.435052 C68.0170828,98.9437824 68.4592188,98.6490251 69.0487423,98.5507712 C72.0946137,98.2560095 74.5263616,97.8875628 76.344059,97.4454202 C78.1617564,97.0032776 79.5864168,96.2663843 80.6180829,95.2347181 C81.649749,94.203052 82.3375161,92.7783916 82.6814048,90.9606942 C83.0252935,89.1429968 83.1972353,86.6129964 83.1972353,83.3706172 L83.1972353,58.9055148 C83.1972353,56.350913 82.1164584,55.0736312 79.9548723,55.0736312 L35.8882118,55.0736312 C33.7266257,55.0736312 32.6458488,56.0561556 32.6458488,58.0212339 L32.6458488,83.3706172 C32.6458488,86.6129964 32.8423537,89.1429968 33.2353694,90.9606942 C33.628385,92.7783916 34.3407152,94.203052 35.3723813,95.2347181 C36.4040474,96.2663843 37.853271,97.0032776 39.7200953,97.4454202 C41.5869197,97.8875628 43.9941045,98.2560095 46.941722,98.5507712 C47.5312455,98.6490251 47.9979446,98.9437824 48.3418333,99.435052 C48.685722,99.9263216 48.8576637,100.46671 48.8576637,101.056233 C48.8576637,101.645757 48.685722,102.186145 48.3418333,102.677415 C47.9979446,103.168685 47.4821192,103.414316 46.7943418,103.414316 C42.8641852,103.414316 39.1060294,103.217811 35.5197615,102.824795 C31.9334936,102.431779 28.3718426,102.235275 24.8347017,102.235275 C21.1010529,102.235275 17.2446446,102.431779 13.265361,102.824795 C9.28607746,103.217811 5.67530025,103.414316 2.43292106,103.414316 C1.84339757,103.414316 1.40126159,103.168685 1.10649984,102.677415 C0.811738097,102.186145 0.664359436,101.645757 0.664359436,101.056233 C0.664359436,100.46671 0.811738097,99.9263216 1.10649984,99.435052 C1.40126159,98.9437824 1.84339757,98.6490251 2.43292106,98.5507712 C5.47879242,98.2560095 7.91054034,97.8875628 9.72823777,97.4454202 C11.5459352,97.0032776 12.9705956,96.2663843 14.0022617,95.2347181 C15.0339278,94.203052 15.7216949,92.7783916 16.0655836,90.9606942 C16.4094723,89.1429968 16.5814141,86.6129964 16.5814141,83.3706172 L16.5814141,25.5976041 C16.5814141,22.5517328 16.4094723,19.9480431 16.0655836,17.786457 C15.7216949,15.6248708 15.0584909,13.8563269 14.0759518,12.4807721 C13.0934126,11.1052173 11.6933153,10.0490035 9.8756179,9.31209917 C8.05792048,8.57519481 5.62617256,8.10849571 2.5803012,7.91198788 C1.99077771,7.91198788 1.54864172,7.64179367 1.25387998,7.10139714 C0.959118233,6.56100061 0.811739571,5.99604907 0.811739571,5.40652558 C0.811739571,4.81700209 0.959118233,4.27661367 1.25387998,3.78534409 C1.54864172,3.29407452 1.99077771,3.04844341 2.5803012,3.04844341 C5.72442647,3.04844341 9.31064057,3.19582207 13.3390511,3.49058382 C17.3674616,3.78534556 21.1501806,3.93272423 24.6873215,3.93272423 C26.7506537,3.93272423 28.6911394,3.88359801 30.5088369,3.78534409 C32.3265343,3.68709018 34.0950782,3.58883773 35.8145217,3.49058382 C37.5339653,3.3923299 39.2779461,3.29407746 41.0465166,3.19582355 C42.815087,3.09756963 44.7310096,3.04844341 46.7943418,3.04844341 C47.3838653,3.04844341 47.8014382,3.29407452 48.047073,3.78534409 C48.2927078,4.27661367 48.3909602,4.81700209 48.3418333,5.40652558 C48.2927063,5.99604907 48.1207645,6.56100061 47.8260028,7.10139714 C47.531241,7.64179367 47.1382313,7.91198788 46.6469617,7.91198788 C43.6010903,8.10849571 41.1447793,8.52606859 39.2779549,9.16471904 C37.4111305,9.80336948 35.9864701,10.7858939 35.003931,12.1123217 C34.0213919,13.4387496 33.382751,15.1827304 33.0879892,17.3443166 C32.7932275,19.5059027 32.6458488,22.256971 32.6458488,25.5976041 L32.6458488,45.6413026 C32.6458488,47.6063809 33.7266257,48.5889053 35.8882118,48.5889053 L79.8074922,48.5889053 Z M159.871751,72.0223468 C159.871751,70.9415537 159.822625,70.2783498 159.724371,70.032715 C159.626117,69.7870802 159.380486,69.6642646 158.98747,69.6642646 C150.930649,70.352042 144.961813,72.0468967 141.080784,74.7488793 C137.199754,77.450862 135.259268,80.9142605 135.259268,85.1391789 C135.259268,88.0867963 135.996162,90.5676705 137.46997,92.5818757 C138.943779,94.596081 141.40009,95.6031685 144.838977,95.6031685 C147.098817,95.6031685 149.481439,95.1610325 151.986914,94.2767473 C154.492388,93.392462 156.727631,92.1151803 158.69271,90.4448637 C159.478741,89.6588324 159.871751,88.8728129 159.871751,88.0867816 L159.871751,72.0223468 Z M173.725484,86.6129802 C173.725484,90.0518672 174.044804,92.4590521 174.683454,93.8346069 C175.322105,95.2101617 176.574824,95.8979288 178.441648,95.8979288 C179.522441,95.8979288 180.406713,95.7751132 181.09449,95.5294784 C181.782268,95.2838436 182.764792,94.7680183 184.042093,93.981987 C184.336855,93.7854792 184.656175,93.7854792 185.000064,93.981987 C185.343953,94.1784948 185.63871,94.448689 185.884345,94.7925777 C186.12998,95.1364664 186.301921,95.5294762 186.400175,95.9716188 C186.498429,96.4137614 186.400177,96.7822081 186.105415,97.0769698 C182.273512,101.694904 177.7539,104.003836 172.546442,104.003836 C169.697079,104.003836 167.265331,103.24238 165.251126,101.719444 C163.236921,100.196508 161.738571,98.4034014 160.756032,96.3400692 C160.559524,95.8487996 160.264766,95.7996734 159.871751,96.192689 C157.317149,98.4525291 154.345013,100.319325 150.955253,101.793134 C147.565493,103.266943 143.316074,104.003836 138.206871,104.003836 C132.606398,104.003836 128.28329,102.505486 125.237419,99.5087421 C122.191548,96.5119977 120.668635,92.2625796 120.668635,86.7603604 C120.668635,79.6860785 123.960092,74.2576311 130.543104,70.4748554 C137.126116,66.6920797 146.705729,64.8007202 159.28223,64.8007202 C159.478738,64.8007202 159.626117,64.5550891 159.724371,64.0638195 C159.822625,63.5725499 159.871751,62.4426468 159.871751,60.6740764 L159.871751,56.6948127 C159.871751,54.2384649 159.675246,51.9295325 159.28223,49.7679464 C158.889215,47.6063602 158.226011,45.7150007 157.292598,44.0938111 C156.359186,42.4726215 155.057341,41.1953398 153.387025,40.2619276 C151.716708,39.3285154 149.653407,38.8618163 147.197059,38.8618163 C143.561664,38.8618163 140.614091,39.5741465 138.354251,40.9988283 C136.094411,42.4235101 134.964508,44.2657433 134.964508,46.5255834 C134.964508,47.6063764 135.308391,48.6625902 135.996169,49.6942563 C136.683946,50.7259224 137.02783,51.7821361 137.02783,52.8629292 C137.02783,54.238484 136.340063,55.564892 134.964508,56.8421929 C133.588953,58.1194938 131.918662,58.7581346 129.953583,58.7581346 C127.300728,58.7581346 125.409368,58.0458044 124.279448,56.6211227 C123.149528,55.1964409 122.584577,53.4524601 122.584577,51.3891278 C122.584577,48.93278 123.272344,46.5992845 124.647898,44.3885714 C126.023453,42.1778583 127.89025,40.2864988 130.248344,38.7144362 C132.606438,37.1423736 135.357506,35.8896549 138.501631,34.9562427 C141.645756,34.0228305 144.937213,33.5561315 148.3761,33.5561315 C156.236413,33.5561315 162.426317,35.3738016 166.945997,39.0091965 C171.465677,42.6445913 173.725484,48.6871164 173.725484,57.1369531 L173.725484,86.6129802 Z M212.375924,84.6970385 C212.375924,87.1533863 212.42505,89.2166876 212.523304,90.8870042 C212.621558,92.5573207 212.891752,93.9328549 213.333895,95.0136479 C213.776038,96.094441 214.512931,96.9295868 215.544597,97.5191102 C216.576263,98.1086337 218.025487,98.5507697 219.892311,98.8455315 C220.481835,98.9437854 220.923971,99.2139796 221.218732,99.6561222 C221.513494,100.098265 221.660873,100.61409 221.660873,101.203614 C221.660873,101.694883 221.513494,102.161582 221.218732,102.603725 C220.923971,103.045868 220.481835,103.266936 219.892311,103.266936 C218.909772,103.266936 217.067539,103.094994 214.365556,102.751105 C211.663573,102.407216 208.838816,102.235275 205.891198,102.235275 C202.747073,102.235275 199.701247,102.407216 196.75363,102.751105 C193.806012,103.094994 191.054944,103.266936 188.500342,103.266936 C188.009073,103.266936 187.616063,103.045868 187.321301,102.603725 C187.026539,102.161582 186.879161,101.694883 186.879161,101.203614 C186.879161,100.61409 187.026539,100.098265 187.321301,99.6561222 C187.616063,99.2139796 188.058199,98.9437854 188.647722,98.8455315 C191.10407,98.5507697 192.99543,98.15776 194.321858,97.6664904 C195.648285,97.1752208 196.63081,96.4383275 197.26946,95.4557884 C197.908111,94.4732492 198.276557,93.1959675 198.374811,91.6239048 C198.473065,90.0518422 198.522191,88.0376671 198.522191,85.5813193 L198.522191,67.0114222 C198.522191,62.1969804 198.473065,58.1931934 198.374811,54.9999412 C198.276557,51.8066889 197.932674,49.2766886 197.34315,47.4098642 C196.753627,45.5430398 195.820229,44.241195 194.542928,43.5042906 C193.265627,42.7673862 191.447957,42.3989396 189.089863,42.3989396 C188.500339,42.3989396 188.03364,42.2024347 187.689751,41.809419 C187.345863,41.4164034 187.173921,40.9742674 187.173921,40.4829978 C187.173921,39.8934743 187.345863,39.4022121 187.689751,39.0091965 C188.03364,38.6161808 188.500339,38.4196759 189.089863,38.4196759 C190.956687,38.4196759 193.683192,38.1249186 197.26946,37.5353951 C200.855728,36.9458716 204.515632,36.1107259 208.24928,35.0299328 C209.624835,34.6369171 210.656486,34.9071114 211.344263,35.8405236 C212.032041,36.7739357 212.375924,37.8301495 212.375924,39.0091965 L212.375924,44.9044019 C212.375924,45.1009097 212.449613,45.2237253 212.596994,45.2728522 C212.744375,45.3219792 212.867191,45.2482899 212.965445,45.051782 C213.653222,43.970989 214.611183,42.7673966 215.839357,41.4409687 C217.067531,40.1145409 218.541318,38.8618222 220.260761,37.6827752 C221.980205,36.5037283 223.920691,35.5212039 226.082277,34.7351725 C228.243863,33.9491412 230.651048,33.5561315 233.303903,33.5561315 C240.672947,33.5561315 246.445278,35.5948696 250.621069,39.6724071 C254.796861,43.7499445 256.884725,50.3574212 256.884725,59.4950353 L256.884725,84.6970385 C256.884725,87.3498942 256.958414,89.5114479 257.105795,91.1817644 C257.253176,92.852081 257.59706,94.203052 258.137456,95.2347181 C258.677853,96.2663843 259.512998,97.0524038 260.642918,97.5928003 C261.772839,98.1331968 263.369441,98.5507697 265.432773,98.8455315 C266.022296,98.9437854 266.464432,99.2139796 266.759194,99.6561222 C267.053956,100.098265 267.201335,100.61409 267.201335,101.203614 C267.201335,101.694883 267.053956,102.161582 266.759194,102.603725 C266.464432,103.045868 266.022296,103.266936 265.432773,103.266936 C264.155472,103.266936 262.067608,103.094994 259.169117,102.751105 C256.270627,102.407216 253.347617,102.235275 250.399999,102.235275 C247.255874,102.235275 244.259174,102.407216 241.409811,102.751105 C238.560447,103.094994 236.202389,103.266936 234.335564,103.266936 C233.844295,103.266936 233.451285,103.045868 233.156523,102.603725 C232.861761,102.161582 232.714383,101.694883 232.714383,101.203614 C232.714383,100.61409 232.861761,100.098265 233.156523,99.6561222 C233.451285,99.2139796 233.893421,98.9437854 234.482944,98.8455315 C236.644531,98.5507697 238.290259,98.1086337 239.420179,97.5191102 C240.550099,96.9295868 241.385245,96.1190041 241.925641,95.087338 C242.466038,94.0556719 242.785358,92.7783902 242.883612,91.2554545 C242.981866,89.7325188 243.030992,87.8411593 243.030992,85.5813193 L243.030992,63.1795387 C243.030992,60.7231908 242.93274,58.2668798 242.736232,55.8105319 C242.539724,53.354184 241.999336,51.1435041 241.115051,49.1784258 C240.230765,47.2133475 238.953484,45.5921822 237.283167,44.3148813 C235.61285,43.0375804 233.303918,42.3989396 230.356301,42.3989396 C227.408683,42.3989396 224.829557,42.8656387 222.618844,43.7990509 C220.40813,44.7324631 218.541334,45.9851817 217.018398,47.5572443 C215.495463,49.129307 214.340997,50.9715402 213.554965,53.0839994 C212.768934,55.1964586 212.375924,57.4317016 212.375924,59.7897956 L212.375924,84.6970385 Z M311.894361,72.0223468 C311.894361,70.9415537 311.845234,70.2783498 311.746981,70.032715 C311.648727,69.7870802 311.403095,69.6642646 311.01008,69.6642646 C302.953259,70.352042 296.984423,72.0468967 293.103393,74.7488793 C289.222364,77.450862 287.281878,80.9142605 287.281878,85.1391789 C287.281878,88.0867963 288.018771,90.5676705 289.49258,92.5818757 C290.966389,94.596081 293.4227,95.6031685 296.861587,95.6031685 C299.121427,95.6031685 301.504049,95.1610325 304.009523,94.2767473 C306.514998,93.392462 308.750241,92.1151803 310.71532,90.4448637 C311.501351,89.6588324 311.894361,88.8728129 311.894361,88.0867816 L311.894361,72.0223468 Z M325.748093,86.6129802 C325.748093,90.0518672 326.067414,92.4590521 326.706064,93.8346069 C327.344715,95.2101617 328.597433,95.8979288 330.464258,95.8979288 C331.545051,95.8979288 332.429323,95.7751132 333.1171,95.5294784 C333.804878,95.2838436 334.787402,94.7680183 336.064703,93.981987 C336.359465,93.7854792 336.678785,93.7854792 337.022674,93.981987 C337.366562,94.1784948 337.66132,94.448689 337.906955,94.7925777 C338.152589,95.1364664 338.324531,95.5294762 338.422785,95.9716188 C338.521039,96.4137614 338.422786,96.7822081 338.128025,97.0769698 C334.296122,101.694904 329.77651,104.003836 324.569052,104.003836 C321.719689,104.003836 319.287941,103.24238 317.273736,101.719444 C315.25953,100.196508 313.761181,98.4034014 312.778641,96.3400692 C312.582134,95.8487996 312.287376,95.7996734 311.894361,96.192689 C309.339759,98.4525291 306.367623,100.319325 302.977862,101.793134 C299.588102,103.266943 295.338684,104.003836 290.229481,104.003836 C284.629008,104.003836 280.3059,102.505486 277.260029,99.5087421 C274.214157,96.5119977 272.691245,92.2625796 272.691245,86.7603604 C272.691245,79.6860785 275.982701,74.2576311 282.565714,70.4748554 C289.148726,66.6920797 298.728339,64.8007202 311.30484,64.8007202 C311.501348,64.8007202 311.648727,64.5550891 311.746981,64.0638195 C311.845234,63.5725499 311.894361,62.4426468 311.894361,60.6740764 L311.894361,56.6948127 C311.894361,54.2384649 311.697856,51.9295325 311.30484,49.7679464 C310.911824,47.6063602 310.24862,45.7150007 309.315208,44.0938111 C308.381796,42.4726215 307.079951,41.1953398 305.409635,40.2619276 C303.739318,39.3285154 301.676017,38.8618163 299.219669,38.8618163 C295.584274,38.8618163 292.636701,39.5741465 290.376861,40.9988283 C288.117021,42.4235101 286.987118,44.2657433 286.987118,46.5255834 C286.987118,47.6063764 287.331001,48.6625902 288.018779,49.6942563 C288.706556,50.7259224 289.05044,51.7821361 289.05044,52.8629292 C289.05044,54.238484 288.362673,55.564892 286.987118,56.8421929 C285.611563,58.1194938 283.941271,58.7581346 281.976193,58.7581346 C279.323337,58.7581346 277.431978,58.0458044 276.302058,56.6211227 C275.172138,55.1964409 274.607186,53.4524601 274.607186,51.3891278 C274.607186,48.93278 275.294953,46.5992845 276.670508,44.3885714 C278.046063,42.1778583 279.912859,40.2864988 282.270953,38.7144362 C284.629047,37.1423736 287.380116,35.8896549 290.524241,34.9562427 C293.668366,34.0228305 296.959823,33.5561315 300.39871,33.5561315 C308.259023,33.5561315 314.448927,35.3738016 318.968607,39.0091965 C323.488287,42.6445913 325.748093,48.6871164 325.748093,57.1369531 L325.748093,86.6129802 Z M416.128961,103.266936 C414.556899,103.168682 412.960297,103.070429 411.339107,102.972175 C409.717917,102.873921 408.023063,102.824795 406.254492,102.824795 C404.289414,102.824795 402.348928,102.898484 400.432977,103.045865 C398.517026,103.193246 396.723919,103.266936 395.053602,103.266936 C394.365825,103.266936 393.874563,103.021304 393.579801,102.530035 C393.285039,102.038765 393.088534,101.596629 392.99028,101.203614 C392.204249,97.0769492 390.902404,93.2205409 389.084707,89.634273 C387.267009,86.0480051 385.179145,82.8793639 382.821051,80.1282543 C380.462957,77.3771446 377.932957,75.2155909 375.230974,73.6435283 C372.528991,72.0714657 369.851612,71.2854461 367.198757,71.2854461 L367.198757,82.7810967 C367.198757,85.6304602 367.247883,87.9885188 367.346137,89.8553432 C367.444391,91.7221676 367.763711,93.2450804 368.304108,94.4241274 C368.844504,95.6031744 369.704213,96.5365726 370.88326,97.22435 C372.062307,97.9121274 373.781725,98.4525158 376.041565,98.8455315 C376.631088,98.9437854 377.073224,99.2385427 377.367986,99.7298123 C377.662748,100.221082 377.810126,100.712344 377.810126,101.203614 C377.810126,101.694883 377.662748,102.161582 377.367986,102.603725 C377.073224,103.045868 376.631088,103.266936 376.041565,103.266936 C373.290455,103.266936 370.785018,103.094994 368.525178,102.751105 C366.265338,102.407216 363.661648,102.235275 360.714031,102.235275 C357.569905,102.235275 354.474953,102.407216 351.429082,102.751105 C348.383211,103.094994 345.288259,103.266936 342.144133,103.266936 C341.652864,103.266936 341.259854,103.045868 340.965092,102.603725 C340.670331,102.161582 340.522952,101.694883 340.522952,101.203614 C340.522952,100.61409 340.670331,100.098265 340.965092,99.6561222 C341.259854,99.2139796 341.70199,98.9437854 342.291514,98.8455315 C345.042623,98.5507697 347.179614,98.1086337 348.70255,97.5191102 C350.225485,96.9295868 351.330825,96.1190041 352.018603,95.087338 C352.70638,94.0556719 353.09939,92.7783902 353.197644,91.2554545 C353.295898,89.7325188 353.345024,87.8411593 353.345024,85.5813193 L353.345024,27.660926 C353.345024,23.4360077 353.246771,20.0708616 353.050264,17.5653868 C352.853756,15.0599119 352.313367,13.1194262 351.429082,11.7438714 C350.544797,10.3683166 349.218389,9.43491841 347.449818,8.94364883 C345.681248,8.45237926 343.224937,8.05936949 340.080812,7.76460775 C339.589542,7.76460775 339.221095,7.51897665 338.975461,7.02770707 C338.729826,6.5364375 338.582447,6.04517529 338.53332,5.55390572 C338.484193,5.06263614 338.582446,4.57137394 338.82808,4.08010436 C339.073715,3.58883479 339.491288,3.34320368 340.080812,3.34320368 C343.617953,3.14669585 347.523487,2.85193853 351.797532,2.45892287 C356.071578,2.06590721 360.026238,1.3290139 363.661633,0.248220839 C365.037188,-0.14479482 365.946023,-0.0711054893 366.388166,0.469291043 C366.830308,1.00968757 367.100503,1.57463911 367.198757,2.1641626 L367.198757,64.9481003 C369.065581,63.7690533 370.834125,62.4426454 372.504441,60.9688367 C374.174758,59.4950279 375.697671,57.9721151 377.073226,56.4000525 C378.44878,54.8279898 379.726062,53.305077 380.905109,51.8312683 C382.084156,50.3574595 383.115807,49.0801778 384.000092,47.9993847 C385.96517,45.4447829 386.824879,43.6025497 386.579244,42.4726297 C386.33361,41.3427096 384.638755,40.6795057 381.49463,40.4829978 C381.00336,40.4829978 380.61035,40.2373667 380.315589,39.7460971 C380.020827,39.2548276 379.873448,38.7635654 379.873448,38.2722958 C379.873448,37.6827723 380.020827,37.166947 380.315589,36.7248044 C380.61035,36.2826618 381.00336,36.0615938 381.49463,36.0615938 C383.066692,36.0615938 384.417663,36.11072 385.547583,36.2089739 C386.677503,36.3072278 387.709154,36.4300434 388.642566,36.5774242 C389.575978,36.7248051 390.484813,36.8476207 391.369099,36.9458746 C392.253384,37.0441285 393.285035,37.0932547 394.464082,37.0932547 C396.723922,37.0932547 399.032854,36.9213129 401.390948,36.5774242 C403.749042,36.2335355 406.057974,36.0615938 408.317814,36.0615938 C408.71083,36.0615938 409.054714,36.2826618 409.349475,36.7248044 C409.644237,37.166947 409.791616,37.6827723 409.791616,38.2722958 C409.791616,38.7635654 409.6688,39.2302645 409.423165,39.6724071 C409.177531,40.1145497 408.809084,40.3847439 408.317814,40.4829978 C406.352736,40.6795057 404.731571,40.974263 403.45427,41.3672786 C402.176969,41.7602943 400.99794,42.3006827 399.917147,42.9884601 C398.836354,43.6762375 397.804703,44.4868202 396.822164,45.4202324 C395.839625,46.3536446 394.660595,47.4589845 393.28504,48.7362854 C392.400755,49.5223167 391.221726,50.6030936 389.747917,51.9786484 C388.274109,53.3542032 386.677506,54.8034267 384.958063,56.3263624 C383.238619,57.8492981 381.568328,59.2985216 379.947138,60.6740764 C378.325949,62.0496312 376.925851,63.1795343 375.746804,64.0638195 C375.353789,64.3585812 375.20641,64.6533386 375.304664,64.9481003 C375.402918,65.2428621 375.599423,65.3902407 375.894185,65.3902407 C379.824341,65.5867485 383.091235,66.2499525 385.694964,67.3798725 C388.298692,68.5097926 390.484809,69.934453 392.25338,71.6538965 C394.02195,73.37334 395.5203,75.3138257 396.748474,77.4754118 C397.976648,79.636998 399.204803,81.872241 400.432977,84.181208 C401.661151,86.490175 403.036685,88.7499811 404.559621,90.9606942 C406.082557,93.1714073 408.023042,95.2101455 410.381136,97.0769698 C411.068914,97.5682394 411.928622,97.9612492 412.960289,98.2560109 C413.991955,98.5507727 415.048168,98.7472776 416.128961,98.8455315 C416.718485,98.8455315 417.160621,99.0911626 417.455383,99.5824321 C417.750144,100.073702 417.897523,100.61409 417.897523,101.203614 C417.897523,101.694883 417.750144,102.161582 417.455383,102.603725 C417.160621,103.045868 416.718485,103.266936 416.128961,103.266936 L416.128961,103.266936 Z M481.760891,66.8640421 C481.760891,72.8575309 480.925746,78.1631627 479.255429,82.7810967 C477.585113,87.3990307 475.202491,91.2800021 472.107493,94.4241274 C469.012494,97.5682527 465.303465,99.9508744 460.980292,101.572064 C456.65712,103.193254 451.84275,104.003836 446.537039,104.003836 C441.919105,104.003836 437.645124,103.24238 433.714967,101.719444 C429.784811,100.196508 426.395101,97.9367023 423.545738,94.9399579 C420.696374,91.9432135 418.436568,88.1604945 416.766252,83.5916874 C415.095935,79.0228804 414.260789,73.6435593 414.260789,67.4535626 C414.260789,62.442613 415.095935,57.8493113 416.766252,53.6735199 C418.436568,49.4977286 420.770064,45.9360776 423.766808,42.9884601 C426.763553,40.0408427 430.37433,37.7319103 434.599248,36.0615938 C438.824166,34.3912772 443.442031,33.5561315 448.452981,33.5561315 C453.267423,33.5561315 457.713346,34.2930248 461.790883,35.7668335 C465.868421,37.2406422 469.380945,39.3776328 472.328563,42.1778694 C475.27618,44.978106 477.585113,48.4415045 479.255429,52.5681689 C480.925746,56.6948334 481.760891,61.4600767 481.760891,66.8640421 L481.760891,66.8640421 Z M466.285977,68.4852236 C466.285977,64.7515748 466.040346,61.1162345 465.549077,57.5790935 C465.057807,54.0419526 464.173535,50.8978745 462.896234,48.1467649 C461.618933,45.3956552 459.850389,43.1849753 457.590549,41.5146588 C455.330709,39.8443422 452.432262,39.0091965 448.895121,39.0091965 C444.964965,39.0091965 441.77176,39.8443422 439.315412,41.5146588 C436.859065,43.1849753 434.918579,45.4202184 433.493897,48.2204549 C432.069215,51.0206915 431.086691,54.1893327 430.546294,57.7264737 C430.005898,61.2636146 429.735704,64.9480811 429.735704,68.7799838 C429.735704,72.1206169 429.981335,75.5594524 430.472604,79.0965933 C430.963874,82.6337343 431.897272,85.8269386 433.272827,88.6763021 C434.648382,91.5256657 436.539741,93.8837242 438.946962,95.7505486 C441.354183,97.617373 444.424572,98.5507712 448.158221,98.5507712 C451.990123,98.5507712 455.085075,97.6664992 457.443169,95.8979288 C459.801263,94.1293583 461.643496,91.8204259 462.969924,88.9710624 C464.296352,86.1216989 465.180624,82.9039314 465.622767,79.3176635 C466.064909,75.7313956 466.285977,72.1206184 466.285977,68.4852236 L466.285977,68.4852236 Z M94.4626044,150.695705 C98.1962532,151.776498 101.88072,153.201159 105.516115,154.969729 C106.596908,155.460999 107.603995,155.927698 108.537407,156.369841 C109.47082,156.811983 110.281402,157.033051 110.96918,157.033051 C112.541242,157.033051 113.572893,156.099653 114.064162,154.232829 C114.162416,153.839813 114.481737,153.545056 115.022133,153.348548 C115.56253,153.15204 116.102918,153.078351 116.643315,153.127478 C117.183711,153.176605 117.65041,153.29942 118.043426,153.495928 C118.436442,153.692436 118.58382,153.987193 118.485566,154.380209 C118.092551,155.952271 117.822357,157.573437 117.674976,159.243753 C117.527595,160.91407 117.453906,162.633488 117.453906,164.402058 C117.453906,167.153168 117.65041,169.904236 118.043426,172.655346 C118.436442,175.406455 118.829451,178.255776 119.222467,181.203393 C119.222467,181.596409 119.001399,181.91573 118.559257,182.161364 C118.117114,182.406999 117.576726,182.554378 116.938075,182.603505 C116.299425,182.652632 115.685347,182.578942 115.095823,182.382434 C114.5063,182.185927 114.162416,181.842043 114.064162,181.350774 C111.607815,172.507921 107.628591,165.998697 102.126371,161.822906 C96.6241522,157.647114 89.6973551,155.55925 81.3457723,155.55925 C74.861014,155.55925 69.5062559,156.934784 65.2813376,159.685894 C61.0564192,162.437003 57.6912731,165.998654 55.1857983,170.370953 C52.6803235,174.743253 50.9363426,179.557622 49.9538035,184.814207 C48.9712643,190.070791 48.4800021,195.204481 48.4800021,200.215431 C48.4800021,205.71765 49.0695168,211.219787 50.2485638,216.722006 C51.4276107,222.224225 53.3435333,227.185974 55.996389,231.6074 C58.6492447,236.028826 62.1126433,239.639603 66.3866886,242.43984 C70.6607339,245.240076 75.8435502,246.640174 81.9352929,246.640174 C86.6514808,246.640174 90.8763358,246.222601 94.6099845,245.387442 C98.3436333,244.552284 101.487711,243.004808 104.042313,240.744968 C107.186438,237.895605 109.691876,234.481332 111.5587,230.502049 C113.425524,226.522765 114.751932,222.027716 115.537964,217.016766 C115.636218,216.328989 115.955538,215.886853 116.495935,215.690345 C117.036331,215.493837 117.601283,215.469274 118.190806,215.616655 C118.78033,215.764036 119.320718,216.03423 119.811988,216.427246 C120.303257,216.820261 120.499762,217.213271 120.401508,217.606287 C120.106746,219.571365 119.910242,221.511851 119.811988,223.427802 C119.713734,225.343754 119.505665,226.731934 118.930225,229.92334 C118.41851,232.761332 118.108695,239.511834 116.495937,243.104248 C115.537967,245.387444 110.969181,247.681885 107.362598,249.232666 C105.120817,250.196601 96.7307623,252.830139 80.9036319,252.830139 C63.5141135,252.830139 50.6170561,248.482469 42.2163464,239.786997 C33.8156367,231.091526 29.6153448,218.638029 29.6153448,202.426133 C29.6153448,193.779788 30.9417528,186.140661 33.5946085,179.508522 C36.2474642,172.876383 39.9073676,167.300557 44.5744285,162.780876 C49.2414895,158.261196 54.7927524,154.846924 61.2283839,152.537957 C67.6640153,150.22899 74.6645017,149.074524 82.2300532,149.074524 C86.6514793,149.074524 90.7289556,149.614912 94.4626044,150.695705 Z M138.155631,176.192469 C138.155631,171.96755 138.057378,168.602404 137.86087,166.09693 C137.664362,163.591455 137.1731,161.650969 136.387069,160.275414 C135.601038,158.899859 134.397445,157.966461 132.776256,157.475192 C131.155066,156.983922 128.919823,156.590912 126.070459,156.296151 C125.57919,156.296151 125.210743,156.050519 124.965108,155.55925 C124.719474,155.06798 124.572095,154.576718 124.522968,154.085448 C124.473841,153.594179 124.572093,153.102917 124.817728,152.611647 C125.063363,152.120378 125.480936,151.874746 126.070459,151.874746 C129.018077,151.678239 132.579728,151.383481 136.755519,150.990466 C140.931311,150.59745 144.836845,149.860557 148.47224,148.779764 C149.847795,148.386748 150.75663,148.460437 151.198773,149.000834 C151.640915,149.54123 151.911109,150.106182 152.009363,150.695705 L152.009363,233.228581 C152.009363,235.684929 152.058489,237.74823 152.156743,239.418547 C152.254997,241.088863 152.623444,242.464398 153.262094,243.545191 C153.900745,244.625984 154.932395,245.46113 156.357077,246.050653 C157.781759,246.640177 159.771371,247.082312 162.325973,247.377074 C162.915496,247.475328 163.357632,247.745522 163.652394,248.187665 C163.947156,248.629808 164.094534,249.145633 164.094534,249.735156 C164.094534,250.226426 163.947156,250.693125 163.652394,251.135268 C163.357632,251.57741 162.915496,251.798478 162.325973,251.798478 C159.967879,251.798478 157.315063,251.626537 154.367445,251.282648 C151.419828,250.938759 148.472255,250.766817 145.524637,250.766817 C142.380512,250.766817 139.28556,250.938759 136.239689,251.282648 C133.193817,251.626537 130.098866,251.798478 126.95474,251.798478 C126.463471,251.798478 126.070461,251.57741 125.775699,251.135268 C125.480937,250.693125 125.333559,250.226426 125.333559,249.735156 C125.333559,249.145633 125.480937,248.629808 125.775699,248.187665 C126.070461,247.745522 126.512597,247.475328 127.10212,247.377074 C129.85323,247.082312 131.990221,246.640177 133.513156,246.050653 C135.036092,245.46113 136.141432,244.650547 136.829209,243.618881 C137.516987,242.587215 137.909996,241.309933 138.00825,239.786997 C138.106504,238.264062 138.155631,236.372702 138.155631,234.112862 L138.155631,176.192469 Z M235.379307,225.417434 C235.379307,229.445845 235.452996,232.712738 235.600377,235.218213 C235.747758,237.723688 236.189894,239.688737 236.926798,241.113418 C237.663703,242.5381 238.769043,243.520625 240.242851,244.061021 C241.71666,244.601418 243.779961,244.871612 246.432817,244.871612 C246.825833,244.871612 247.145153,245.09268 247.390788,245.534823 C247.636423,245.976965 247.759238,246.49279 247.759238,247.082314 C247.759238,247.573584 247.660986,248.064846 247.464478,248.556115 C247.26797,249.047385 246.924087,249.293016 246.432817,249.293016 C245.646786,249.293016 244.983582,249.317579 244.443185,249.366706 C243.902789,249.415833 243.3624,249.464959 242.822004,249.514086 C242.281607,249.563213 241.692092,249.636902 241.053442,249.735156 C240.414792,249.83341 239.604209,249.931663 238.62167,250.029917 C237.835638,250.128171 236.730298,250.324675 235.305617,250.619437 C233.880935,250.914199 232.431711,251.208956 230.957903,251.503718 C229.484094,251.79848 228.10856,252.044111 226.831259,252.240619 C225.553958,252.437127 224.718812,252.535379 224.325797,252.535379 C222.557226,252.535379 221.672954,249.784311 221.672954,244.282091 C221.672954,244.085584 221.574702,243.962768 221.378194,243.913641 C221.181686,243.864514 220.985181,243.938203 220.788673,244.134711 C217.153279,247.278837 213.493375,249.464953 209.808853,250.693127 C206.124331,251.921301 202.56268,252.535379 199.123793,252.535379 C194.604113,252.535379 190.870521,251.970427 187.922903,250.840507 C184.975286,249.710587 182.666353,248.064859 180.996037,245.903273 C179.32572,243.741687 178.146691,241.064308 177.458914,237.871056 C176.771136,234.677803 176.427253,231.067026 176.427253,227.038616 L176.427253,210.38466 C176.427253,206.159742 176.329,202.868285 176.132492,200.510191 C175.935984,198.152097 175.493848,196.383553 174.806071,195.204506 C174.118294,194.025459 173.086643,193.23944 171.711088,192.846424 C170.335533,192.453408 168.468737,192.109525 166.110643,191.814763 C165.619374,191.814763 165.250927,191.569132 165.005292,191.077862 C164.759657,190.586593 164.612279,190.095331 164.563152,189.604061 C164.514025,189.112792 164.612277,188.621529 164.857912,188.13026 C165.103547,187.63899 165.52112,187.393359 166.110643,187.393359 C167.093182,187.295105 168.395027,187.147727 170.016217,186.951219 C171.637406,186.754711 173.381387,186.459954 175.248212,186.066938 C177.115036,185.673922 179.055522,185.256349 181.069727,184.814207 C183.083932,184.372064 184.975292,183.905365 186.743862,183.414095 C188.119417,183.02108 189.052815,183.242148 189.544085,184.077306 C190.035354,184.912464 190.280985,185.624795 190.280985,186.214318 L190.280985,221.29079 C190.280985,225.220947 190.452927,228.56153 190.796816,231.312639 C191.140704,234.063749 191.754782,236.323555 192.639067,238.092126 C193.523353,239.860696 194.751508,241.137978 196.323571,241.924009 C197.895634,242.710041 199.860682,243.10305 202.218776,243.10305 C205.559409,243.10305 209.047371,242.513536 212.682766,241.334489 C216.318161,240.155442 219.069229,238.730781 220.936053,237.060465 C221.230815,236.765703 221.402757,236.225315 221.451884,235.439283 C221.501011,234.653252 221.525574,234.063737 221.525574,233.670722 L221.525574,210.38466 C221.525574,206.159742 221.476448,202.868285 221.378194,200.510191 C221.27994,198.152097 220.936056,196.383553 220.346533,195.204506 C219.757009,194.025459 218.848174,193.23944 217.62,192.846424 C216.391827,192.453408 214.598719,192.109525 212.240626,191.814763 C211.749356,191.716509 211.380909,191.446315 211.135274,191.004172 C210.88964,190.56203 210.742261,190.070768 210.693134,189.530371 C210.644007,188.989975 210.74226,188.498712 210.987894,188.05657 C211.233529,187.614427 211.651102,187.393359 212.240626,187.393359 C215.777766,187.196851 219.020097,186.754715 221.967714,186.066938 C224.915332,185.37916 228.206789,184.494889 231.842184,183.414095 C233.217738,183.02108 234.151137,183.242148 234.642406,184.077306 C235.133676,184.912464 235.379307,185.624795 235.379307,186.214318 L235.379307,225.417434 Z M261.418378,176.192469 C261.418378,171.96755 261.320125,168.602404 261.123617,166.09693 C260.927109,163.591455 260.435847,161.650969 259.649816,160.275414 C258.863785,158.899859 257.660192,157.966461 256.039003,157.475192 C254.417813,156.983922 252.18257,156.590912 249.333206,156.296151 C248.841937,156.296151 248.47349,156.050519 248.227855,155.55925 C247.982221,155.06798 247.834842,154.576718 247.785715,154.085448 C247.736588,153.594179 247.834841,153.102917 248.080475,152.611647 C248.32611,152.120378 248.743683,151.874746 249.333206,151.874746 C252.280824,151.678239 255.842475,151.383481 260.018266,150.990466 C264.194058,150.59745 268.099592,149.860557 271.734987,148.779764 C273.110542,148.386748 274.019377,148.460437 274.46152,149.000834 C274.903662,149.54123 275.173856,150.106182 275.27211,150.695705 L275.27211,233.228581 C275.27211,235.684929 275.321237,237.74823 275.41949,239.418547 C275.517744,241.088863 275.886191,242.464398 276.524841,243.545191 C277.163492,244.625984 278.195143,245.46113 279.619824,246.050653 C281.044506,246.640177 283.034118,247.082312 285.58872,247.377074 C286.178243,247.475328 286.620379,247.745522 286.915141,248.187665 C287.209903,248.629808 287.357281,249.145633 287.357281,249.735156 C287.357281,250.226426 287.209903,250.693125 286.915141,251.135268 C286.620379,251.57741 286.178243,251.798478 285.58872,251.798478 C283.230626,251.798478 280.57781,251.626537 277.630192,251.282648 C274.682575,250.938759 271.735002,250.766817 268.787384,250.766817 C265.643259,250.766817 262.548307,250.938759 259.502436,251.282648 C256.456564,251.626537 253.361613,251.798478 250.217487,251.798478 C249.726218,251.798478 249.333208,251.57741 249.038446,251.135268 C248.743684,250.693125 248.596306,250.226426 248.596306,249.735156 C248.596306,249.145633 248.743684,248.629808 249.038446,248.187665 C249.333208,247.745522 249.775344,247.475328 250.364867,247.377074 C253.115977,247.082312 255.252968,246.640177 256.775903,246.050653 C258.298839,245.46113 259.404179,244.650547 260.091956,243.618881 C260.779734,242.587215 261.172744,241.309933 261.270997,239.786997 C261.369251,238.264062 261.418378,236.372702 261.418378,234.112862 L261.418378,176.192469 Z M354.642054,215.395585 C354.642054,221.389074 353.806908,226.694705 352.136592,231.312639 C350.466275,235.930573 348.083653,239.811545 344.988655,242.95567 C341.893657,246.099795 338.184627,248.482417 333.861455,250.103607 C329.538282,251.724796 324.723913,252.535379 319.418201,252.535379 C314.800267,252.535379 310.526286,251.773923 306.59613,250.250987 C302.665973,248.728051 299.276264,246.468245 296.4269,243.471501 C293.577537,240.474756 291.317731,236.692037 289.647414,232.12323 C287.977098,227.554423 287.141952,222.175102 287.141952,215.985105 C287.141952,210.974156 287.977098,206.380854 289.647414,202.205063 C291.317731,198.029271 293.651226,194.46762 296.647971,191.520003 C299.644715,188.572385 303.255492,186.263453 307.48041,184.593137 C311.705329,182.92282 316.323194,182.087674 321.334143,182.087674 C326.148585,182.087674 330.594508,182.824568 334.672045,184.298376 C338.749583,185.772185 342.262108,187.909176 345.209725,190.709412 C348.157343,193.509649 350.466275,196.973047 352.136592,201.099712 C353.806908,205.226376 354.642054,209.99162 354.642054,215.395585 L354.642054,215.395585 Z M339.16714,217.016766 C339.16714,213.283118 338.921509,209.647777 338.430239,206.110636 C337.938969,202.573495 337.054697,199.429417 335.777396,196.678308 C334.500096,193.927198 332.731552,191.716518 330.471712,190.046202 C328.211872,188.375885 325.313425,187.540739 321.776284,187.540739 C317.846127,187.540739 314.652923,188.375885 312.196575,190.046202 C309.740227,191.716518 307.799741,193.951761 306.375059,196.751998 C304.950378,199.552234 303.967853,202.720876 303.427457,206.258016 C302.88706,209.795157 302.616866,213.479624 302.616866,217.311527 C302.616866,220.65216 302.862497,224.090995 303.353767,227.628136 C303.845036,231.165277 304.778434,234.358481 306.153989,237.207845 C307.529544,240.057208 309.420904,242.415267 311.828124,244.282091 C314.235345,246.148916 317.305734,247.082314 321.039383,247.082314 C324.871286,247.082314 327.966238,246.198042 330.324331,244.429472 C332.682425,242.660901 334.524659,240.351969 335.851087,237.502605 C337.177514,234.653242 338.061786,231.435474 338.503929,227.849206 C338.946072,224.262938 339.16714,220.652161 339.16714,217.016766 L339.16714,217.016766 Z M419.831843,207.510748 C422.877715,214.830664 425.972667,222.175034 429.116792,229.544078 C429.3133,230.231855 429.63262,230.526613 430.074763,230.428359 C430.516905,230.330105 430.836226,230.035347 431.032734,229.544078 C432.70305,224.238366 434.152274,219.12924 435.380448,214.216544 C436.608622,209.303848 437.763088,204.3421 438.843881,199.33115 C439.236897,197.759087 439.433401,196.334427 439.433401,195.057126 C439.433401,192.797286 438.843887,191.348063 437.66484,190.709412 C436.485793,190.070762 434.618996,189.554936 432.064395,189.161921 C431.376617,189.063667 430.885355,188.768909 430.590593,188.27764 C430.295832,187.78637 430.148453,187.295108 430.148453,186.803839 C430.148453,186.214315 430.320395,185.69849 430.664283,185.256347 C431.008172,184.814205 431.474871,184.593137 432.064395,184.593137 C434.422489,184.593137 436.584042,184.789641 438.549121,185.182657 C440.514199,185.575673 442.479248,185.772178 444.444326,185.772178 C446.409404,185.772178 448.497269,185.575673 450.707982,185.182657 C452.918695,184.789641 454.711802,184.593137 456.087357,184.593137 C456.67688,184.593137 457.094453,184.814205 457.340088,185.256347 C457.585723,185.69849 457.708538,186.214315 457.708538,186.803839 C457.708538,187.393362 457.585723,187.93375 457.340088,188.42502 C457.094453,188.91629 456.775133,189.161921 456.382117,189.161921 C454.417039,189.358429 452.77131,189.825128 451.444882,190.562032 C450.118455,191.298936 448.988552,192.306024 448.055139,193.583325 C447.121727,194.860626 446.335708,196.334412 445.697057,198.004729 C445.058407,199.675045 444.444329,201.492716 443.854805,203.457794 C438.94211,220.259213 433.685604,236.913002 428.085131,253.41966 C427.888623,254.009183 427.274545,254.328504 426.242879,254.377631 C425.211213,254.426758 424.597135,254.156563 424.400628,253.56704 C421.551264,245.804981 418.652817,238.092164 415.7052,230.428359 C412.757582,222.764553 409.466125,214.855232 405.830731,206.700157 C405.634223,206.208887 405.339465,205.963256 404.94645,205.963256 C404.553434,205.963256 404.258677,206.208887 404.062169,206.700157 C402.293598,211.318091 400.623307,215.641198 399.051244,219.669609 C397.479182,223.698019 395.980832,227.578991 394.55615,231.312639 C393.131468,235.046288 391.731371,238.730755 390.355816,242.36615 C388.980261,246.001544 387.604727,249.735137 386.229173,253.56704 C386.032665,254.156563 385.394024,254.475884 384.313231,254.525011 C383.232438,254.574138 382.593797,254.254817 382.397289,253.56704 C379.351418,244.920695 376.379281,236.34817 373.480791,227.849206 C370.5823,219.350243 367.806669,210.87597 365.153813,202.426133 C364.367782,199.969785 363.606325,197.95561 362.869421,196.383547 C362.132517,194.811485 361.321934,193.534203 360.437649,192.551664 C359.553364,191.569125 358.521713,190.832231 357.342666,190.340962 C356.163619,189.849692 354.788085,189.456682 353.216022,189.161921 C352.724753,189.063667 352.380869,188.768909 352.184361,188.27764 C351.987853,187.78637 351.889601,187.295108 351.889601,186.803839 C351.889601,186.214315 351.987853,185.69849 352.184361,185.256347 C352.380869,184.814205 352.724753,184.593137 353.216022,184.593137 C355.67237,184.593137 358.20237,184.789641 360.806099,185.182657 C363.409828,185.575673 366.136333,185.772178 368.985697,185.772178 C371.83506,185.772178 374.610692,185.575673 377.312674,185.182657 C380.014657,184.789641 382.741162,184.593137 385.492272,184.593137 C385.983541,184.593137 386.376551,184.814205 386.671313,185.256347 C386.966075,185.69849 387.138016,186.189752 387.187143,186.730148 C387.23627,187.270545 387.113455,187.78637 386.818693,188.27764 C386.523931,188.768909 386.081795,189.063667 385.492272,189.161921 C382.642908,189.554936 380.628733,190.193577 379.449686,191.077862 C378.270639,191.962148 377.681125,193.190303 377.681125,194.762366 C377.681125,195.548397 377.779377,196.408106 377.975885,197.341518 C378.172393,198.27493 378.418024,199.282018 378.712786,200.362811 C380.08834,205.373761 381.537564,210.286383 383.0605,215.100825 C384.583435,219.915266 386.180037,224.729636 387.850354,229.544078 C388.046862,230.133601 388.390745,230.428359 388.882015,230.428359 C389.471538,230.428359 389.864548,230.182728 390.061056,229.691458 C395.759783,214.167339 401.458425,199.478599 407.157152,185.624797 C407.451913,184.93702 407.992302,184.593137 408.778333,184.593137 C409.662618,184.593137 410.252133,184.887894 410.546895,185.477417 C413.69102,192.846461 416.785972,200.190831 419.831843,207.510748 Z" id="Hanako-Copy-19" fill="#D2BDB3"></path>
    </g>
</svg>