<?xml version="1.0" encoding="UTF-8" standalone="no"?>
<svg width="492px" height="250px" viewBox="0 0 492 250" version="1.1" xmlns="http://www.w3.org/2000/svg" xmlns:xlink="http://www.w3.org/1999/xlink">
    <!-- Generator: Sketch 39.1 (31720) - http://www.bohemiancoding.com/sketch -->
    <title>Hanako Clulow</title>
    <desc>Created with Sketch.</desc>
    <defs></defs>
    <g id="Page-1" stroke="none" stroke-width="1" fill="none" fill-rule="evenodd">
        <path d="M30.8669016,96.6195416 C30.8669016,98.8516874 30.9731927,100.818072 31.185778,102.518755 C31.3983633,104.219437 31.9032458,105.601221 32.7004408,106.664147 C33.4976357,107.727074 34.6668374,108.524257 36.2080809,109.05572 C37.7493244,109.587183 39.8485729,109.852911 42.5058893,109.852911 C44.1002791,109.852911 45.136617,110.03892 45.614934,110.410945 C46.0932509,110.782969 46.3324058,111.234706 46.3324058,111.766169 C46.3324058,112.19134 46.199542,112.616504 45.9338103,113.041675 C45.6680787,113.466845 44.8974685,113.679428 43.6219566,113.679428 C42.1338594,113.679428 39.7954561,113.626282 36.6066764,113.519989 C33.4178967,113.413697 28.7942355,113.360551 22.7355541,113.360551 C16.7831653,113.360551 12.3720862,113.413697 9.5021845,113.519989 C6.63228278,113.626282 4.45331601,113.679428 2.96521882,113.679428 C1.68970694,113.679428 0.892523978,113.466845 0.573646009,113.041675 C0.25476804,112.616504 0.095331447,112.19134 0.095331447,111.766169 C0.095331447,111.234706 0.334486337,110.782969 0.81280329,110.410945 C1.29112024,110.03892 2.3274581,109.852911 3.92184794,109.852911 C7.32321295,109.852911 9.95391673,109.162019 11.8140382,107.780215 C13.6741597,106.39841 14.6042065,103.741134 14.6042065,99.8083053 L14.6042065,16.1032569 C14.6042065,12.064136 13.6741597,9.38028667 11.8140382,8.05162846 C9.95391673,6.72297026 7.32321295,6.05865112 3.92184794,6.05865112 C2.3274581,6.05865112 1.29112024,5.87264176 0.81280329,5.50061747 C0.334486337,5.12859317 0.095331447,4.67685615 0.095331447,4.14539287 C0.095331447,3.61392959 0.25476804,3.16219258 0.573646009,2.79016828 C0.892523978,2.41814398 1.68970694,2.23213462 2.96521882,2.23213462 C4.45331601,2.23213462 6.63228278,2.25870739 9.5021845,2.31185372 C12.3720862,2.36500005 16.7831653,2.39157281 22.7355541,2.39157281 C28.7942355,2.39157281 33.4178967,2.36500005 36.6066764,2.31185372 C39.7954561,2.25870739 42.1338594,2.23213462 43.6219566,2.23213462 C44.8974685,2.23213462 45.6680787,2.41814398 45.9338103,2.79016828 C46.199542,3.16219258 46.3324058,3.61392959 46.3324058,4.14539287 C46.3324058,4.67685615 46.0932509,5.12859317 45.614934,5.50061747 C45.136617,5.87264176 44.1002791,6.05865112 42.5058893,6.05865112 C39.8485729,6.05865112 37.7493244,6.32437878 36.2080809,6.85584206 C34.6668374,7.38730534 33.4976357,8.18448831 32.7004408,9.24741487 C31.9032458,10.3103414 31.3983633,11.6655525 31.185778,13.3130886 C30.9731927,14.9606248 30.8669016,16.9004367 30.8669016,19.1325825 L30.8669016,55.1656128 L91.9317274,55.1656128 L91.9317274,19.1325825 C91.9317274,16.9004367 91.8254363,14.9606248 91.612851,13.3130886 C91.4002657,11.6655525 90.8953832,10.3103414 90.0981882,9.24741487 C89.3009933,8.18448831 88.1052189,7.38730534 86.510829,6.85584206 C84.9164392,6.32437878 82.7906179,6.05865112 80.1333015,6.05865112 C78.5389117,6.05865112 77.5025738,5.87264176 77.0242569,5.50061747 C76.5459399,5.12859317 76.306785,4.67685615 76.306785,4.14539287 C76.306785,3.61392959 76.4396489,3.16219258 76.7053805,2.79016828 C76.9711121,2.41814398 77.7417223,2.23213462 79.0172342,2.23213462 C80.5053314,2.23213462 82.8437348,2.25870739 86.0325145,2.31185372 C89.2212942,2.36500005 93.8449553,2.39157281 99.9036368,2.39157281 C105.856026,2.39157281 110.267105,2.36500005 113.137006,2.31185372 C116.006908,2.25870739 118.185875,2.23213462 119.673972,2.23213462 C120.949484,2.23213462 121.746667,2.41814398 122.065545,2.79016828 C122.384423,3.16219258 122.543859,3.61392959 122.543859,4.14539287 C122.543859,4.67685615 122.304704,5.12859317 121.826388,5.50061747 C121.348071,5.87264176 120.311733,6.05865112 118.717343,6.05865112 C115.315978,6.05865112 112.685274,6.72297026 110.825153,8.05162846 C108.965031,9.38028667 108.034984,12.064136 108.034984,16.1032569 L108.034984,99.8083053 C108.034984,103.741134 108.965031,106.39841 110.825153,107.780215 C112.685274,109.162019 115.315978,109.852911 118.717343,109.852911 C120.311733,109.852911 121.348071,110.03892 121.826388,110.410945 C122.304704,110.782969 122.543859,111.234706 122.543859,111.766169 C122.543859,112.19134 122.384423,112.616504 122.065545,113.041675 C121.746667,113.466845 120.949484,113.679428 119.673972,113.679428 C118.185875,113.679428 116.006908,113.626282 113.137006,113.519989 C110.267105,113.413697 105.856026,113.360551 99.9036368,113.360551 C93.8449553,113.360551 89.2478669,113.413697 86.1122336,113.519989 C82.9766002,113.626282 80.6647696,113.679428 79.1766724,113.679428 C77.9011605,113.679428 77.1305503,113.466845 76.8648187,113.041675 C76.599087,112.616504 76.4662232,112.19134 76.4662232,111.766169 C76.4662232,111.234706 76.7053781,110.782969 77.1836951,110.410945 C77.662012,110.03892 78.6983499,109.852911 80.2927397,109.852911 C82.9500561,109.852911 85.0493046,109.587183 86.5905481,109.05572 C88.1317916,108.524257 89.3009933,107.727074 90.0981882,106.664147 C90.8953832,105.601221 91.4002657,104.219437 91.612851,102.518755 C91.8254363,100.818072 91.9317274,98.8516874 91.9317274,96.6195416 L91.9317274,59.9487585 L30.8669016,59.9487585 L30.8669016,96.6195416 Z M179.614151,96.6195416 C179.614151,98.1076388 179.667296,99.5957136 179.773589,101.083811 C179.879882,102.571908 180.065891,103.900546 180.331623,105.069766 C180.597354,106.238985 181.022519,107.195604 181.607128,107.939653 C182.191738,108.683701 182.962348,109.05572 183.918982,109.05572 C184.981908,109.05572 185.85881,108.524265 186.549712,107.461338 C187.240614,106.398412 187.851788,105.388647 188.383251,104.432013 C188.595836,104.006842 188.834991,103.581678 189.100723,103.156507 C189.366455,102.731337 189.711901,102.518755 190.137071,102.518755 C190.987412,102.518755 191.412577,102.997064 191.412577,103.953698 C191.412577,104.485161 191.226567,105.362063 190.854543,106.584428 C190.482519,107.806794 189.8182,109.029141 188.861566,110.251507 C187.904932,111.473872 186.602866,112.536783 184.95533,113.44027 C183.307794,114.343758 181.208545,114.795495 178.657522,114.795495 C174.724693,114.795495 171.961126,113.706012 170.366736,111.527012 C168.772346,109.348013 167.762581,106.770454 167.33741,103.79426 C166.487069,104.644601 165.317868,105.680939 163.82977,106.903305 C162.341673,108.12567 160.587871,109.321445 158.56831,110.490664 C156.54875,111.659883 154.290065,112.669648 151.792187,113.519989 C149.29431,114.370331 146.557315,114.795495 143.581121,114.795495 C142.411901,114.795495 140.976972,114.636058 139.276289,114.31718 C137.575607,113.998302 135.954668,113.360556 134.413425,112.403922 C132.872181,111.447288 131.543543,110.092077 130.42747,108.338248 C129.311397,106.58442 128.753369,104.219443 128.753369,101.243249 C128.753369,96.4600795 130.427453,92.4741646 133.775672,89.2853849 C137.123891,86.0966053 141.667834,83.2267466 147.407637,80.6757228 L167.018534,71.9066225 L167.018534,57.3977475 C167.018534,55.378187 166.699661,53.7041028 166.061905,52.3754446 C165.424149,51.0467864 164.600393,50.0370213 163.590613,49.346119 C162.580833,48.6552167 161.491349,48.176907 160.32213,47.9111753 C159.152911,47.6454437 158.09,47.5125798 157.133366,47.5125798 C155.857855,47.5125798 154.396352,47.6188709 152.748816,47.8314562 C151.10128,48.0440415 149.427196,48.5754968 147.726513,49.4258381 C145.60066,50.4887647 144.05944,51.6048208 143.102806,52.77404 C142.146172,53.9432593 141.667862,55.6439162 141.667862,57.876062 C141.667862,60.9585491 141.16298,63.5361073 140.153199,65.6088141 C139.143419,67.6815209 137.203607,68.7178588 134.333706,68.7178588 C130.826048,68.7178588 129.072245,66.9109107 129.072245,63.2969604 C129.072245,61.2773999 130.214874,58.885851 132.500166,56.122242 C134.785459,53.3586329 138.63851,50.5950653 144.059435,47.8314562 C147.567093,46.0244811 150.755825,44.7755611 153.625726,44.0846588 C156.495628,43.3937566 159.68436,43.0483106 163.192018,43.0483106 C168.08148,43.0483106 172.040822,44.3238033 175.070163,46.8748271 C178.099503,49.4258509 179.614151,53.146038 179.614151,58.0355002 L179.614151,96.6195416 Z M150.755839,83.7050484 C144.165694,86.6812428 140.870671,91.0391763 140.870671,96.7789798 C140.870671,97.948199 141.003535,99.1705462 141.269267,100.446058 C141.534998,101.72157 142.039881,102.864199 142.78393,103.873979 C143.527978,104.883759 144.537743,105.707515 145.813255,106.345271 C147.088767,106.983027 148.736278,107.3019 150.755839,107.3019 C152.775399,107.3019 154.635493,106.983027 156.336176,106.345271 C158.036858,105.707515 159.578078,104.910332 160.959883,103.953698 C162.341687,102.997064 163.537462,102.040445 164.547242,101.083811 C165.557022,100.127177 166.380778,99.3299939 167.018534,98.692238 L167.018534,76.2114536 L150.755839,83.7050484 Z M216.692109,99.8083053 C216.692109,103.528548 217.143846,106.212398 218.047334,107.859934 C218.950821,109.50747 220.784342,110.331226 223.547951,110.331226 C224.823463,110.331226 225.673792,110.490662 226.098962,110.80954 C226.524133,111.128418 226.736715,111.553582 226.736715,112.085046 C226.736715,112.616509 226.524133,113.015101 226.098962,113.280832 C225.673792,113.546564 224.823463,113.679428 223.547951,113.679428 C222.910195,113.679428 222.033294,113.652855 220.917221,113.599709 C219.801148,113.546562 218.605374,113.519989 217.329862,113.519989 C216.05435,113.519989 214.752284,113.493417 213.423626,113.44027 C212.094968,113.387124 210.899194,113.360551 209.836267,113.360551 C207.710414,113.360551 205.451729,113.413697 203.060144,113.519989 C200.668559,113.626282 198.675602,113.679428 197.081212,113.679428 C195.061652,113.679428 194.051887,113.147972 194.051887,112.085046 C194.051887,110.915827 195.114797,110.331226 197.24065,110.331226 C199.791674,110.331226 201.598622,109.427752 202.661549,107.620776 C203.724475,105.813801 204.255931,102.837652 204.255931,98.692238 L204.255931,61.3837022 C204.255931,58.9389711 203.697902,57.1851685 202.58183,56.122242 C201.465757,55.0593154 200.0574,54.1558414 198.356718,53.4117928 C197.081206,52.7740368 196.204304,52.2691543 195.725987,51.89713 C195.247671,51.5251057 195.008516,51.1265142 195.008516,50.7013436 C195.008516,49.957295 195.43368,49.3726942 196.284021,48.9475235 L212.068402,43.5266252 C213.343914,43.2077472 214.247388,43.0483106 214.778851,43.0483106 C216.054363,43.0483106 216.692109,43.792348 216.692109,45.2804452 L216.692109,55.325051 C217.54245,54.3684171 218.711652,53.1992154 220.199749,51.8174109 C221.687846,50.4356064 223.441649,49.0803953 225.461209,47.7517371 C227.48077,46.4230789 229.739455,45.3070228 232.237332,44.4035352 C234.73521,43.5000476 237.472205,43.0483106 240.448399,43.0483106 C247.144836,43.0483106 252.565681,45.4398595 256.711094,50.223029 C260.856508,55.0061986 262.929183,61.8619721 262.929183,70.7905552 L262.929183,99.3299908 C262.929183,103.156526 263.407493,105.946667 264.364127,107.700496 C265.320761,109.454324 267.021418,110.331226 269.466149,110.331226 C270.954246,110.331226 271.910866,110.490662 272.336037,110.80954 C272.761207,111.128418 272.973789,111.606728 272.973789,112.244484 C272.973789,112.669655 272.814353,113.041673 272.495475,113.360551 C272.176597,113.679429 271.432559,113.838866 270.26334,113.838866 C269.306706,113.838866 267.765486,113.759148 265.639633,113.599709 C263.51378,113.44027 260.909649,113.360551 257.827161,113.360551 C254.744674,113.360551 252.034252,113.44027 249.695814,113.599709 C247.357375,113.759148 245.337845,113.838866 243.637163,113.838866 C242.255358,113.838866 241.378457,113.679429 241.006433,113.360551 C240.634408,113.041673 240.448399,112.669655 240.448399,112.244484 C240.448399,110.968972 241.351873,110.331226 243.158848,110.331226 C245.922457,110.331226 247.835696,109.560615 248.898623,108.019372 C249.96155,106.478128 250.493005,104.006861 250.493005,100.605496 L250.493005,73.6604426 C250.493005,66.2199566 249.137794,60.4802393 246.427331,56.4411183 C243.716868,52.4019974 239.59809,50.3824672 234.070872,50.3824672 C231.945018,50.3824672 229.952061,50.8076315 228.09194,51.6579727 C226.231818,52.508314 224.531161,53.4915063 222.989918,54.6075792 C221.448674,55.7236521 220.146609,56.866281 219.083682,58.0355002 C218.020755,59.2047194 217.223572,60.161339 216.692109,60.9053876 L216.692109,99.8083053 Z M329.454767,96.6195416 C329.454767,98.1076388 329.507913,99.5957136 329.614205,101.083811 C329.720498,102.571908 329.906507,103.900546 330.172239,105.069766 C330.437971,106.238985 330.863135,107.195604 331.447745,107.939653 C332.032354,108.683701 332.802964,109.05572 333.759598,109.05572 C334.822525,109.05572 335.699426,108.524265 336.390328,107.461338 C337.081231,106.398412 337.692404,105.388647 338.223868,104.432013 C338.436453,104.006842 338.675608,103.581678 338.941339,103.156507 C339.207071,102.731337 339.552517,102.518755 339.977688,102.518755 C340.828029,102.518755 341.253193,102.997064 341.253193,103.953698 C341.253193,104.485161 341.067184,105.362063 340.695159,106.584428 C340.323135,107.806794 339.658816,109.029141 338.702182,110.251507 C337.745548,111.473872 336.443483,112.536783 334.795947,113.44027 C333.14841,114.343758 331.049162,114.795495 328.498138,114.795495 C324.56531,114.795495 321.801742,113.706012 320.207352,111.527012 C318.612963,109.348013 317.603197,106.770454 317.178027,103.79426 C316.327686,104.644601 315.158484,105.680939 313.670387,106.903305 C312.182289,108.12567 310.428487,109.321445 308.408926,110.490664 C306.389366,111.659883 304.130681,112.669648 301.632804,113.519989 C299.134926,114.370331 296.397931,114.795495 293.421737,114.795495 C292.252518,114.795495 290.817588,114.636058 289.116906,114.31718 C287.416223,113.998302 285.795285,113.360556 284.254041,112.403922 C282.712798,111.447288 281.384159,110.092077 280.268086,108.338248 C279.152014,106.58442 278.593985,104.219443 278.593985,101.243249 C278.593985,96.4600795 280.26807,92.4741646 283.616288,89.2853849 C286.964507,86.0966053 291.50845,83.2267466 297.248253,80.6757228 L316.85915,71.9066225 L316.85915,57.3977475 C316.85915,55.378187 316.540277,53.7041028 315.902521,52.3754446 C315.264765,51.0467864 314.44101,50.0370213 313.431229,49.346119 C312.421449,48.6552167 311.331966,48.176907 310.162747,47.9111753 C308.993527,47.6454437 307.930617,47.5125798 306.973983,47.5125798 C305.698471,47.5125798 304.236969,47.6188709 302.589433,47.8314562 C300.941896,48.0440415 299.267812,48.5754968 297.56713,49.4258381 C295.441277,50.4887647 293.900056,51.6048208 292.943422,52.77404 C291.986788,53.9432593 291.508479,55.6439162 291.508479,57.876062 C291.508479,60.9585491 291.003596,63.5361073 289.993816,65.6088141 C288.984036,67.6815209 287.044224,68.7178588 284.174322,68.7178588 C280.666664,68.7178588 278.912862,66.9109107 278.912862,63.2969604 C278.912862,61.2773999 280.055491,58.885851 282.340783,56.122242 C284.626075,53.3586329 288.479126,50.5950653 293.900051,47.8314562 C297.407709,46.0244811 300.596441,44.7755611 303.466343,44.0846588 C306.336244,43.3937566 309.524976,43.0483106 313.032634,43.0483106 C317.922096,43.0483106 321.881438,44.3238033 324.910779,46.8748271 C327.94012,49.4258509 329.454767,53.146038 329.454767,58.0355002 L329.454767,96.6195416 Z M300.596455,83.7050484 C294.006311,86.6812428 290.711288,91.0391763 290.711288,96.7789798 C290.711288,97.948199 290.844152,99.1705462 291.109883,100.446058 C291.375615,101.72157 291.880497,102.864199 292.624546,103.873979 C293.368595,104.883759 294.37836,105.707515 295.653871,106.345271 C296.929383,106.983027 298.576895,107.3019 300.596455,107.3019 C302.616016,107.3019 304.476109,106.983027 306.176792,106.345271 C307.877474,105.707515 309.418695,104.910332 310.800499,103.953698 C312.182304,102.997064 313.378078,102.040445 314.387859,101.083811 C315.397639,100.127177 316.221394,99.3299939 316.85915,98.692238 L316.85915,76.2114536 L300.596455,83.7050484 Z M365.368219,99.8083053 C365.368219,103.528548 365.793383,106.212398 366.643724,107.859934 C367.494066,109.50747 369.247868,110.331226 371.905185,110.331226 C373.393282,110.331226 374.349901,110.490662 374.775072,110.80954 C375.200243,111.128418 375.412825,111.553582 375.412825,112.085046 C375.412825,112.403924 375.226815,112.74937 374.854791,113.121394 C374.482767,113.493418 373.765302,113.679428 372.702376,113.679428 C371.958327,113.679428 371.001707,113.652855 369.832488,113.599709 C368.663269,113.546562 367.414349,113.519989 366.085691,113.519989 C364.757033,113.519989 363.428394,113.493417 362.099736,113.44027 C360.771078,113.387124 359.575303,113.360551 358.512377,113.360551 C356.386524,113.360551 354.154411,113.413697 351.815973,113.519989 C349.477535,113.626282 347.564295,113.679428 346.076198,113.679428 C343.844053,113.679428 342.727996,113.094827 342.727996,111.925608 C342.727996,110.862681 343.790907,110.331226 345.91676,110.331226 C348.361491,110.331226 350.115294,109.427752 351.17822,107.620776 C352.241147,105.813801 352.772602,102.837652 352.772602,98.692238 L352.772602,18.3353916 C352.772602,15.8906605 352.241147,14.2165762 351.17822,13.3130886 C350.115294,12.4096011 348.786655,11.6921364 347.192266,11.1606731 C345.810461,10.6292098 344.880414,10.1774728 344.402097,9.80544853 C343.92378,9.43342423 343.684625,8.98168721 343.684625,8.45022393 C343.684625,7.70617534 344.10979,7.1215745 344.960131,6.69640387 L360.744512,0.478314562 C362.020023,0.159436593 362.923497,0 363.454961,0 C364.730473,0 365.368219,0.744037434 365.368219,2.23213462 L365.368219,76.6897681 L381.790352,62.6592077 C382.640694,61.9151591 383.544168,61.1179761 384.500801,60.2676348 C385.457435,59.4172936 386.360909,58.5403923 387.211251,57.6369047 C388.061592,56.7334172 388.779057,55.8299431 389.363666,54.9264556 C389.948276,54.022968 390.240576,53.2523578 390.240576,52.6146018 C390.240576,49.5321148 387.902173,47.9377489 383.225296,47.8314562 C382.162369,47.8314562 381.444905,47.6454469 381.07288,47.2734226 C380.700856,46.9013983 380.514847,46.5559523 380.514847,46.2370743 C380.514847,45.8119037 380.674283,45.4133122 380.993161,45.0412879 C381.312039,44.6692636 381.89664,44.4832543 382.746981,44.4832543 L413.67799,44.4832543 C415.166087,44.4832543 415.910124,44.9615641 415.910124,45.918198 C415.910124,46.7685392 415.617824,47.3265673 415.033214,47.5922989 C414.448605,47.8580306 413.890577,47.9908944 413.359113,47.9908944 C411.658431,48.0971871 409.82491,48.5754968 407.858496,49.4258381 C405.892082,50.2761793 403.845979,51.3922355 401.720126,52.77404 C399.594273,54.1558446 397.388733,55.7236377 395.103441,57.4774666 C392.818149,59.2312954 390.559464,61.0648162 388.327318,62.978084 L380.993161,69.3556115 L408.894844,102.678193 C410.595527,104.697753 412.64163,106.451556 415.033214,107.939653 C417.424799,109.42775 419.842921,110.171787 422.287652,110.171787 C423.137993,110.171787 423.722594,110.357797 424.041472,110.729821 C424.36035,111.101845 424.519787,111.500437 424.519787,111.925608 C424.519787,112.882241 423.88204,113.360551 422.606528,113.360551 L386.892374,113.360551 C386.148326,113.360551 385.643443,113.201115 385.377712,112.882237 C385.11198,112.563359 384.979116,112.244486 384.979116,111.925608 C384.979116,111.394144 385.165125,110.96898 385.53715,110.650102 C385.909174,110.331224 386.679784,110.171787 387.849003,110.171787 C389.974857,110.171787 391.675514,109.932633 392.951025,109.454316 C394.226537,108.975999 394.864284,108.152243 394.864284,106.983024 C394.864284,105.813805 394.412547,104.671176 393.509059,103.555103 C392.605571,102.43903 391.781816,101.349546 391.037767,100.28662 L371.42687,77.4869591 L365.368219,82.5889811 L365.368219,99.8083053 Z M456.76616,114.795495 C451.876698,114.795495 447.279609,113.918594 442.974757,112.164765 C438.669904,110.410936 434.923144,107.966242 431.734365,104.830608 C428.545585,101.694975 426.021172,97.9216422 424.161051,93.5104969 C422.300929,89.0993517 421.370882,84.2365356 421.370882,78.9219028 C421.370882,73.6072699 422.300929,68.7444539 424.161051,64.3333086 C426.021172,59.9221634 428.545585,56.1488307 431.734365,53.0131973 C434.923144,49.8775639 438.669904,47.4328695 442.974757,45.6790407 C447.279609,43.9252119 451.876698,43.0483106 456.76616,43.0483106 C461.549329,43.0483106 466.093272,43.9252119 470.398125,45.6790407 C474.702978,47.4328695 478.449738,49.8775639 481.638517,53.0131973 C484.827297,56.1488307 487.35171,59.9221634 489.211831,64.3333086 C491.071953,68.7444539 492.001999,73.6072699 492.001999,78.9219028 C492.001999,84.2365356 491.071953,89.0993517 489.211831,93.5104969 C487.35171,97.9216422 484.827297,101.694975 481.638517,104.830608 C478.449738,107.966242 474.702978,110.410936 470.398125,112.164765 C466.093272,113.918594 461.549329,114.795495 456.76616,114.795495 L456.76616,114.795495 Z M456.76616,111.128417 C461.336744,111.128417 465.030359,109.985788 467.847114,107.700496 C470.663869,105.415203 472.789691,102.59849 474.224641,99.2502717 C475.659592,95.902053 476.616212,92.3944479 477.094529,88.7273513 C477.572846,85.0602546 477.812001,81.7918045 477.812001,78.9219028 C477.812001,76.052001 477.572846,72.7304054 477.094529,68.9570161 C476.616212,65.1836268 475.659592,61.6494489 474.224641,58.3543766 C472.789691,55.0593042 470.663869,52.2691639 467.847114,49.9838718 C465.030359,47.6985796 461.336744,46.5559507 456.76616,46.5559507 C452.089283,46.5559507 448.369096,47.6985796 445.605487,49.9838718 C442.841878,52.2691639 440.716057,55.0593042 439.227959,58.3543766 C437.739862,61.6494489 436.75667,65.1836268 436.278353,68.9570161 C435.800036,72.7304054 435.560881,76.052001 435.560881,78.9219028 C435.560881,81.7918045 435.800036,85.0602546 436.278353,88.7273513 C436.75667,92.3944479 437.739862,95.902053 439.227959,99.2502717 C440.716057,102.59849 442.841878,105.415203 445.605487,107.700496 C448.369096,109.985788 452.089283,111.128417 456.76616,111.128417 L456.76616,111.128417 Z M137.044695,227.827204 C135.285457,231.561554 132.420985,235.00192 129.69575,237.762623 C126.602834,240.895793 121.286898,244.169614 118.470142,245.285686 C115.653387,246.401759 112.41151,247.384952 108.744413,248.235293 C105.077316,249.085634 101.064829,249.510798 96.7068298,249.510798 C88.3097099,249.510798 80.4441714,248.288451 73.1099781,245.84372 C65.7757848,243.398989 59.3983211,239.785093 53.9773956,235.001923 C48.5564701,230.218754 44.2782549,224.239882 41.1426215,217.065127 C38.0069881,209.890373 36.439195,201.573097 36.439195,192.113051 C36.439195,183.822224 37.9272698,176.089549 40.9034642,168.914795 C43.8796586,161.74004 47.9984372,155.49544 53.2599237,150.180808 C58.5214102,144.866175 64.8191556,140.667678 72.1533489,137.585191 C79.4875422,134.502704 87.4593719,132.961483 96.0690771,132.961483 C102.234051,132.961483 107.708041,133.758666 112.49121,135.353056 C117.27438,136.947446 122.27006,139.073267 127.4784,141.730584 C128.966497,142.580925 130.002835,143.165526 130.587445,143.484404 C131.172054,143.803282 131.783228,143.962718 132.420984,143.962718 C132.952447,143.962718 133.643339,143.484409 134.49368,142.527775 L136.406938,139.657887 C136.938402,138.701253 137.629294,138.222944 138.479635,138.222944 C138.904806,138.222944 139.303397,138.38238 139.675421,138.701258 C140.047446,139.020136 140.233455,139.498446 140.233455,140.136202 L141.50896,173.618221 C141.50896,175.212611 140.871214,176.009794 139.595702,176.009794 C138.213898,176.009794 137.310424,175.318902 136.885253,173.937098 C136.566375,172.555293 136.114638,170.695199 135.530028,168.356761 C134.945419,166.018323 134.068518,163.49391 132.899298,160.783447 C131.730079,158.072984 130.188859,155.362562 128.275591,152.6521 C126.362323,149.941637 123.970774,147.47037 121.100872,145.238224 C118.230971,143.006078 114.723366,141.19913 110.577952,139.817325 C106.432539,138.435521 101.596295,137.744629 96.0690771,137.744629 C88.9474691,137.744629 82.835733,139.285849 77.7336855,142.368336 C72.631638,145.450824 68.433141,149.543029 65.1380687,154.645077 C61.8429963,159.747124 59.3983019,165.56656 57.8039121,172.103558 C56.2095222,178.640557 55.4123393,185.310321 55.4123393,192.113051 C55.4123393,198.49061 56.236095,204.814929 57.8836312,211.086195 C59.5311673,217.357462 62.0821528,222.990888 65.5366642,227.986643 C68.9911755,232.982398 73.3756818,237.048031 78.6903146,240.183664 C84.0049474,243.319298 90.3824112,244.887091 97.8228971,244.887091 C102.180896,244.887091 106.087093,244.382208 109.541604,243.372428 C112.996115,242.362648 116.051983,241.03401 118.7093,239.386474 C121.366616,237.738937 123.678447,235.905417 125.644861,233.885856 C127.611275,231.866296 129.232214,229.846765 130.507726,227.827205 C132.633579,224.42584 134.174799,221.183963 135.131433,218.101475 C136.088067,215.018988 136.725813,212.521148 137.044691,210.607881 C137.363569,209.119783 138.213898,208.375746 139.595702,208.375746 C140.127165,208.375746 140.605475,208.561755 141.030646,208.93378 C141.455817,209.305804 141.626391,210.08536 141.626391,210.616823 C141.626391,210.696208 141.540249,212.33966 141.324899,214.07362 C141.10955,215.80758 140.753891,217.096767 140.161979,219.661717 C139.645128,221.901405 138.116195,225.55272 137.044695,227.827204 Z M170.580691,233.088665 C170.580691,236.808908 171.005855,239.492757 171.856196,241.140294 C172.706538,242.78783 174.46034,243.611585 177.117656,243.611585 C178.605754,243.611585 179.562373,243.771022 179.987544,244.0899 C180.412714,244.408778 180.625297,244.833942 180.625297,245.365406 C180.625297,245.684284 180.439287,246.029729 180.067263,246.401754 C179.695239,246.773778 178.977774,246.959787 177.914847,246.959787 C177.170799,246.959787 176.214179,246.933215 175.04496,246.880068 C173.875741,246.826922 172.626821,246.800349 171.298163,246.800349 C169.969504,246.800349 168.640866,246.773776 167.312208,246.72063 C165.98355,246.667484 164.787775,246.640911 163.724849,246.640911 C161.598996,246.640911 159.366883,246.694057 157.028445,246.800349 C154.690006,246.906642 152.776767,246.959787 151.28867,246.959787 C149.056524,246.959787 147.940468,246.375187 147.940468,245.205967 C147.940468,244.143041 149.003379,243.611585 151.129232,243.611585 C153.573963,243.611585 155.327766,242.708111 156.390692,240.901136 C157.453619,239.094161 157.985074,236.118011 157.985074,231.972598 L157.985074,151.615751 C157.985074,149.17102 157.453619,147.496936 156.390692,146.593448 C155.327766,145.689961 153.999127,144.972496 152.404737,144.441033 C151.022933,143.90957 150.092886,143.457833 149.614569,143.085808 C149.136252,142.713784 148.897097,142.262047 148.897097,141.730584 C148.897097,140.986535 149.322262,140.401934 150.172603,139.976764 L165.956983,133.758674 C167.232495,133.439796 168.135969,133.28036 168.667433,133.28036 C169.942944,133.28036 170.580691,134.024397 170.580691,135.512494 L170.580691,233.088665 Z M203.894692,225.435632 C203.894692,227.774071 204.080702,229.926465 204.452726,231.892879 C204.82475,233.859293 205.489069,235.55995 206.445703,236.994901 C207.402337,238.429852 208.757548,239.57248 210.511377,240.422822 C212.265206,241.273163 214.523891,241.698327 217.2875,241.698327 C219.944816,241.698327 222.336365,241.193445 224.462219,240.183664 C226.588072,239.173884 228.448165,237.97811 230.042555,236.596305 C231.636945,235.214501 232.912438,233.912435 233.869072,232.69007 C234.825705,231.467704 235.463452,230.590803 235.78233,230.05934 L235.78233,189.083725 C235.78233,186.320116 235.277447,184.300586 234.267667,183.025074 C233.257887,181.749562 230.733474,181.111816 226.694353,181.111816 C225.631427,181.111816 224.940535,180.899234 224.621657,180.474063 C224.302779,180.048893 224.143342,179.570583 224.143342,179.03912 C224.143342,178.720242 224.329351,178.401368 224.701376,178.08249 C225.0734,177.763612 225.790865,177.604176 226.853791,177.604176 C228.341889,177.604176 230.308273,177.630749 232.753004,177.683895 C235.197735,177.737041 237.589284,177.763614 239.927723,177.763614 C241.840991,177.763614 243.169629,177.710469 243.913677,177.604176 C244.657726,177.497883 245.614346,177.444738 246.783565,177.444738 C247.846491,177.444738 248.377947,177.976193 248.377947,179.03912 C248.484239,180.102046 248.457667,181.722985 248.298228,183.901984 C248.138789,186.080984 248.05907,188.499105 248.05907,191.156422 L248.05907,233.088665 C248.05907,234.151592 248.112216,235.00192 248.218508,235.639676 C248.324801,236.277432 248.643674,236.782315 249.175138,237.154339 C249.706601,237.526363 250.450638,237.845236 251.407272,238.110968 C252.363906,238.3767 253.74569,238.615855 255.552665,238.82844 C257.572226,239.147318 258.581991,239.83821 258.581991,240.901136 C258.581991,241.326307 258.422554,241.64518 258.103676,241.857765 C257.784798,242.070351 257.465925,242.282933 257.147047,242.495518 L240.087161,247.59754 C239.23682,247.916418 238.386491,248.075855 237.53615,248.075855 C236.579516,248.075855 236.101206,247.384963 236.101206,246.003158 L236.101206,235.799114 C235.676036,236.330578 234.878853,237.287197 233.709633,238.669002 C232.540414,240.050806 230.919475,241.43259 228.846769,242.814395 C226.774062,244.196199 224.276222,245.418546 221.353174,246.481473 C218.430126,247.544399 215.002239,248.075855 211.069411,248.075855 C206.923997,248.075855 203.549256,247.491254 200.945086,246.322035 C198.340916,245.152815 196.321386,243.585022 194.886435,241.618608 C193.451484,239.652194 192.494864,237.393509 192.016547,234.842485 C191.53823,232.291461 191.299076,229.581039 191.299076,226.711138 L191.299076,189.243164 C191.299076,184.141116 188.482362,181.48384 182.848852,181.271254 C181.360754,181.271254 180.616717,180.580362 180.616717,179.198558 C180.616717,178.135631 181.467045,177.604176 183.167728,177.604176 C184.018069,177.604176 185.426426,177.630749 187.39284,177.683895 C189.359254,177.737041 191.671085,177.763614 194.328401,177.763614 C196.454254,177.763614 198.04862,177.737041 199.111547,177.683895 C200.174473,177.630749 201.290529,177.604176 202.459749,177.604176 C203.628968,177.604176 204.213569,178.135631 204.213569,179.198558 C204.213569,180.261484 204.160423,181.85585 204.054131,183.981703 C203.947838,186.107557 203.894692,188.392814 203.894692,190.837545 L203.894692,225.435632 Z M283.702085,233.088665 C283.702085,236.808908 284.127249,239.492757 284.97759,241.140294 C285.827932,242.78783 287.581734,243.611585 290.239051,243.611585 C291.727148,243.611585 292.683767,243.771022 293.108938,244.0899 C293.534109,244.408778 293.746691,244.833942 293.746691,245.365406 C293.746691,245.684284 293.560681,246.029729 293.188657,246.401754 C292.816633,246.773778 292.099168,246.959787 291.036241,246.959787 C290.292193,246.959787 289.335573,246.933215 288.166354,246.880068 C286.997135,246.826922 285.748215,246.800349 284.419557,246.800349 C283.090898,246.800349 281.76226,246.773776 280.433602,246.72063 C279.104944,246.667484 277.909169,246.640911 276.846243,246.640911 C274.72039,246.640911 272.488277,246.694057 270.149839,246.800349 C267.8114,246.906642 265.898161,246.959787 264.410064,246.959787 C262.177918,246.959787 261.061862,246.375187 261.061862,245.205967 C261.061862,244.143041 262.124773,243.611585 264.250626,243.611585 C266.695357,243.611585 268.44916,242.708111 269.512086,240.901136 C270.575013,239.094161 271.106468,236.118011 271.106468,231.972598 L271.106468,151.615751 C271.106468,149.17102 270.575013,147.496936 269.512086,146.593448 C268.44916,145.689961 267.120521,144.972496 265.526131,144.441033 C264.144327,143.90957 263.21428,143.457833 262.735963,143.085808 C262.257646,142.713784 262.018491,142.262047 262.018491,141.730584 C262.018491,140.986535 262.443656,140.401934 263.293997,139.976764 L279.078377,133.758674 C280.353889,133.439796 281.257363,133.28036 281.788827,133.28036 C283.064338,133.28036 283.702085,134.024397 283.702085,135.512494 L283.702085,233.088665 Z M329.09907,248.075855 C324.209608,248.075855 319.612519,247.198953 315.307667,245.445125 C311.002814,243.691296 307.256054,241.246601 304.067275,238.110968 C300.878495,234.975335 298.354082,231.202002 296.493961,226.790857 C294.633839,222.379711 293.703792,217.516895 293.703792,212.202263 C293.703792,206.88763 294.633839,202.024814 296.493961,197.613668 C298.354082,193.202523 300.878495,189.42919 304.067275,186.293557 C307.256054,183.157924 311.002814,180.713229 315.307667,178.9594 C319.612519,177.205572 324.209608,176.32867 329.09907,176.32867 C333.88224,176.32867 338.426182,177.205572 342.731035,178.9594 C347.035888,180.713229 350.782648,183.157924 353.971427,186.293557 C357.160207,189.42919 359.68462,193.202523 361.544741,197.613668 C363.404863,202.024814 364.334909,206.88763 364.334909,212.202263 C364.334909,217.516895 363.404863,222.379711 361.544741,226.790857 C359.68462,231.202002 357.160207,234.975335 353.971427,238.110968 C350.782648,241.246601 347.035888,243.691296 342.731035,245.445125 C338.426182,247.198953 333.88224,248.075855 329.09907,248.075855 L329.09907,248.075855 Z M329.09907,244.408776 C333.669654,244.408776 337.363269,243.266147 340.180024,240.980855 C342.996779,238.695563 345.122601,235.87885 346.557552,232.530631 C347.992502,229.182413 348.949122,225.674808 349.427439,222.007711 C349.905756,218.340614 350.144911,215.072164 350.144911,212.202263 C350.144911,209.332361 349.905756,206.010765 349.427439,202.237376 C348.949122,198.463987 347.992502,194.929809 346.557552,191.634736 C345.122601,188.339664 342.996779,185.549524 340.180024,183.264232 C337.363269,180.978939 333.669654,179.836311 329.09907,179.836311 C324.422193,179.836311 320.702006,180.978939 317.938397,183.264232 C315.174788,185.549524 313.048967,188.339664 311.560869,191.634736 C310.072772,194.929809 309.08958,198.463987 308.611263,202.237376 C308.132946,206.010765 307.893791,209.332361 307.893791,212.202263 C307.893791,215.072164 308.132946,218.340614 308.611263,222.007711 C309.08958,225.674808 310.072772,229.182413 311.560869,232.530631 C313.048967,235.87885 315.174788,238.695563 317.938397,240.980855 C320.702006,243.266147 324.422193,244.408776 329.09907,244.408776 L329.09907,244.408776 Z M400.214043,246.322035 C399.682579,247.491254 398.991687,248.075855 398.141346,248.075855 C397.291005,248.075855 396.653259,247.491254 396.228088,246.322035 L371.993483,190.199793 C371.143142,188.286525 370.399105,186.745304 369.761349,185.576085 C369.123593,184.406866 368.512419,183.529965 367.92781,182.945355 C367.3432,182.360746 366.732026,181.962154 366.094271,181.749569 C365.456515,181.536983 364.659332,181.377547 363.702698,181.271254 C361.576845,180.952376 360.513934,180.208339 360.513934,179.03912 C360.513934,178.826534 360.620225,178.507661 360.83281,178.08249 C361.045396,177.65732 361.523705,177.444738 362.267754,177.444738 C362.90551,177.444738 363.516684,177.47131 364.101293,177.524457 C364.685903,177.577603 365.483086,177.630749 366.492866,177.683895 C367.502646,177.737041 368.88443,177.790187 370.638259,177.843333 C372.392088,177.896479 374.810209,177.923052 377.892696,177.923052 C380.975183,177.923052 383.393305,177.896479 385.147134,177.843333 C386.900963,177.790187 388.256174,177.763614 389.212808,177.763614 C390.169442,177.763614 390.913479,177.737041 391.444942,177.683895 C391.976406,177.630749 392.561006,177.604176 393.198762,177.604176 C394.474274,177.604176 395.112021,178.135631 395.112021,179.198558 C395.112021,179.623728 395.00573,180.048893 394.793144,180.474063 C394.580559,180.899234 393.783376,181.111816 392.401571,181.111816 C389.53167,181.111816 387.618431,181.590126 386.661797,182.54676 C385.705163,183.503394 385.226853,184.725741 385.226853,186.213838 C385.226853,187.701935 385.625444,189.429165 386.422639,191.395579 C387.219834,193.361993 387.937299,195.089223 388.575055,196.57732 L402.765054,230.05934 L418.07112,193.229118 L416.955052,190.359231 C415.67954,187.064159 414.297757,184.725755 412.809659,183.343951 C411.321562,181.962146 409.514614,181.218109 407.388761,181.111816 C406.53842,181.111816 405.874101,180.925807 405.395784,180.553782 C404.917467,180.181758 404.678312,179.730021 404.678312,179.198558 C404.678312,178.985972 404.784603,178.613954 404.997188,178.08249 C405.209774,177.551027 405.688083,177.2853 406.432132,177.2853 C407.069888,177.2853 407.707634,177.311872 408.34539,177.365019 C408.983146,177.418165 409.88662,177.497883 411.055839,177.604176 C412.225059,177.710469 413.739706,177.790187 415.599828,177.843333 C417.459949,177.896479 419.931216,177.923052 423.013703,177.923052 C426.09619,177.923052 428.514312,177.896479 430.268141,177.843333 C432.02197,177.790187 433.403754,177.763614 434.413534,177.763614 C435.423314,177.763614 436.193924,177.737041 436.725388,177.683895 C437.256851,177.630749 437.841452,177.604176 438.479208,177.604176 C439.223256,177.604176 439.728139,177.816758 439.99387,178.241929 C440.259602,178.667099 440.392466,179.092264 440.392466,179.517434 C440.392466,179.942605 440.259602,180.314623 439.99387,180.633501 C439.728139,180.952379 438.904383,181.111816 437.522578,181.111816 C434.652677,181.111816 432.659719,181.563553 431.543646,182.467041 C430.427574,183.370528 429.869545,184.566303 429.869545,186.0544 C429.869545,187.542497 430.082128,189.057145 430.507298,190.598388 C430.932469,192.139632 431.463924,193.707425 432.10168,195.301815 L446.291679,228.464958 L458.249543,194.982938 C458.993591,192.857085 459.631338,191.050137 460.162801,189.56204 C460.694264,188.073943 460.959992,186.639013 460.959992,185.257209 C460.959992,183.237648 460.295673,182.041874 458.967015,181.66985 C457.638356,181.297825 455.911127,181.111816 453.785274,181.111816 C453.041225,181.111816 452.562915,180.872661 452.35033,180.394344 C452.137745,179.916027 452.031454,179.46429 452.031454,179.03912 C452.031454,178.720242 452.164317,178.374796 452.430049,178.002771 C452.695781,177.630747 453.200663,177.444738 453.944712,177.444738 C455.751687,177.444738 457.558635,177.497883 459.36561,177.604176 C461.172585,177.710469 463.13897,177.763614 465.264823,177.763614 C468.241017,177.763614 470.366839,177.710469 471.642351,177.604176 C472.917862,177.497883 474.14021,177.444738 475.309429,177.444738 C475.840892,177.444738 476.239484,177.630747 476.505215,178.002771 C476.770947,178.374796 476.903811,178.773387 476.903811,179.198558 C476.903811,179.623728 476.744374,180.02232 476.425496,180.394344 C476.106618,180.766368 475.309435,180.952378 474.033923,180.952378 C471.90807,180.952378 470.287132,181.271251 469.171059,181.909007 C468.054986,182.546763 467.204657,183.397091 466.620048,184.460018 C466.035438,185.522945 465.557128,186.798437 465.185104,188.286534 C464.81308,189.774632 464.308197,191.422143 463.670441,193.229118 L444.218982,246.322035 C443.900104,247.491254 443.262358,248.075855 442.305724,248.075855 C441.561676,248.075855 440.977075,247.491254 440.551904,246.322035 L420.143816,199.128331 L400.214043,246.322035 Z" id="Hanako-Clulow" fill="#8C718C"></path>
    </g>
</svg>