<?xml version="1.0" encoding="UTF-8" standalone="no"?>
<svg width="484px" height="63px" viewBox="0 0 484 63" version="1.1" xmlns="http://www.w3.org/2000/svg" xmlns:xlink="http://www.w3.org/1999/xlink">
    <!-- Generator: Sketch 41 (35326) - http://www.bohemiancoding.com/sketch -->
    <title>Hanako Clulow Copy</title>
    <desc>Created with Sketch.</desc>
    <defs></defs>
    <g id="Page-1" stroke="none" stroke-width="1" fill="none" fill-rule="evenodd">
        <path d="M30.9495,36.1255 L30.9495,61 L41.656,61 L41.656,5.3745 L30.9495,5.3745 L30.9495,27.673 L11.1465,27.673 L11.1465,5.3745 L0.5205,5.3745 L0.5205,61 L11.1465,61 L11.1465,36.1255 L30.9495,36.1255 Z M81.3699999,49.73 L81.3699999,31.859 C81.3699999,22.4405 76.3789999,17.208 65.0284999,17.208 C60.1984999,17.208 54.8049999,18.2545 49.5724999,20.267 L51.9874999,27.2705 C56.2539999,25.8215 60.3594999,25.0165 63.2574999,25.0165 C68.7314999,25.0165 71.2269999,26.868 71.2269999,32.4225 L71.2269999,34.8375 L65.9139999,34.8375 C53.5169999,34.8375 46.5134999,39.8285 46.5134999,49.086 C46.5134999,56.814 51.7459999,62.2075 60.2789999,62.2075 C65.3504999,62.2075 70.0194999,60.356 72.9979999,55.848 C74.6884999,59.9535 77.7474999,61.644 82.4164999,62.0465 L84.5899999,55.204 C82.4969999,54.399 81.3699999,53.1915 81.3699999,49.73 Z M63.0159999,54.721 C59.0714999,54.721 56.9784999,52.3865 56.9784999,48.281 C56.9784999,43.29 60.2789999,40.875 66.9604999,40.875 L71.2269999,40.875 L71.2269999,49.4885 C69.2949999,52.8695 66.6384999,54.721 63.0159999,54.721 Z M112.1485,17.208 C106.755,17.208 102.4885,19.7035 99.1879998,23.97 L98.3829998,18.4155 L89.4474998,18.4155 L89.4474998,61 L99.7514998,61 L99.7514998,31.376 C102.247,27.4315 104.984,24.936 108.687,24.936 C111.907,24.936 113.9195,26.4655 113.9195,31.7785 L113.9195,61 L124.2235,61 L124.2235,30.1685 C124.2235,22.038 119.796,17.208 112.1485,17.208 Z M163.2935,49.73 L163.2935,31.859 C163.2935,22.4405 158.3025,17.208 146.952,17.208 C142.122,17.208 136.7285,18.2545 131.496,20.267 L133.911,27.2705 C138.1775,25.8215 142.283,25.0165 145.181,25.0165 C150.655,25.0165 153.1505,26.868 153.1505,32.4225 L153.1505,34.8375 L147.8375,34.8375 C135.4405,34.8375 128.437,39.8285 128.437,49.086 C128.437,56.814 133.6695,62.2075 142.2025,62.2075 C147.274,62.2075 151.943,60.356 154.9215,55.848 C156.612,59.9535 159.671,61.644 164.34,62.0465 L166.5135,55.204 C164.4205,54.399 163.2935,53.1915 163.2935,49.73 Z M144.9395,54.721 C140.995,54.721 138.902,52.3865 138.902,48.281 C138.902,43.29 142.2025,40.875 148.884,40.875 L153.1505,40.875 L153.1505,49.4885 C151.2185,52.8695 148.562,54.721 144.9395,54.721 Z M181.675,61 L181.675,0.2225 L171.371,1.3495 L171.371,61 L181.675,61 Z M193.0255,37.172 L207.1935,18.4155 L196.326,18.4155 L182.0775,37.7355 L196.7285,61 L208.562,61 L193.0255,37.172 Z M226.219,17.208 C213.5805,17.208 206.094,26.3045 206.094,39.6675 C206.094,53.6745 213.5805,62.2075 226.1385,62.2075 C238.6965,62.2075 246.183,53.111 246.183,39.6675 C246.183,25.741 238.777,17.208 226.219,17.208 Z M226.219,25.0165 C232.176,25.0165 235.3155,29.5245 235.3155,39.6675 C235.3155,49.8105 232.176,54.399 226.1385,54.399 C220.101,54.399 216.9615,49.891 216.9615,39.6675 C216.9615,29.605 220.1815,25.0165 226.219,25.0165 Z M288.580999,4.167 C275.056999,4.167 264.430999,14.3905 264.430999,33.0665 C264.430999,51.984 274.493499,62.2075 288.902999,62.2075 C296.469999,62.2075 302.265999,58.907 305.646999,55.4455 L300.655999,49.0055 C297.435999,51.4205 294.135499,53.6745 289.385999,53.6745 C281.416499,53.6745 275.620499,47.7175 275.620499,33.0665 C275.620499,18.013 281.577499,12.378 289.224999,12.378 C293.088999,12.378 296.389499,13.7465 299.528999,16.403 L305.002999,10.0435 C300.494999,6.26 295.906499,4.167 288.580999,4.167 Z M318.393499,50.6155 L318.393499,0.2225 L308.089499,1.3495 L308.089499,51.34 C308.089499,58.424 311.711999,62.2075 318.071499,62.2075 C320.727999,62.2075 323.303999,61.644 325.396999,60.7585 L323.223499,53.5135 C322.498999,53.755 321.613499,53.916 320.808499,53.916 C319.117999,53.916 318.393499,52.95 318.393499,50.6155 Z M361.890999,61 L361.890999,18.4155 L351.586999,18.4155 L351.586999,48.3615 C349.332999,52.0645 346.434999,54.399 342.973499,54.399 C339.431499,54.399 337.740999,52.7085 337.740999,47.7175 L337.740999,18.4155 L327.436999,18.4155 L327.436999,49.0055 C327.436999,57.2165 331.622999,62.2075 339.350999,62.2075 C345.146999,62.2075 349.252499,59.873 352.391999,55.043 L352.955499,61 L361.890999,61 Z M379.789499,50.6155 L379.789499,0.2225 L369.485499,1.3495 L369.485499,51.34 C369.485499,58.424 373.107999,62.2075 379.467499,62.2075 C382.123999,62.2075 384.699999,61.644 386.792999,60.7585 L384.619499,53.5135 C383.894999,53.755 383.009499,53.916 382.204499,53.916 C380.513999,53.916 379.789499,52.95 379.789499,50.6155 Z M405.818499,17.208 C393.179999,17.208 385.693499,26.3045 385.693499,39.6675 C385.693499,53.6745 393.179999,62.2075 405.737999,62.2075 C418.295999,62.2075 425.782499,53.111 425.782499,39.6675 C425.782499,25.741 418.376499,17.208 405.818499,17.208 Z M405.818499,25.0165 C411.775499,25.0165 414.914999,29.5245 414.914999,39.6675 C414.914999,49.8105 411.775499,54.399 405.737999,54.399 C399.700499,54.399 396.560999,49.891 396.560999,39.6675 C396.560999,29.605 399.780999,25.0165 405.818499,25.0165 Z M473.787999,61 L483.045499,18.4155 L473.143999,18.4155 L466.784499,53.433 L460.022499,18.4155 L449.476999,18.4155 L442.070999,53.433 L436.113999,18.4155 L425.809999,18.4155 L435.228499,61 L447.866999,61 L454.467999,27.5925 L460.907999,61 L473.787999,61 Z" id="Hanako-Clulow-Copy" fill="#8C718C"></path>
    </g>
</svg>