<?xml version="1.0" encoding="UTF-8" standalone="no"?>
<svg width="471px" height="62px" viewBox="0 0 471 62" version="1.1" xmlns="http://www.w3.org/2000/svg" xmlns:xlink="http://www.w3.org/1999/xlink">
    <!-- Generator: Sketch 41 (35326) - http://www.bohemiancoding.com/sketch -->
    <title>Hanako Clulow Copy</title>
    <desc>Created with Sketch.</desc>
    <defs></defs>
    <g id="Page-1" stroke="none" stroke-width="1" fill="none" fill-rule="evenodd">
        <path d="M31.284,34.757 L31.284,61 L38.2875,61 L38.2875,5.616 L31.284,5.616 L31.284,28.961 L7.2145,28.961 L7.2145,5.616 L0.2915,5.616 L0.2915,61 L7.2145,61 L7.2145,34.757 L31.284,34.757 Z M76.982,51.2595 L76.982,31.6175 C76.982,22.843 72.3935,17.691 62.331,17.691 C57.662,17.691 53.0735,18.657 48.002,20.589 L49.6925,25.58 C54.0395,24.0505 57.9035,23.2455 61.1235,23.2455 C67.2415,23.2455 70.22,25.6605 70.22,31.9395 L70.22,35.24 L63.297,35.24 C51.705,35.24 44.943,40.1505 44.943,49.1665 C44.943,56.7335 49.934,61.966 58.306,61.966 C63.5385,61.966 68.0465,59.9535 71.025,55.4455 C72.152,59.712 74.8085,61.4025 78.914,61.966 L80.524,57.2165 C78.27,56.4115 76.982,55.204 76.982,51.2595 Z M59.8355,56.814 C54.764,56.814 52.1075,53.9965 52.1075,48.8445 C52.1075,42.807 56.2935,39.8285 64.1825,39.8285 L70.22,39.8285 L70.22,49.891 C67.805,54.4795 64.424,56.814 59.8355,56.814 Z M105.741,17.691 C100.0255,17.691 95.598,20.6695 92.4585,25.0165 L91.895,18.657 L86.099,18.657 L86.099,61 L92.861,61 L92.861,30.8125 C95.759,26.1435 99.14,23.004 104.131,23.004 C108.478,23.004 111.1345,25.097 111.1345,31.6175 L111.1345,61 L117.8965,61 L117.8965,30.6515 C117.8965,22.6015 113.469,17.691 105.741,17.691 Z M156.7055,51.2595 L156.7055,31.6175 C156.7055,22.843 152.117,17.691 142.0545,17.691 C137.3855,17.691 132.797,18.657 127.7255,20.589 L129.416,25.58 C133.763,24.0505 137.627,23.2455 140.847,23.2455 C146.965,23.2455 149.9435,25.6605 149.9435,31.9395 L149.9435,35.24 L143.0205,35.24 C131.4285,35.24 124.6665,40.1505 124.6665,49.1665 C124.6665,56.7335 129.6575,61.966 138.0295,61.966 C143.262,61.966 147.77,59.9535 150.7485,55.4455 C151.8755,59.712 154.532,61.4025 158.6375,61.966 L160.2475,57.2165 C157.9935,56.4115 156.7055,55.204 156.7055,51.2595 Z M139.559,56.814 C134.4875,56.814 131.831,53.9965 131.831,48.8445 C131.831,42.807 136.017,39.8285 143.906,39.8285 L149.9435,39.8285 L149.9435,49.891 C147.5285,54.4795 144.1475,56.814 139.559,56.814 Z M174.5845,61 L174.5845,0.786 L167.8225,1.591 L167.8225,61 L174.5845,61 Z M182.6345,37.4135 L198.7345,18.657 L191.1675,18.657 L175.0675,37.8965 L192.4555,61 L200.586,61 L182.6345,37.4135 Z M218.787,17.691 C206.9535,17.691 200.111,26.6265 200.111,39.909 C200.111,53.3525 206.873,61.966 218.7065,61.966 C230.54,61.966 237.3825,53.0305 237.3825,39.748 C237.3825,26.224 230.701,17.691 218.787,17.691 Z M218.787,23.165 C226.1125,23.165 230.1375,28.5585 230.1375,39.748 C230.1375,51.0985 226.032,56.492 218.7065,56.492 C211.381,56.492 207.356,51.0985 207.356,39.909 C207.356,28.5585 211.542,23.165 218.787,23.165 Z M282.237,4.65 C269.679,4.65 259.375,14.471 259.375,33.308 C259.375,51.9035 269.035,61.966 282.3175,61.966 C289.643,61.966 294.8755,58.9875 297.9345,55.848 L294.3925,51.34 C291.253,53.755 287.872,56.009 282.559,56.009 C273.704,56.009 266.781,49.4885 266.781,33.308 C266.781,16.3225 273.9455,10.446 282.6395,10.446 C286.6645,10.446 289.965,11.734 293.507,14.5515 L297.2905,10.0435 C292.9435,6.582 289.0795,4.65 282.237,4.65 Z M309.3735,52.789 L309.3735,0.786 L302.6115,1.591 L302.6115,52.8695 C302.6115,58.907 305.59,61.966 310.742,61.966 C312.835,61.966 314.8475,61.483 316.699,60.5975 L314.928,55.848 C314.123,56.17 313.2375,56.331 312.191,56.331 C310.098,56.331 309.3735,55.1235 309.3735,52.789 Z M353.0125,61 L353.0125,18.657 L346.2505,18.657 L346.2505,49.0055 C343.594,53.433 340.052,56.5725 335.222,56.5725 C330.392,56.5725 328.299,54.3185 328.299,48.281 L328.299,18.657 L321.537,18.657 L321.537,49.0055 C321.537,57.297 325.884,61.966 333.3705,61.966 C339.4885,61.966 343.5135,59.3095 346.653,54.1575 L347.2165,61 L353.0125,61 Z M368.5695,52.789 L368.5695,0.786 L361.8075,1.591 L361.8075,52.8695 C361.8075,58.907 364.786,61.966 369.938,61.966 C372.031,61.966 374.0435,61.483 375.895,60.5975 L374.124,55.848 C373.319,56.17 372.4335,56.331 371.387,56.331 C369.294,56.331 368.5695,55.1235 368.5695,52.789 Z M395.867,17.691 C384.0335,17.691 377.191,26.6265 377.191,39.909 C377.191,53.3525 383.953,61.966 395.7865,61.966 C407.62,61.966 414.4625,53.0305 414.4625,39.748 C414.4625,26.224 407.781,17.691 395.867,17.691 Z M395.867,23.165 C403.1925,23.165 407.2175,28.5585 407.2175,39.748 C407.2175,51.0985 403.112,56.492 395.7865,56.492 C388.461,56.492 384.436,51.0985 384.436,39.909 C384.436,28.5585 388.622,23.165 395.867,23.165 Z M460.792,61 L470.5325,18.657 L464.0925,18.657 L456.0425,56.2505 L447.6705,18.657 L440.1035,18.657 L431.4095,56.2505 L423.44,18.657 L416.5975,18.657 L426.66,61 L435.676,61 L443.726,24.775 L451.5345,61 L460.792,61 Z" id="Hanako-Clulow-Copy" fill="#8C718C"></path>
    </g>
</svg>