<?xml version="1.0" encoding="UTF-8" standalone="no"?>
<svg width="551px" height="71px" viewBox="0 0 551 71" version="1.1" xmlns="http://www.w3.org/2000/svg" xmlns:xlink="http://www.w3.org/1999/xlink">
    <!-- Generator: Sketch 39.1 (31720) - http://www.bohemiancoding.com/sketch -->
    <title>Hanako Clulow</title>
    <desc>Created with Sketch.</desc>
    <defs></defs>
    <g id="Page-1" stroke="none" stroke-width="1" fill="none" fill-rule="evenodd">
        <path d="M9.34562612,48.012 C9.34562612,58.308 9.04862612,62.268 8.85062612,64.842 C8.65262612,67.218 6.47462612,68.109 0.930626116,68.208 L0.930626116,69.396 C3.30662612,69.297 8.94962612,69 13.0086261,69 C18.0576261,69 23.3046261,69.297 26.2746261,69.396 L26.2746261,68.208 C20.6316261,67.911 18.3546261,67.416 18.1566261,64.644 C17.8596261,61.476 17.7606261,56.229 17.7606261,48.012 L17.7606261,36.924 C20.4336261,36.825 26.0766261,36.726 32.1156261,36.726 C38.2536261,36.726 44.1936261,36.825 48.0546261,36.924 L48.0546261,48.309 C48.0546261,59.001 47.7576261,62.367 47.6586261,64.644 C47.3616261,67.119 45.2826261,68.109 40.0356261,68.208 L40.0356261,69.396 C42.7086261,69.198 48.1536261,69.099 51.8166261,69.099 C55.6776261,69.099 61.4196261,69.297 64.2906261,69.396 L64.4886261,68.208 C59.0436261,67.911 57.0636261,67.218 56.8656261,64.743 C56.6676261,61.575 56.4696261,56.13 56.4696261,47.418 L56.4696261,24.45 C56.4696261,18.015 56.7666261,13.659 56.8656261,10.095 C56.9646261,7.224 59.0436261,6.531 64.4886261,6.432 L64.4886261,5.244 C62.6076261,5.343 56.1726261,5.64 51.9156261,5.64 C49.1436261,5.64 44.2926261,5.442 40.0356261,5.244 L40.0356261,6.432 C45.2826261,6.531 47.5596261,7.224 47.7576261,9.501 C48.0546261,12.273 48.0546261,16.233 48.0546261,23.559 L48.0546261,34.845 C43.7976261,34.944 38.1546261,34.944 32.1156261,34.944 C26.1756261,34.944 20.4336261,34.944 17.7606261,34.845 L17.7606261,23.757 C17.7606261,17.718 17.8596261,12.57 18.1566261,9.996 C18.3546261,7.422 20.1366261,6.432 25.3836261,6.432 L25.3836261,5.244 C22.4136261,5.244 16.5726261,5.64 13.3056261,5.64 C8.35562612,5.64 3.20762612,5.244 1.22762612,5.244 L1.22762612,6.432 C6.77162612,6.63 9.04862612,7.026 9.14762612,9.996 C9.34562612,13.758 9.34562612,17.916 9.34562612,25.044 L9.34562612,48.012 Z M91.9363759,41.478 C88.4713759,43.953 78.2743759,47.319 71.3443759,50.19 C67.6813759,51.675 66.2953759,55.041 66.2953759,58.704 C66.2953759,65.337 70.2553759,70.287 77.4823759,70.287 C82.2343759,70.287 87.2833759,67.614 91.7383759,62.565 C91.9363759,66.822 93.3223759,70.287 98.4703759,70.287 C103.222376,70.287 106.390376,67.416 107.578376,61.377 L106.390376,60.882 C105.499376,64.545 103.915376,67.218 101.935376,67.218 C100.648376,67.218 99.3613759,66.624 99.3613759,62.268 L99.3613759,36.528 C99.3613759,34.746 98.7673759,32.667 97.9753759,31.479 C96.5893759,29.301 93.3223759,26.133 85.3033759,26.133 C74.1163759,26.133 68.3743759,32.667 68.3743759,37.122 C68.3743759,39.894 70.0573759,41.181 71.9383759,41.181 C72.9283759,41.181 74.0173759,40.983 74.8093759,40.389 C75.2053759,40.092 75.6013759,39.399 75.4033759,38.607 C75.3043759,37.815 75.0073759,36.627 75.0073759,35.439 C75.0073759,31.083 77.5813759,27.618 83.9173759,27.618 C89.7583759,27.618 91.9363759,31.875 91.9363759,36.528 L91.9363759,41.478 Z M74.8093759,57.417 C74.8093759,51.873 77.3833759,50.19 79.7593759,48.903 C83.3233759,47.022 89.1643759,44.646 91.9363759,43.062 L91.9363759,55.536 C91.8373759,56.625 91.6393759,58.506 91.3423759,59.496 C89.9563759,63.159 87.1843759,66.723 81.7393759,66.723 C77.2843759,66.723 74.8093759,62.466 74.8093759,57.516 L74.8093759,57.417 Z M106.910126,69.396 C109.484126,69.396 112.751126,69 116.513126,69 C119.384126,69 124.136126,69.396 126.314126,69.396 L126.512126,68.208 C121.859126,68.01 121.067126,67.515 120.869126,65.634 C120.671126,63.456 120.572126,59.199 120.572126,54.249 L120.572126,40.686 C120.572126,38.607 120.770126,37.617 121.562126,36.132 C123.641126,32.073 127.205126,29.499 132.254126,29.499 C135.818126,29.499 137.996126,30.885 139.283126,33.558 C140.075126,35.241 140.273126,36.132 140.273126,49.695 C140.273126,59.001 139.976126,63.357 139.778126,65.634 C139.580126,67.416 138.590126,68.01 134.531126,68.208 L134.432126,69.396 C136.511126,69.396 139.778126,69 143.639126,69 C147.302126,69 150.866126,69.396 153.341126,69.396 L153.539126,68.208 C148.490126,67.812 147.896126,67.614 147.896126,65.535 L147.896126,37.32 C147.896126,35.142 147.500126,33.459 146.708126,31.776 C145.520126,29.202 142.253126,26.133 136.016126,26.133 C129.086126,26.133 124.136126,30.588 120.671126,34.251 C120.572126,32.469 120.374126,28.806 120.275126,26.529 C116.315126,27.42 111.563126,27.915 107.405126,27.915 L107.207126,29.004 C111.959126,29.004 112.553126,29.202 112.652126,30.588 C112.751126,33.063 112.949126,37.32 112.949126,42.864 L112.949126,54.051 C112.949126,59.595 112.751126,62.367 112.553126,65.337 C112.454126,67.812 111.464126,68.01 106.910126,68.208 L106.910126,69.396 Z M182.075876,41.478 C178.610876,43.953 168.413876,47.319 161.483876,50.19 C157.820876,51.675 156.434876,55.041 156.434876,58.704 C156.434876,65.337 160.394876,70.287 167.621876,70.287 C172.373876,70.287 177.422876,67.614 181.877876,62.565 C182.075876,66.822 183.461876,70.287 188.609876,70.287 C193.361876,70.287 196.529876,67.416 197.717876,61.377 L196.529876,60.882 C195.638876,64.545 194.054876,67.218 192.074876,67.218 C190.787876,67.218 189.500876,66.624 189.500876,62.268 L189.500876,36.528 C189.500876,34.746 188.906876,32.667 188.114876,31.479 C186.728876,29.301 183.461876,26.133 175.442876,26.133 C164.255876,26.133 158.513876,32.667 158.513876,37.122 C158.513876,39.894 160.196876,41.181 162.077876,41.181 C163.067876,41.181 164.156876,40.983 164.948876,40.389 C165.344876,40.092 165.740876,39.399 165.542876,38.607 C165.443876,37.815 165.146876,36.627 165.146876,35.439 C165.146876,31.083 167.720876,27.618 174.056876,27.618 C179.897876,27.618 182.075876,31.875 182.075876,36.528 L182.075876,41.478 Z M164.948876,57.417 C164.948876,51.873 167.522876,50.19 169.898876,48.903 C173.462876,47.022 179.303876,44.646 182.075876,43.062 L182.075876,55.536 C181.976876,56.625 181.778876,58.506 181.481876,59.496 C180.095876,63.159 177.323876,66.723 171.878876,66.723 C167.423876,66.723 164.948876,62.466 164.948876,57.516 L164.948876,57.417 Z M196.752625,2.472 L200.217625,2.571 C201.702625,2.67 202.296625,3.165 202.296625,4.056 C202.494625,7.224 202.494625,12.471 202.494625,22.965 L202.494625,46.626 C202.494625,56.526 202.197625,63.852 201.900625,65.733 C201.702625,67.416 201.009625,68.01 196.554625,68.208 L196.455625,69.396 C198.633625,69.396 201.207625,69 205.266625,69 C209.721625,69 213.384625,69.396 215.859625,69.396 L216.057625,68.208 C211.404625,68.01 210.513625,67.713 210.414625,65.634 C210.117625,60.387 210.117625,54.249 210.117625,47.616 C211.206625,47.319 211.800625,47.616 212.493625,48.705 C214.275625,51.279 224.769625,64.941 228.333625,70.386 C231.402625,69.792 238.332625,69.297 242.391625,69.297 L242.688625,68.208 L239.421625,68.208 C238.233625,68.109 237.342625,67.911 235.956625,66.723 C233.184625,63.852 222.690625,49.695 217.542625,42.666 C221.205625,38.904 227.145625,33.162 229.620625,30.885 C231.600625,29.004 233.976625,28.113 238.629625,27.717 L238.530625,26.628 C232.887625,27.024 225.759625,27.42 221.601625,27.42 L221.403625,28.509 L225.858625,28.905 C226.947625,29.004 227.244625,29.499 226.650625,30.39 C223.779625,34.944 213.879625,45.735 210.117625,46.329 L210.117625,24.846 C210.117625,15.837 210.414625,4.848 210.612625,0.195 C207.444625,0.789 201.504625,1.284 196.851625,1.383 L196.752625,2.472 Z M259.939375,26.133 C246.277375,26.133 238.951375,36.231 238.951375,48.705 C238.951375,61.08 245.980375,70.287 259.345375,70.287 C272.017375,70.287 280.036375,61.773 280.036375,47.715 C280.036375,35.142 272.710375,26.133 260.038375,26.133 L259.939375,26.133 Z M259.543375,27.618 C264.097375,27.618 266.968375,30.093 268.849375,33.756 C270.433375,36.924 271.423375,42.567 271.423375,48.606 C271.423375,54.942 270.433375,59.991 269.146375,62.961 C267.166375,67.218 264.295375,68.901 260.236375,68.901 C255.880375,68.901 252.316375,66.525 250.237375,62.268 C248.653375,58.803 247.663375,53.16 247.663375,47.418 C247.663375,41.676 248.554375,36.528 250.336375,33.162 C252.415375,29.598 255.286375,27.618 259.444375,27.618 L259.543375,27.618 Z M349.385875,25.44 C349.187875,20.787 349.385875,11.382 350.375875,5.343 L349.385875,4.848 L347.702875,10.293 C344.633875,6.828 338.594875,3.957 329.882875,3.957 C320.576875,3.957 313.943875,6.63 308.696875,11.877 C302.657875,17.421 298.598875,26.232 298.598875,38.211 C298.598875,46.923 300.776875,55.041 304.736875,60.288 C309.785875,67.614 317.804875,70.782 327.506875,70.782 C340.178875,70.782 349.187875,63.852 351.959875,52.665 L350.870875,51.873 C347.603875,62.565 340.871875,67.515 330.773875,67.515 C323.249875,67.515 317.210875,64.743 313.151875,57.912 C309.884875,52.665 308.300875,45.339 308.300875,36.825 C308.300875,26.43 310.874875,17.916 315.428875,12.372 C319.091875,7.818 323.942875,5.541 330.377875,5.541 C342.653875,5.541 347.702875,15.144 348.197875,25.737 L349.385875,25.44 Z M353.766625,2.472 C358.617625,2.472 359.310625,2.769 359.508625,4.254 C359.607625,6.729 359.706625,9.402 359.706625,20.886 L359.706625,45.834 C359.706625,55.437 359.310625,63.456 359.211625,65.337 C359.013625,67.515 358.221625,68.01 353.667625,68.208 L353.667625,69.396 C355.548625,69.396 358.914625,69 363.072625,69 C366.438625,69 370.299625,69.396 372.972625,69.396 L373.269625,68.208 C368.616625,68.01 367.725625,67.713 367.527625,65.535 C367.428625,63.258 367.329625,58.506 367.329625,46.725 L367.329625,22.866 C367.329625,12.075 367.626625,4.65 367.824625,0.195 C364.458625,0.69 359.013625,1.383 353.865625,1.383 L353.766625,2.472 Z M400.024375,28.509 C404.974375,28.509 406.162375,28.707 406.360375,29.994 C406.558375,31.974 406.657375,34.944 406.657375,40.785 L406.657375,52.368 C406.657375,54.447 406.558375,55.932 405.667375,58.011 C403.489375,63.258 398.638375,67.218 392.401375,67.218 C389.629375,67.218 387.946375,65.832 387.451375,63.456 C386.956375,61.08 386.857375,56.823 386.857375,47.22 C386.857375,36.231 387.253375,29.103 387.649375,26.331 C386.560375,26.529 384.481375,26.727 381.907375,26.925 C379.333375,27.123 376.462375,27.222 373.591375,27.222 L373.294375,28.311 C377.749375,28.311 378.937375,28.41 379.036375,29.796 C379.135375,31.182 379.234375,33.162 379.234375,37.617 C379.234375,45.933 378.937375,55.635 378.937375,60.882 C378.937375,63.06 379.333375,65.139 380.125375,66.327 C381.016375,68.109 383.590375,70.287 389.035375,70.287 C397.054375,70.287 403.786375,64.446 406.558375,60.585 C406.360375,63.06 406.558375,67.713 406.360375,70.386 C408.241375,69.99 410.815375,69.693 413.389375,69.495 C416.161375,69.297 418.537375,69.099 420.517375,69 L420.814375,67.713 C415.468375,67.812 414.973375,67.515 414.676375,65.931 C414.478375,63.654 414.280375,59.595 414.280375,52.665 L414.280375,40.983 C414.280375,34.746 414.478375,29.598 414.676375,26.529 C413.686375,26.628 412.003375,26.925 409.330375,27.123 C406.855375,27.222 402.598375,27.321 399.826375,27.321 L400.024375,28.509 Z M420.938124,2.472 C425.789124,2.472 426.482124,2.769 426.680124,4.254 C426.779124,6.729 426.878124,9.402 426.878124,20.886 L426.878124,45.834 C426.878124,55.437 426.482124,63.456 426.383124,65.337 C426.185124,67.515 425.393124,68.01 420.839124,68.208 L420.839124,69.396 C422.720124,69.396 426.086124,69 430.244124,69 C433.610124,69 437.471124,69.396 440.144124,69.396 L440.441124,68.208 C435.788124,68.01 434.897124,67.713 434.699124,65.535 C434.600124,63.258 434.501124,58.506 434.501124,46.725 L434.501124,22.866 C434.501124,12.075 434.798124,4.65 434.996124,0.195 C431.630124,0.69 426.185124,1.383 421.037124,1.383 L420.938124,2.472 Z M463.334874,26.133 C449.672874,26.133 442.346874,36.231 442.346874,48.705 C442.346874,61.08 449.375874,70.287 462.740874,70.287 C475.412874,70.287 483.431874,61.773 483.431874,47.715 C483.431874,35.142 476.105874,26.133 463.433874,26.133 L463.334874,26.133 Z M462.938874,27.618 C467.492874,27.618 470.363874,30.093 472.244874,33.756 C473.828874,36.924 474.818874,42.567 474.818874,48.606 C474.818874,54.942 473.828874,59.991 472.541874,62.961 C470.561874,67.218 467.690874,68.901 463.631874,68.901 C459.275874,68.901 455.711874,66.525 453.632874,62.268 C452.048874,58.803 451.058874,53.16 451.058874,47.418 C451.058874,41.676 451.949874,36.528 453.731874,33.162 C455.810874,29.598 458.681874,27.618 462.839874,27.618 L462.938874,27.618 Z M482.862624,28.311 C487.020624,28.608 487.911624,28.905 489.099624,32.073 C491.970624,39.201 499.296624,61.377 501.969624,69.891 C503.058624,69.99 504.147624,69.99 505.335624,70.287 C508.107624,61.278 512.463624,49.2 516.126624,37.419 C519.987624,48.705 525.531624,63.951 527.511624,70.287 C528.699624,70.089 529.590624,69.891 530.877624,69.891 C534.540624,57.912 540.876624,39.696 543.351624,33.657 C545.133624,29.202 546.321624,28.707 550.875624,28.212 L550.776624,27.123 C549.291624,27.123 546.816624,27.42 543.450624,27.42 C540.579624,27.42 537.510624,27.123 535.134624,27.123 L534.936624,28.311 L539.193624,28.905 C541.074624,29.103 541.569624,29.499 541.173624,31.083 C540.183624,36.231 536.322624,48.507 532.164624,60.585 C529.095624,51.477 522.363624,33.063 520.680624,27.123 C519.096624,27.321 518.601624,27.42 517.116624,27.321 C514.344624,36.726 509.790624,51.873 506.820624,60.387 C503.751624,50.289 499.593624,39.201 497.415624,30.984 C497.019624,29.4 497.118624,28.905 498.999624,28.806 L502.563624,28.311 L502.266624,27.123 C498.999624,27.222 495.435624,27.42 492.069624,27.42 C487.911624,27.42 485.040624,27.222 482.961624,27.123 L482.862624,28.311 Z" id="Hanako-Clulow" fill="#8C718C"></path>
    </g>
</svg>