<?xml version="1.0" encoding="UTF-8" standalone="no"?>
<svg width="540px" height="65px" viewBox="0 0 540 65" version="1.1" xmlns="http://www.w3.org/2000/svg" xmlns:xlink="http://www.w3.org/1999/xlink">
    <!-- Generator: Sketch 39.1 (31720) - http://www.bohemiancoding.com/sketch -->
    <title>Hanako Clulow</title>
    <desc>Created with Sketch.</desc>
    <defs></defs>
    <g id="Page-1" stroke="none" stroke-width="1" fill="none" fill-rule="evenodd">
        <path d="M17.042432,53.5114704 C17.042432,54.7477152 17.1012999,55.8367716 17.2190375,56.7786724 C17.3367751,57.7205732 17.6163977,58.4858561 18.0579137,59.0745441 C18.4994297,59.6632321 19.1469768,60.1047414 20.0005743,60.3990854 C20.8541719,60.6934294 22.0168133,60.8405992 23.4885332,60.8405992 C24.3715652,60.8405992 24.9455274,60.9436181 25.210437,61.1496589 C25.4753466,61.3556997 25.6077994,61.6058883 25.6077994,61.9002323 C25.6077994,62.1357075 25.5342145,62.3711792 25.3870425,62.6066544 C25.2398705,62.8421295 24.8130781,62.9598654 24.1066525,62.9598654 C23.2824893,62.9598654 21.9873952,62.9304314 20.2213312,62.8715626 C18.4552673,62.8126938 15.8945129,62.7832599 12.5389914,62.7832599 C9.2423387,62.7832599 6.7993202,62.8126938 5.20986263,62.8715626 C3.62040507,62.9304314 2.4136128,62.9598654 1.58944962,62.9598654 C0.883024033,62.9598654 0.441514665,62.8421295 0.264908269,62.6066544 C0.0883018735,62.3711792 0,62.1357075 0,61.9002323 C0,61.6058883 0.13245281,61.3556997 0.397362404,61.1496589 C0.662271998,60.9436181 1.23623418,60.8405992 2.11926616,60.8405992 C4.00306771,60.8405992 5.46004863,60.4579578 6.4902526,59.6926634 C7.52045658,58.927369 8.03555084,57.4556711 8.03555084,55.2775256 L8.03555084,8.91857841 C8.03555084,6.68156406 7.52045658,5.19514919 6.4902526,4.4592892 C5.46004863,3.72342922 4.00306771,3.35550475 2.11926616,3.35550475 C1.23623418,3.35550475 0.662271998,3.25248589 0.397362404,3.0464451 C0.13245281,2.8404043 0,2.59021566 0,2.29587167 C0,2.00152768 0.0883018735,1.75133903 0.264908269,1.54529824 C0.441514665,1.33925744 0.883024033,1.23623859 1.58944962,1.23623859 C2.4136128,1.23623859 3.62040507,1.25095557 5.20986263,1.28038997 C6.7993202,1.30982437 9.2423387,1.32454135 12.5389914,1.32454135 C15.8945129,1.32454135 18.4552673,1.30982437 20.2213312,1.28038997 C21.9873952,1.25095557 23.2824893,1.23623859 24.1066525,1.23623859 C24.8130781,1.23623859 25.2398705,1.33925744 25.3870425,1.54529824 C25.5342145,1.75133903 25.6077994,2.00152768 25.6077994,2.29587167 C25.6077994,2.59021566 25.4753466,2.8404043 25.210437,3.0464451 C24.9455274,3.25248589 24.3715652,3.35550475 23.4885332,3.35550475 C22.0168133,3.35550475 20.8541719,3.50267454 20.0005743,3.79701853 C19.1469768,4.09136252 18.4994297,4.53287189 18.0579137,5.12155988 C17.6163977,5.71024786 17.3367751,6.46081379 17.2190375,7.37328017 C17.1012999,8.28574655 17.042432,9.36008601 17.042432,10.5963308 L17.042432,30.5527537 L50.8623877,30.5527537 L50.8623877,10.5963308 C50.8623877,9.36008601 50.8035198,8.28574655 50.6857822,7.37328017 C50.5680446,6.46081379 50.288422,5.71024786 49.846906,5.12155988 C49.40539,4.53287189 48.743126,4.09136252 47.860094,3.79701853 C46.977062,3.50267454 45.7997037,3.35550475 44.3279838,3.35550475 C43.4449518,3.35550475 42.8709896,3.25248589 42.60608,3.0464451 C42.3411704,2.8404043 42.2087176,2.59021566 42.2087176,2.29587167 C42.2087176,2.00152768 42.2823025,1.75133903 42.4294745,1.54529824 C42.5766465,1.33925744 43.0034389,1.23623859 43.7098645,1.23623859 C44.5340276,1.23623859 45.8291218,1.25095557 47.5951857,1.28038997 C49.3612497,1.30982437 51.922004,1.32454135 55.2775256,1.32454135 C58.5741783,1.32454135 61.0171968,1.30982437 62.6066544,1.28038997 C64.1961119,1.25095557 65.4029042,1.23623859 66.2270674,1.23623859 C66.933493,1.23623859 67.3750023,1.33925744 67.5516087,1.54529824 C67.7282151,1.75133903 67.816517,2.00152768 67.816517,2.29587167 C67.816517,2.59021566 67.6840642,2.8404043 67.4191546,3.0464451 C67.154245,3.25248589 66.5802828,3.35550475 65.6972508,3.35550475 C63.8134493,3.35550475 62.3564684,3.72342922 61.3262644,4.4592892 C60.2960604,5.19514919 59.7809661,6.68156406 59.7809661,8.91857841 L59.7809661,55.2775256 C59.7809661,57.4556711 60.2960604,58.927369 61.3262644,59.6926634 C62.3564684,60.4579578 63.8134493,60.8405992 65.6972508,60.8405992 C66.5802828,60.8405992 67.154245,60.9436181 67.4191546,61.1496589 C67.6840642,61.3556997 67.816517,61.6058883 67.816517,61.9002323 C67.816517,62.1357075 67.7282151,62.3711792 67.5516087,62.6066544 C67.3750023,62.8421295 66.933493,62.9598654 66.2270674,62.9598654 C65.4029042,62.9598654 64.1961119,62.9304314 62.6066544,62.8715626 C61.0171968,62.8126938 58.5741783,62.7832599 55.2775256,62.7832599 C51.922004,62.7832599 49.3759667,62.8126938 47.6393371,62.8715626 C45.9027076,62.9304314 44.6223304,62.9598654 43.7981672,62.9598654 C43.0917416,62.9598654 42.6649492,62.8421295 42.5177772,62.6066544 C42.3706053,62.3711792 42.2970204,62.1357075 42.2970204,61.9002323 C42.2970204,61.6058883 42.4294732,61.3556997 42.6943828,61.1496589 C42.9592924,60.9436181 43.5332545,60.8405992 44.4162865,60.8405992 C45.8880065,60.8405992 47.0506478,60.6934294 47.9042454,60.3990854 C48.757843,60.1047414 49.40539,59.6632321 49.846906,59.0745441 C50.288422,58.4858561 50.5680446,57.7205732 50.6857822,56.7786724 C50.8035198,55.8367716 50.8623877,54.7477152 50.8623877,53.5114704 L50.8623877,33.2018364 L17.042432,33.2018364 L17.042432,53.5114704 Z M99.4241521,53.5114704 C99.4241521,54.3356336 99.4535861,55.1597844 99.5124549,55.9839476 C99.5713237,56.8081108 99.6743425,57.5439597 99.8215145,58.1915165 C99.9686865,58.8390733 100.204158,59.3688846 100.527937,59.7809661 C100.851715,60.1930477 101.278507,60.3990854 101.808327,60.3990854 C102.397015,60.3990854 102.882675,60.1047459 103.265322,59.5160579 C103.647969,58.9273699 103.98646,58.3681247 104.280804,57.8383055 C104.398541,57.6028303 104.530994,57.3673586 104.678166,57.1318834 C104.825338,56.8964083 105.016659,56.7786724 105.252134,56.7786724 C105.723084,56.7786724 105.958556,57.043578 105.958556,57.5733972 C105.958556,57.8677412 105.855537,58.3534015 105.649496,59.0303927 C105.443456,59.7073839 105.075531,60.3843649 104.545712,61.0613561 C104.015893,61.7383473 103.294761,62.3270265 102.382294,62.8274112 C101.469828,63.327796 100.307187,63.5779847 98.8943356,63.5779847 C96.71619,63.5779847 95.1856242,62.9745885 94.3025922,61.7677782 C93.4195603,60.5609678 92.8603151,59.1334208 92.6248399,57.4850945 C92.1538895,57.9560449 91.5063424,58.530007 90.6821792,59.2069982 C89.858016,59.8839894 88.8866954,60.5462535 87.7681883,61.1938102 C86.6496811,61.841367 85.3987379,62.4006122 84.0153211,62.8715626 C82.6319043,63.342513 81.1160555,63.5779847 79.4677291,63.5779847 C78.8201724,63.5779847 78.0254555,63.4896828 77.0835547,63.3130764 C76.1416539,63.13647 75.2439182,62.7832625 74.3903206,62.2534433 C73.5367231,61.7236241 72.8008741,60.9730582 72.1827517,60.001723 C71.5646293,59.0303879 71.2555728,57.7205767 71.2555728,56.0722504 C71.2555728,53.4231544 72.1827425,51.2156076 74.0371096,49.4495436 C75.8914768,47.6834797 78.4080802,46.094046 81.5869953,44.6811948 L92.4482343,39.8245432 L92.4482343,31.7889923 C92.4482343,30.6704852 92.2716306,29.7433155 91.9184178,29.0074555 C91.565205,28.2715955 91.1089787,27.7123503 90.5497251,27.3297031 C89.9904715,26.9470559 89.3870754,26.6821503 88.7395186,26.5349783 C88.0919618,26.3878063 87.5032826,26.3142214 86.9734634,26.3142214 C86.2670379,26.3142214 85.457604,26.3730893 84.5451376,26.4908269 C83.6326713,26.6085645 82.7055016,26.9029041 81.7636008,27.3738545 C80.5862248,27.9625425 79.7326401,28.5806556 79.2028209,29.2282124 C78.6730017,29.8757692 78.4080961,30.8176558 78.4080961,32.0539006 C78.4080961,33.7610958 78.1284735,35.1886427 77.5692199,36.3365843 C77.0099663,37.4845259 75.9356268,38.058488 74.3461693,38.058488 C72.4034989,38.058488 71.4321783,37.0577335 71.4321783,35.0561943 C71.4321783,33.9376872 72.0650084,32.613159 73.3306876,31.0825703 C74.5963667,29.5519815 76.7303287,28.0214157 79.7326374,26.4908269 C81.6753078,25.4900574 83.4413452,24.7983594 85.0308028,24.4157122 C86.6202604,24.033065 88.3862978,23.8417443 90.3289682,23.8417443 C93.0369329,23.8417443 95.2297628,24.5481592 96.9075235,25.9610104 C98.5852843,27.3738616 99.4241521,29.4342386 99.4241521,32.1422034 L99.4241521,53.5114704 Z M83.4413532,46.3589472 C79.7914877,48.0072735 77.9665823,50.4208581 77.9665823,53.5997732 C77.9665823,54.24733 78.0401672,54.924311 78.1873392,55.6307366 C78.3345112,56.3371622 78.6141338,56.9699923 79.0262154,57.5292459 C79.4382969,58.0884994 79.9975421,58.5447258 80.7039677,58.8979386 C81.4103933,59.2511514 82.322846,59.4277551 83.4413532,59.4277551 C84.5598604,59.4277551 85.5900489,59.2511514 86.5319497,58.8979386 C87.4738504,58.5447258 88.3274352,58.1032164 89.0927296,57.5733972 C89.858024,57.043578 90.520288,56.5137668 91.0795416,55.9839476 C91.6387952,55.4541284 92.0950216,55.0126191 92.4482343,54.6594063 L92.4482343,42.2087176 L83.4413532,46.3589472 Z M119.959295,55.2775256 C119.959295,57.3379335 120.209483,58.8243484 120.709868,59.7368148 C121.210253,60.6492811 122.225725,61.1055075 123.756313,61.1055075 C124.462739,61.1055075 124.933682,61.1938094 125.169157,61.3704158 C125.404633,61.5470222 125.522368,61.7824938 125.522368,62.0768378 C125.522368,62.3711818 125.404633,62.5919365 125.169157,62.7391085 C124.933682,62.8862805 124.462739,62.9598654 123.756313,62.9598654 C123.4031,62.9598654 122.91744,62.9451484 122.299318,62.915714 C121.681195,62.8862796 121.018931,62.8715626 120.312506,62.8715626 C119.60608,62.8715626 118.884948,62.8568456 118.149088,62.8274112 C117.413228,62.7979768 116.750964,62.7832599 116.162276,62.7832599 C114.9849,62.7832599 113.733957,62.8126938 112.409409,62.8715626 C111.084861,62.9304314 109.981088,62.9598654 109.098056,62.9598654 C107.979549,62.9598654 107.420303,62.6655258 107.420303,62.0768378 C107.420303,61.429281 108.008982,61.1055075 109.186358,61.1055075 C110.59921,61.1055075 111.599964,60.6051302 112.188652,59.6043606 C112.77734,58.6035911 113.07168,56.9552894 113.07168,54.6594063 L113.07168,33.9965612 C113.07168,32.6425789 112.762623,31.6712583 112.144501,31.0825703 C111.526378,30.4938823 110.746379,29.993505 109.804478,29.5814234 C109.098052,29.2282106 108.612392,28.948588 108.347482,28.7425472 C108.082573,28.5365064 107.95012,28.3157518 107.95012,28.0802766 C107.95012,27.668195 108.185592,27.3444214 108.656542,27.1089462 L117.398515,24.1066525 C118.10494,23.9300461 118.605318,23.8417443 118.899662,23.8417443 C119.606087,23.8417443 119.959295,24.2538197 119.959295,25.0779828 L119.959295,30.6410565 C120.430245,30.1112373 121.077792,29.4636902 121.901955,28.6983959 C122.726119,27.9331015 123.697439,27.1825356 124.815946,26.4466756 C125.934454,25.7108156 127.185397,25.0927025 128.568814,24.5923177 C129.95223,24.0919329 131.468079,23.8417443 133.116405,23.8417443 C136.82514,23.8417443 139.827403,25.1662724 142.123287,27.8153683 C144.41917,30.4644642 145.567094,34.2614448 145.567094,39.2064239 L145.567094,55.0126173 C145.567094,57.131894 145.832,58.6771768 146.361819,59.648512 C146.891638,60.6198472 147.833525,61.1055075 149.187507,61.1055075 C150.01167,61.1055075 150.541482,61.1938094 150.776957,61.3704158 C151.012432,61.5470222 151.130168,61.8119278 151.130168,62.1651406 C151.130168,62.4006158 151.041866,62.6066535 150.86526,62.7832599 C150.688653,62.9598663 150.276578,63.0481681 149.629021,63.0481681 C149.099202,63.0481681 148.245617,63.0040172 147.068241,62.915714 C145.890865,62.8274108 144.448601,62.7832599 142.741406,62.7832599 C141.034211,62.7832599 139.533079,62.8274108 138.237965,62.915714 C136.942852,63.0040172 135.824361,63.0481681 134.882461,63.0481681 C134.117166,63.0481681 133.631506,62.9598663 133.425465,62.7832599 C133.219424,62.6066535 133.116405,62.4006158 133.116405,62.1651406 C133.116405,61.458715 133.616783,61.1055075 134.617552,61.1055075 C136.148141,61.1055075 137.207764,60.6787151 137.796452,59.8251175 C138.38514,58.9715199 138.679479,57.6028409 138.679479,55.7190393 L138.679479,40.7958735 C138.679479,36.6750576 137.928913,33.4961901 136.427759,31.2591758 C134.926604,29.0221614 132.645473,27.9036711 129.584295,27.9036711 C128.406919,27.9036711 127.303146,28.1391427 126.272942,28.6100931 C125.242738,29.0810435 124.300851,29.6255717 123.447254,30.2436941 C122.593656,30.8618165 121.872524,31.4946466 121.283836,32.1422034 C120.695148,32.7897601 120.253639,33.3195714 119.959295,33.731653 L119.959295,55.2775256 Z M182.411419,53.5114704 C182.411419,54.3356336 182.440853,55.1597844 182.499722,55.9839476 C182.558591,56.8081108 182.66161,57.5439597 182.808782,58.1915165 C182.955954,58.8390733 183.191425,59.3688846 183.515204,59.7809661 C183.838982,60.1930477 184.265775,60.3990854 184.795594,60.3990854 C185.384282,60.3990854 185.869942,60.1047459 186.252589,59.5160579 C186.635236,58.9273699 186.973727,58.3681247 187.268071,57.8383055 C187.385809,57.6028303 187.518261,57.3673586 187.665433,57.1318834 C187.812605,56.8964083 188.003926,56.7786724 188.239401,56.7786724 C188.710352,56.7786724 188.945823,57.043578 188.945823,57.5733972 C188.945823,57.8677412 188.842804,58.3534015 188.636764,59.0303927 C188.430723,59.7073839 188.062798,60.3843649 187.532979,61.0613561 C187.00316,61.7383473 186.282028,62.3270265 185.369562,62.8274112 C184.457095,63.327796 183.294454,63.5779847 181.881603,63.5779847 C179.703457,63.5779847 178.172891,62.9745885 177.289859,61.7677782 C176.406827,60.5609678 175.847582,59.1334208 175.612107,57.4850945 C175.141157,57.9560449 174.49361,58.530007 173.669446,59.2069982 C172.845283,59.8839894 171.873963,60.5462535 170.755455,61.1938102 C169.636948,61.841367 168.386005,62.4006122 167.002588,62.8715626 C165.619172,63.342513 164.103323,63.5779847 162.454996,63.5779847 C161.80744,63.5779847 161.012723,63.4896828 160.070822,63.3130764 C159.128921,63.13647 158.231185,62.7832625 157.377588,62.2534433 C156.52399,61.7236241 155.788141,60.9730582 155.170019,60.001723 C154.551897,59.0303879 154.24284,57.7205767 154.24284,56.0722504 C154.24284,53.4231544 155.17001,51.2156076 157.024377,49.4495436 C158.878744,47.6834797 161.395347,46.094046 164.574262,44.6811948 L175.435502,39.8245432 L175.435502,31.7889923 C175.435502,30.6704852 175.258898,29.7433155 174.905685,29.0074555 C174.552472,28.2715955 174.096246,27.7123503 173.536992,27.3297031 C172.977739,26.9470559 172.374343,26.6821503 171.726786,26.5349783 C171.079229,26.3878063 170.49055,26.3142214 169.960731,26.3142214 C169.254305,26.3142214 168.444871,26.3730893 167.532405,26.4908269 C166.619938,26.6085645 165.692769,26.9029041 164.750868,27.3738545 C163.573492,27.9625425 162.719907,28.5806556 162.190088,29.2282124 C161.660269,29.8757692 161.395363,30.8176558 161.395363,32.0539006 C161.395363,33.7610958 161.115741,35.1886427 160.556487,36.3365843 C159.997233,37.4845259 158.922894,38.058488 157.333436,38.058488 C155.390766,38.058488 154.419445,37.0577335 154.419445,35.0561943 C154.419445,33.9376872 155.052276,32.613159 156.317955,31.0825703 C157.583634,29.5519815 159.717596,28.0214157 162.719905,26.4908269 C164.662575,25.4900574 166.428612,24.7983594 168.01807,24.4157122 C169.607528,24.033065 171.373565,23.8417443 173.316235,23.8417443 C176.0242,23.8417443 178.21703,24.5481592 179.894791,25.9610104 C181.572551,27.3738616 182.411419,29.4342386 182.411419,32.1422034 L182.411419,53.5114704 Z M166.42862,46.3589472 C162.778755,48.0072735 160.953849,50.4208581 160.953849,53.5997732 C160.953849,54.24733 161.027434,54.924311 161.174606,55.6307366 C161.321778,56.3371622 161.601401,56.9699923 162.013483,57.5292459 C162.425564,58.0884994 162.984809,58.5447258 163.691235,58.8979386 C164.397661,59.2511514 165.310113,59.4277551 166.42862,59.4277551 C167.547128,59.4277551 168.577316,59.2511514 169.519217,58.8979386 C170.461118,58.5447258 171.314702,58.1032164 172.079997,57.5733972 C172.845291,57.043578 173.507555,56.5137668 174.066809,55.9839476 C174.626062,55.4541284 175.082289,55.0126191 175.435502,54.6594063 L175.435502,42.2087176 L166.42862,46.3589472 Z M202.301615,55.2775256 C202.301615,57.3379335 202.537087,58.8243484 203.008037,59.7368148 C203.478988,60.6492811 204.450308,61.1055075 205.922028,61.1055075 C206.746191,61.1055075 207.276003,61.1938094 207.511478,61.3704158 C207.746953,61.5470222 207.864689,61.7824938 207.864689,62.0768378 C207.864689,62.2534442 207.76167,62.4447649 207.555629,62.6508057 C207.349588,62.8568465 206.95223,62.9598654 206.363542,62.9598654 C205.95146,62.9598654 205.421649,62.9451484 204.774092,62.915714 C204.126536,62.8862796 203.434838,62.8715626 202.698978,62.8715626 C201.963118,62.8715626 201.227269,62.8568456 200.491409,62.8274112 C199.755549,62.7979768 199.093285,62.7832599 198.504597,62.7832599 C197.327221,62.7832599 196.090994,62.8126938 194.795881,62.8715626 C193.500767,62.9304314 192.441145,62.9598654 191.616982,62.9598654 C190.380737,62.9598654 189.762624,62.6360918 189.762624,61.9885351 C189.762624,61.3998471 190.351303,61.1055075 191.528679,61.1055075 C192.882661,61.1055075 193.853982,60.6051302 194.44267,59.6043606 C195.031358,58.6035911 195.325697,56.9552894 195.325697,54.6594063 L195.325697,10.154817 C195.325697,8.80083463 195.031358,7.87366496 194.44267,7.37328017 C193.853982,6.87289538 193.118133,6.47553695 192.235101,6.18119295 C191.469807,5.88684896 190.954712,5.63666032 190.689803,5.43061952 C190.424893,5.22457873 190.29244,4.97439009 190.29244,4.68004609 C190.29244,4.2679645 190.527912,3.94419097 190.998862,3.70871577 L199.740835,0.264908269 C200.447261,0.0883018735 200.947638,0 201.241982,0 C201.948408,0 202.301615,0.412075409 202.301615,1.23623859 L202.301615,42.4736259 L211.396799,34.7029833 C211.86775,34.2909017 212.368127,33.8493923 212.897946,33.378442 C213.427765,32.9074916 213.928142,32.4218313 214.399093,31.9214465 C214.870043,31.4210617 215.267402,30.9206844 215.59118,30.4202996 C215.914958,29.9199148 216.076845,29.4931224 216.076845,29.1399096 C216.076845,27.4327145 214.781751,26.5496957 212.191524,26.4908269 C211.602836,26.4908269 211.205478,26.3878081 210.999437,26.1817673 C210.793396,25.9757265 210.690377,25.7844058 210.690377,25.6077994 C210.690377,25.3723242 210.778679,25.1515695 210.955285,24.9455287 C211.131892,24.7394879 211.455665,24.6364691 211.926616,24.6364691 L229.05735,24.6364691 C229.881514,24.6364691 230.293589,24.9013747 230.293589,25.4311939 C230.293589,25.9021443 230.131702,26.2112008 229.807924,26.3583728 C229.484145,26.5055448 229.175089,26.5791297 228.880745,26.5791297 C227.938844,26.6379985 226.923373,26.9029041 225.8343,27.3738545 C224.745227,27.8448049 223.61202,28.462918 222.434644,29.2282124 C221.257268,29.9935068 220.035758,30.8618085 218.770079,31.8331437 C217.5044,32.8044789 216.253457,33.8199504 215.017212,34.8795888 L210.955285,38.4116991 L226.408268,56.8669752 C227.350169,57.9854824 228.483376,58.956803 229.807924,59.7809661 C231.132472,60.6051293 232.471717,61.0172047 233.825699,61.0172047 C234.29665,61.0172047 234.620423,61.1202236 234.79703,61.3262644 C234.973636,61.5323052 235.061938,61.7530599 235.061938,61.9885351 C235.061938,62.5183542 234.70873,62.7832599 234.002305,62.7832599 L214.222487,62.7832599 C213.810406,62.7832599 213.530783,62.694958 213.383611,62.5183516 C213.236439,62.3417452 213.162854,62.1651415 213.162854,61.9885351 C213.162854,61.6941911 213.265873,61.4587194 213.471914,61.282113 C213.677955,61.1055066 214.104747,61.0172047 214.752304,61.0172047 C215.92968,61.0172047 216.871567,60.8847519 217.577992,60.6198423 C218.284418,60.3549327 218.637625,59.8987064 218.637625,59.2511496 C218.637625,58.6035928 218.387437,57.9707627 217.887052,57.3526403 C217.386667,56.734518 216.930441,56.1311218 216.518359,55.5424338 L205.65712,42.9151397 L202.301615,45.7408279 L202.301615,55.2775256 Z M252.92117,63.5779847 C250.213206,63.5779847 247.667168,63.0923244 245.282982,62.1209892 C242.898796,61.149654 240.823702,59.795692 239.057638,58.0590624 C237.291574,56.3224328 235.893461,54.2326218 234.863257,51.7895667 C233.833053,49.3465115 233.317958,46.6533044 233.317958,43.7098645 C233.317958,40.7664245 233.833053,38.0732174 234.863257,35.6301622 C235.893461,33.1871071 237.291574,31.0972961 239.057638,29.3606665 C240.823702,27.624037 242.898796,26.2700749 245.282982,25.2987397 C247.667168,24.3274046 250.213206,23.8417443 252.92117,23.8417443 C255.570266,23.8417443 258.08687,24.3274046 260.471056,25.2987397 C262.855242,26.2700749 264.930336,27.624037 266.6964,29.3606665 C268.462464,31.0972961 269.860577,33.1871071 270.890781,35.6301622 C271.920985,38.0732174 272.43608,40.7664245 272.43608,43.7098645 C272.43608,46.6533044 271.920985,49.3465115 270.890781,51.7895667 C269.860577,54.2326218 268.462464,56.3224328 266.6964,58.0590624 C264.930336,59.795692 262.855242,61.149654 260.471056,62.1209892 C258.08687,63.0923244 255.570266,63.5779847 252.92117,63.5779847 L252.92117,63.5779847 Z M252.92117,61.5470213 C255.452529,61.5470213 257.498189,60.9141912 259.058212,59.648512 C260.618235,58.3828328 261.795593,56.8228331 262.590322,54.9684659 C263.385051,53.1140988 263.914862,51.1714575 264.179772,49.140484 C264.444681,47.1095104 264.577134,45.299322 264.577134,43.7098645 C264.577134,42.1204069 264.444681,40.2807845 264.179772,38.1909422 C263.914862,36.1010998 263.385051,34.1437416 262.590322,32.3188089 C261.795593,30.4938761 260.618235,28.9485933 259.058212,27.6829142 C257.498189,26.417235 255.452529,25.7844049 252.92117,25.7844049 C250.330943,25.7844049 248.270566,26.417235 246.739977,27.6829142 C245.209389,28.9485933 244.03203,30.4938761 243.207867,32.3188089 C242.383704,34.1437416 241.839176,36.1010998 241.574266,38.1909422 C241.309357,40.2807845 241.176904,42.1204069 241.176904,43.7098645 C241.176904,45.299322 241.309357,47.1095104 241.574266,49.140484 C241.839176,51.1714575 242.383704,53.1140988 243.207867,54.9684659 C244.03203,56.8228331 245.209389,58.3828328 246.739977,59.648512 C248.270566,60.9141912 250.330943,61.5470213 252.92117,61.5470213 L252.92117,61.5470213 Z M350.914126,52.5401396 C349.939795,54.6083604 348.353344,56.5137623 346.844009,58.0427417 C345.131038,59.7780068 342.186876,61.5911696 340.626853,62.2092919 C339.06683,62.8274143 337.271358,63.3719426 335.240385,63.8428929 C333.209411,64.3138433 330.987147,64.549315 328.573526,64.549315 C323.922891,64.549315 319.566666,63.872334 315.504719,62.5183516 C311.442771,61.1643692 307.910696,59.1628601 304.908388,56.5137642 C301.906079,53.8646682 299.536645,50.553348 297.800016,46.579704 C296.063386,42.6060601 295.195085,37.9996457 295.195085,32.7603227 C295.195085,28.1685564 296.019235,23.8859155 297.667562,19.9122716 C299.315888,15.9386277 301.59702,12.4801376 304.511025,9.5366977 C307.425031,6.59325777 310.912955,4.2679751 314.974902,2.56077994 C319.036849,0.853584777 323.451943,0 328.220315,0 C331.634706,0 334.666403,0.441509367 337.315499,1.32454135 C339.964595,2.20757333 342.731387,3.38493164 345.615958,4.85665161 C346.440122,5.327602 347.014084,5.65137553 347.337862,5.82798193 C347.661641,6.00458832 348.000131,6.0928902 348.353344,6.0928902 C348.647688,6.0928902 349.030329,5.82798458 349.50128,5.29816539 L350.560913,3.70871577 C350.855257,3.17889658 351.237898,2.91399096 351.708849,2.91399096 C351.944324,2.91399096 352.165079,3.00229284 352.371119,3.17889923 C352.57716,3.35550563 352.680179,3.62041125 352.680179,3.97362404 L353.386601,22.5172029 C353.386601,23.4002349 353.033394,23.8417443 352.326968,23.8417443 C351.561674,23.8417443 351.061296,23.4591028 350.825821,22.6938084 C350.649215,21.928514 350.399026,20.8983255 350.075248,19.6032119 C349.751469,18.3080984 349.265809,16.9099854 348.618252,15.408831 C347.970695,13.9076766 347.117111,12.4065448 346.057472,10.9053904 C344.997834,9.40423606 343.673306,8.03555702 342.083848,6.79931225 C340.494391,5.56306748 338.551749,4.56231291 336.255866,3.79701853 C333.959983,3.03172415 331.281493,2.64908269 328.220315,2.64908269 C324.276106,2.64908269 320.891201,3.50266747 318.065498,5.20986263 C315.239796,6.91705779 312.914513,9.18347255 311.089581,12.0091749 C309.264648,14.8348772 307.910686,18.0578956 307.027654,21.6783267 C306.144622,25.2987578 305.703113,28.9927195 305.703113,32.7603227 C305.703113,36.2924506 306.159339,39.7950916 307.071805,43.2683507 C307.984272,46.7416098 309.397102,49.8616093 311.310338,52.6284429 C313.223574,55.3952764 315.651875,57.6469742 318.595315,59.3836037 C321.538755,61.1202333 325.07083,61.9885351 329.191646,61.9885351 C331.605267,61.9885351 333.768662,61.7089125 335.681898,61.1496589 C337.595134,60.5904053 339.287587,59.8545563 340.759307,58.94209 C342.231027,58.0296236 343.511404,57.014152 344.600477,55.8956449 C345.68955,54.7771377 346.587285,53.6586473 347.293711,52.5401401 C348.471087,50.6563386 349.324672,48.8608671 349.854491,47.153672 C350.38431,45.4464768 350.737517,44.0630808 350.914124,43.0034424 C351.09073,42.1792792 351.561674,41.7672038 352.326968,41.7672038 C352.621312,41.7672038 352.886218,41.8702227 353.121693,42.0762635 C353.357168,42.2823043 353.451638,42.714051 353.451638,43.008395 C353.451638,43.0523611 353.40393,43.9625657 353.284661,44.9228968 C353.165393,45.8832278 352.968416,46.5972273 352.640593,48.0177915 C352.354342,49.2582134 351.507562,51.2804464 350.914126,52.5401396 Z M369.763812,55.2775256 C369.763812,57.3379335 369.999284,58.8243484 370.470234,59.7368148 C370.941185,60.6492811 371.912505,61.1055075 373.384225,61.1055075 C374.208388,61.1055075 374.7382,61.1938094 374.973675,61.3704158 C375.20915,61.5470222 375.326886,61.7824938 375.326886,62.0768378 C375.326886,62.2534442 375.223867,62.4447649 375.017826,62.6508057 C374.811786,62.8568465 374.414427,62.9598654 373.825739,62.9598654 C373.413657,62.9598654 372.883846,62.9451484 372.236289,62.915714 C371.588733,62.8862796 370.897035,62.8715626 370.161175,62.8715626 C369.425315,62.8715626 368.689466,62.8568456 367.953606,62.8274112 C367.217746,62.7979768 366.555482,62.7832599 365.966794,62.7832599 C364.789418,62.7832599 363.553192,62.8126938 362.258078,62.8715626 C360.962964,62.9304314 359.903342,62.9598654 359.079179,62.9598654 C357.842934,62.9598654 357.224821,62.6360918 357.224821,61.9885351 C357.224821,61.3998471 357.8135,61.1055075 358.990876,61.1055075 C360.344858,61.1055075 361.316179,60.6051302 361.904867,59.6043606 C362.493555,58.6035911 362.787895,56.9552894 362.787895,54.6594063 L362.787895,10.154817 C362.787895,8.80083463 362.493555,7.87366496 361.904867,7.37328017 C361.316179,6.87289538 360.58033,6.47553695 359.697298,6.18119295 C358.932004,5.88684896 358.416909,5.63666032 358.152,5.43061952 C357.88709,5.22457873 357.754637,4.97439009 357.754637,4.68004609 C357.754637,4.2679645 357.990109,3.94419097 358.461059,3.70871577 L367.203032,0.264908269 C367.909458,0.0883018735 368.409835,0 368.704179,0 C369.410605,0 369.763812,0.412075409 369.763812,1.23623859 L369.763812,55.2775256 Z M387.839805,50.9479547 C387.839805,52.2430683 387.942824,53.4351436 388.148865,54.5242163 C388.354906,55.6132891 388.72283,56.5551758 389.252649,57.3499045 C389.782468,58.1446333 390.533034,58.7774634 391.50437,59.2484138 C392.475705,59.7193642 393.726648,59.9548359 395.257237,59.9548359 C396.728957,59.9548359 398.053485,59.6752133 399.230861,59.1159597 C400.408237,58.5567061 401.438425,57.894442 402.321457,57.1291476 C403.204489,56.3638533 403.910904,55.6427213 404.440723,54.9657301 C404.970543,54.2887389 405.32375,53.8030786 405.500356,53.5087346 L405.500356,30.8149262 C405.500356,29.2843374 405.220734,28.1658471 404.66148,27.4594215 C404.102227,26.7529959 402.704114,26.3997884 400.467099,26.3997884 C399.878411,26.3997884 399.49577,26.2820526 399.319163,26.0465774 C399.142557,25.8111022 399.054255,25.5461965 399.054255,25.2518526 C399.054255,25.0752462 399.157274,24.8986424 399.363315,24.722036 C399.569356,24.5454296 399.966714,24.4571277 400.555402,24.4571277 C401.379565,24.4571277 402.468622,24.4718447 403.822604,24.5012791 C405.176586,24.5307135 406.501115,24.5454305 407.796228,24.5454305 C408.855866,24.5454305 409.591715,24.5159965 410.003797,24.4571277 C410.415879,24.3982589 410.94569,24.368825 411.593247,24.368825 C412.181935,24.368825 412.476274,24.6631646 412.476274,25.2518526 C412.535143,25.8405405 412.520426,26.7382763 412.432123,27.9450866 C412.34382,29.151897 412.299669,30.4911421 412.299669,31.962862 L412.299669,55.186487 C412.299669,55.775175 412.329103,56.2461183 412.387971,56.5993311 C412.44684,56.9525439 412.623444,57.2321665 412.917788,57.4382073 C413.212132,57.6442481 413.624207,57.8208518 414.154027,57.9680238 C414.683846,58.1151958 415.449129,58.2476486 416.449898,58.3653862 C417.568405,58.5419926 418.127651,58.9246341 418.127651,59.5133221 C418.127651,59.7487973 418.039349,59.925401 417.862742,60.0431386 C417.686136,60.1608762 417.509532,60.278612 417.332926,60.3963496 L407.884531,63.2220378 C407.41358,63.3986442 406.942637,63.4869461 406.471687,63.4869461 C405.941868,63.4869461 405.676962,63.1043047 405.676962,62.3390103 L405.676962,56.6876339 C405.441487,56.9819779 404.999977,57.5117891 404.352421,58.2770835 C403.704864,59.0423779 402.807128,59.8076608 401.659187,60.5729552 C400.511245,61.3382495 399.127849,62.0152306 397.508957,62.6039185 C395.890065,63.1926065 393.991575,63.4869461 391.813429,63.4869461 C389.517546,63.4869461 387.64849,63.1631726 386.206204,62.5156158 C384.763919,61.868059 383.645428,60.9997573 382.850699,59.9106845 C382.055971,58.8216117 381.526159,57.5706685 381.26125,56.1578173 C380.99634,54.7449662 380.863887,53.2438343 380.863887,51.6543767 L380.863887,30.903229 C380.863887,28.0775266 379.303888,26.6058287 376.183841,26.4880911 C375.359678,26.4880911 374.947603,26.1054497 374.947603,25.3401553 C374.947603,24.7514673 375.418546,24.4571277 376.360447,24.4571277 C376.831397,24.4571277 377.611397,24.4718447 378.70047,24.5012791 C379.789543,24.5307135 381.06992,24.5454305 382.54164,24.5454305 C383.719016,24.5454305 384.602034,24.5307135 385.190722,24.5012791 C385.77941,24.4718447 386.397524,24.4571277 387.04508,24.4571277 C387.692637,24.4571277 388.016411,24.7514673 388.016411,25.3401553 C388.016411,25.9288433 387.986977,26.811862 387.928108,27.989238 C387.869239,29.166614 387.839805,30.4322742 387.839805,31.7862565 L387.839805,50.9479547 Z M432.347386,55.2775256 C432.347386,57.3379335 432.582857,58.8243484 433.053808,59.7368148 C433.524758,60.6492811 434.496079,61.1055075 435.967799,61.1055075 C436.791962,61.1055075 437.321773,61.1938094 437.557248,61.3704158 C437.792723,61.5470222 437.910459,61.7824938 437.910459,62.0768378 C437.910459,62.2534442 437.80744,62.4447649 437.6014,62.6508057 C437.395359,62.8568465 436.998,62.9598654 436.409312,62.9598654 C435.997231,62.9598654 435.46742,62.9451484 434.819863,62.915714 C434.172306,62.8862796 433.480608,62.8715626 432.744748,62.8715626 C432.008888,62.8715626 431.273039,62.8568456 430.537179,62.8274112 C429.801319,62.7979768 429.139055,62.7832599 428.550367,62.7832599 C427.372991,62.7832599 426.136765,62.8126938 424.841651,62.8715626 C423.546538,62.9304314 422.486915,62.9598654 421.662752,62.9598654 C420.426507,62.9598654 419.808394,62.6360918 419.808394,61.9885351 C419.808394,61.3998471 420.397073,61.1055075 421.574449,61.1055075 C422.928432,61.1055075 423.899752,60.6051302 424.48844,59.6043606 C425.077128,58.6035911 425.371468,56.9552894 425.371468,54.6594063 L425.371468,10.154817 C425.371468,8.80083463 425.077128,7.87366496 424.48844,7.37328017 C423.899752,6.87289538 423.163903,6.47553695 422.280871,6.18119295 C421.515577,5.88684896 421.000483,5.63666032 420.735573,5.43061952 C420.470663,5.22457873 420.338211,4.97439009 420.338211,4.68004609 C420.338211,4.2679645 420.573682,3.94419097 421.044633,3.70871577 L429.786606,0.264908269 C430.493031,0.0883018735 430.993408,0 431.287752,0 C431.994178,0 432.347386,0.412075409 432.347386,1.23623859 L432.347386,55.2775256 Z M457.134388,63.5512285 C454.426423,63.5512285 451.880386,63.0655682 449.496199,62.094233 C447.112013,61.1228978 445.036919,59.7689358 443.270855,58.0323062 C441.504791,56.2956766 440.106678,54.2058656 439.076474,51.7628105 C438.04627,49.3197553 437.531176,46.6265482 437.531176,43.6831083 C437.531176,40.7396683 438.04627,38.0464612 439.076474,35.603406 C440.106678,33.1603509 441.504791,31.0705399 443.270855,29.3339103 C445.036919,27.5972808 447.112013,26.2433187 449.496199,25.2719835 C451.880386,24.3006484 454.426423,23.8149881 457.134388,23.8149881 C459.783484,23.8149881 462.300087,24.3006484 464.684274,25.2719835 C467.06846,26.2433187 469.143554,27.5972808 470.909618,29.3339103 C472.675682,31.0705399 474.073795,33.1603509 475.103999,35.603406 C476.134203,38.0464612 476.649297,40.7396683 476.649297,43.6831083 C476.649297,46.6265482 476.134203,49.3197553 475.103999,51.7628105 C474.073795,54.2058656 472.675682,56.2956766 470.909618,58.0323062 C469.143554,59.7689358 467.06846,61.1228978 464.684274,62.094233 C462.300087,63.0655682 459.783484,63.5512285 457.134388,63.5512285 L457.134388,63.5512285 Z M457.582997,61.2391152 C460.114355,61.2391152 462.160015,60.6062851 463.720038,59.340606 C465.280061,58.0749268 466.45742,56.514927 467.252148,54.6605599 C468.046877,52.8061927 468.576688,50.8635515 468.841598,48.8325779 C469.106508,46.8016044 469.23896,44.991416 469.23896,43.4019584 C469.23896,41.8125009 469.106508,39.9728785 468.841598,37.8830361 C468.576688,35.7931938 468.046877,33.8358356 467.252148,32.0109028 C466.45742,30.1859701 465.280061,28.6406873 463.720038,27.3750081 C462.160015,26.1093289 460.114355,25.4764989 457.582997,25.4764989 C454.992769,25.4764989 452.932392,26.1093289 451.401804,27.3750081 C449.871215,28.6406873 448.693857,30.1859701 447.869693,32.0109028 C447.04553,33.8358356 446.501002,35.7931938 446.236092,37.8830361 C445.971183,39.9728785 445.83873,41.8125009 445.83873,43.4019584 C445.83873,44.991416 445.971183,46.8016044 446.236092,48.8325779 C446.501002,50.8635515 447.04553,52.8061927 447.869693,54.6605599 C448.693857,56.514927 449.871215,58.0749268 451.401804,59.340606 C452.932392,60.6062851 454.992769,61.2391152 457.582997,61.2391152 L457.582997,61.2391152 Z M496.625637,62.6039185 C496.331293,63.2514753 495.948651,63.5752489 495.477701,63.5752489 C495.006751,63.5752489 494.653543,63.2514753 494.418068,62.6039185 L480.996049,31.5213483 C480.525098,30.4617099 480.113023,29.6081251 479.75981,28.9605683 C479.406597,28.3130115 479.068107,27.8273512 478.744329,27.5035728 C478.42055,27.1797945 478.08206,26.9590398 477.728847,26.8413022 C477.375634,26.7235646 476.934125,26.6352627 476.404305,26.5763939 C475.22693,26.3997875 474.63825,25.9877121 474.63825,25.3401553 C474.63825,25.2224177 474.697118,25.045814 474.814856,24.8103388 C474.932593,24.5748636 475.197499,24.4571277 475.609581,24.4571277 C475.962793,24.4571277 476.301284,24.4718447 476.625062,24.5012791 C476.948841,24.5307135 477.39035,24.5601475 477.949604,24.5895819 C478.508857,24.6190163 479.27414,24.6484502 480.245475,24.6778846 C481.216811,24.707319 482.556056,24.722036 484.263251,24.722036 C485.970446,24.722036 487.309691,24.707319 488.281026,24.6778846 C489.252361,24.6484502 490.002927,24.6337333 490.532747,24.6337333 C491.062566,24.6337333 491.474641,24.6190163 491.768985,24.5895819 C492.063329,24.5601475 492.387103,24.5454305 492.740315,24.5454305 C493.446741,24.5454305 493.799949,24.8397701 493.799949,25.4284581 C493.799949,25.6639333 493.741081,25.8994049 493.623343,26.1348801 C493.505605,26.3703553 493.064096,26.4880911 492.298802,26.4880911 C490.709344,26.4880911 489.649722,26.7529968 489.119902,27.282816 C488.590083,27.8126351 488.325178,28.4896162 488.325178,29.3137794 C488.325178,30.1379425 488.545932,31.0945462 488.987448,32.1836189 C489.428964,33.2726917 489.826323,34.2292953 490.179536,35.0534585 L498.038481,53.5970374 L506.515545,33.1991006 L505.897426,31.609651 C505.191001,29.7847183 504.425718,28.4896241 503.601554,27.7243297 C502.777391,26.9590354 501.776637,26.5469599 500.599261,26.4880911 C500.12831,26.4880911 499.760386,26.3850723 499.495476,26.1790315 C499.230567,25.9729907 499.098114,25.7228021 499.098114,25.4284581 C499.098114,25.3107205 499.156982,25.1046828 499.274719,24.8103388 C499.392457,24.5159948 499.657363,24.368825 500.069444,24.368825 C500.422657,24.368825 500.775865,24.383542 501.129077,24.4129764 C501.48229,24.4424108 501.982667,24.4865617 502.630224,24.5454305 C503.277781,24.6042993 504.116649,24.6484502 505.146853,24.6778846 C506.177057,24.707319 507.545736,24.722036 509.252931,24.722036 C510.960126,24.722036 512.299371,24.707319 513.270706,24.6778846 C514.242042,24.6484502 515.007324,24.6337333 515.566578,24.6337333 C516.125832,24.6337333 516.552624,24.6190163 516.846968,24.5895819 C517.141312,24.5601475 517.465085,24.5454305 517.818298,24.5454305 C518.23038,24.5454305 518.510002,24.6631663 518.657174,24.8986415 C518.804346,25.1341167 518.877931,25.3695884 518.877931,25.6050636 C518.877931,25.8405388 518.804346,26.0465765 518.657174,26.2231829 C518.510002,26.3997893 518.053776,26.4880911 517.288482,26.4880911 C515.699024,26.4880911 514.595251,26.7382798 513.977128,27.2386646 C513.359006,27.7390494 513.049949,28.4013134 513.049949,29.2254766 C513.049949,30.0496398 513.167685,30.8885076 513.40316,31.7421052 C513.638636,32.5957027 513.932975,33.4640045 514.286188,34.3470365 L522.145133,52.7140098 L528.76784,34.170431 C529.179922,32.993055 529.533129,31.9923004 529.827473,31.1681372 C530.121817,30.3439741 530.268987,29.5492572 530.268987,28.7839628 C530.268987,27.6654556 529.901062,27.0031916 529.165202,26.7971508 C528.429343,26.59111 527.472739,26.4880911 526.295363,26.4880911 C525.883281,26.4880911 525.618376,26.3556383 525.500638,26.0907287 C525.382901,25.8258191 525.324033,25.5756305 525.324033,25.3401553 C525.324033,25.1635489 525.397617,24.9722282 525.544789,24.7661874 C525.691961,24.5601466 525.971584,24.4571277 526.383666,24.4571277 C527.384435,24.4571277 528.38519,24.4865617 529.385959,24.5454305 C530.386729,24.6042993 531.475785,24.6337333 532.653161,24.6337333 C534.301488,24.6337333 535.478846,24.6042993 536.185272,24.5454305 C536.891697,24.4865617 537.568678,24.4571277 538.216235,24.4571277 C538.510579,24.4571277 538.731334,24.5601466 538.878506,24.7661874 C539.025678,24.9722282 539.099263,25.1929829 539.099263,25.4284581 C539.099263,25.6639333 539.010961,25.8846879 538.834354,26.0907287 C538.657748,26.2967695 538.216239,26.3997884 537.509813,26.3997884 C536.332437,26.3997884 535.434701,26.5763921 534.816579,26.9296049 C534.198457,27.2828177 533.727513,27.753761 533.403735,28.342449 C533.079956,28.931137 532.815051,29.637552 532.60901,30.4617152 C532.402969,31.2858784 532.123347,32.1983311 531.770134,33.1991006 L520.997198,62.6039185 C520.820591,63.2514753 520.467384,63.5752489 519.937564,63.5752489 C519.525483,63.5752489 519.201709,63.2514753 518.966234,62.6039185 L507.663481,36.4663026 L496.625637,62.6039185 Z" id="Hanako-Clulow" fill="#8C718C"></path>
    </g>
</svg>