<?xml version="1.0" encoding="UTF-8" standalone="no"?>
<svg width="361px" height="199px" viewBox="0 0 361 199" version="1.1" xmlns="http://www.w3.org/2000/svg" xmlns:xlink="http://www.w3.org/1999/xlink">
    <!-- Generator: Sketch 39.1 (31720) - http://www.bohemiancoding.com/sketch -->
    <title>Hanako Clulow</title>
    <desc>Created with Sketch.</desc>
    <defs></defs>
    <g id="Page-1" stroke="none" stroke-width="1" fill="none" fill-rule="evenodd">
        <path d="M10.8799999,61.864 C10.8799999,75.176 10.4959999,80.296 10.2399999,83.624 C9.98399989,86.696 7.16799989,87.848 -1.14440809e-07,87.976 L-1.14440809e-07,89.512 C3.07199989,89.384 10.3679999,89 15.6159999,89 C22.1439999,89 28.9279999,89.384 32.7679999,89.512 L32.7679999,87.976 C25.4719999,87.592 22.5279999,86.952 22.2719999,83.368 C21.8879999,79.272 21.7599999,72.488 21.7599999,61.864 L21.7599999,47.528 C25.2159999,47.4 32.5119999,47.272 40.3199999,47.272 C48.2559999,47.272 55.9359999,47.4 60.9279999,47.528 L60.9279999,62.248 C60.9279999,76.072 60.5439999,80.424 60.4159999,83.368 C60.0319999,86.568 57.3439999,87.848 50.5599999,87.976 L50.5599999,89.512 C54.0159999,89.256 61.0559999,89.128 65.7919999,89.128 C70.7839999,89.128 78.2079999,89.384 81.9199999,89.512 L82.1759999,87.976 C75.1359999,87.592 72.5759999,86.696 72.3199999,83.496 C72.0639999,79.4 71.8079999,72.36 71.8079999,61.096 L71.8079999,31.4 C71.8079999,23.08 72.1919999,17.448 72.3199999,12.84 C72.4479999,9.128 75.1359999,8.232 82.1759999,8.104 L82.1759999,6.568 C79.7439999,6.696 71.4239999,7.08 65.9199999,7.08 C62.3359999,7.08 56.0639999,6.824 50.5599999,6.568 L50.5599999,8.104 C57.3439999,8.232 60.2879999,9.128 60.5439999,12.072 C60.9279999,15.656 60.9279999,20.776 60.9279999,30.248 L60.9279999,44.84 C55.4239999,44.968 48.1279999,44.968 40.3199999,44.968 C32.6399999,44.968 25.2159999,44.968 21.7599999,44.84 L21.7599999,30.504 C21.7599999,22.696 21.8879999,16.04 22.2719999,12.712 C22.5279999,9.384 24.8319999,8.104 31.6159999,8.104 L31.6159999,6.568 C27.7759999,6.568 20.2239999,7.08 15.9999999,7.08 C9.59999989,7.08 2.94399989,6.568 0.383999886,6.568 L0.383999886,8.104 C7.55199989,8.36 10.4959999,8.872 10.6239999,12.712 C10.8799999,17.576 10.8799999,22.952 10.8799999,32.168 L10.8799999,61.864 Z M117.664,53.416 C113.184,56.616 99.9999999,60.968 91.0399999,64.68 C86.3039999,66.6 84.5119999,70.952 84.5119999,75.688 C84.5119999,84.264 89.6319999,90.664 98.9759999,90.664 C105.12,90.664 111.648,87.208 117.408,80.68 C117.664,86.184 119.456,90.664 126.112,90.664 C132.256,90.664 136.352,86.952 137.888,79.144 L136.352,78.504 C135.2,83.24 133.152,86.696 130.592,86.696 C128.928,86.696 127.264,85.928 127.264,80.296 L127.264,47.016 C127.264,44.712 126.496,42.024 125.472,40.488 C123.68,37.672 119.456,33.576 109.088,33.576 C94.6239999,33.576 87.1999999,42.024 87.1999999,47.784 C87.1999999,51.368 89.3759999,53.032 91.8079999,53.032 C93.0879999,53.032 94.4959999,52.776 95.5199999,52.008 C96.0319999,51.624 96.5439999,50.728 96.2879999,49.704 C96.1599999,48.68 95.7759999,47.144 95.7759999,45.608 C95.7759999,39.976 99.1039999,35.496 107.296,35.496 C114.848,35.496 117.664,41 117.664,47.016 L117.664,53.416 Z M95.5199999,74.024 C95.5199999,66.856 98.8479999,64.68 101.92,63.016 C106.528,60.584 114.08,57.512 117.664,55.464 L117.664,71.592 C117.536,73 117.28,75.432 116.896,76.712 C115.104,81.448 111.52,86.056 104.48,86.056 C98.7199999,86.056 95.5199999,80.552 95.5199999,74.152 L95.5199999,74.024 Z M137.024,89.512 C140.352,89.512 144.576,89 149.44,89 C153.152,89 159.296,89.512 162.112,89.512 L162.368,87.976 C156.352,87.72 155.328,87.08 155.072,84.648 C154.816,81.832 154.688,76.328 154.688,69.928 L154.688,52.392 C154.688,49.704 154.944,48.424 155.968,46.504 C158.656,41.256 163.264,37.928 169.792,37.928 C174.4,37.928 177.216,39.72 178.88,43.176 C179.904,45.352 180.16,46.504 180.16,64.04 C180.16,76.072 179.776,81.704 179.52,84.648 C179.264,86.952 177.984,87.72 172.736,87.976 L172.608,89.512 C175.296,89.512 179.52,89 184.512,89 C189.248,89 193.856,89.512 197.056,89.512 L197.312,87.976 C190.784,87.464 190.016,87.208 190.016,84.52 L190.016,48.04 C190.016,45.224 189.504,43.048 188.48,40.872 C186.944,37.544 182.72,33.576 174.656,33.576 C165.696,33.576 159.296,39.336 154.816,44.072 C154.688,41.768 154.432,37.032 154.304,34.088 C149.184,35.24 143.04,35.88 137.664,35.88 L137.408,37.288 C143.552,37.288 144.32,37.544 144.448,39.336 C144.576,42.536 144.832,48.04 144.832,55.208 L144.832,69.672 C144.832,76.84 144.576,80.424 144.32,84.264 C144.192,87.464 142.912,87.72 137.024,87.976 L137.024,89.512 Z M234.208,53.416 C229.728,56.616 216.544,60.968 207.584,64.68 C202.848,66.6 201.056,70.952 201.056,75.688 C201.056,84.264 206.176,90.664 215.52,90.664 C221.664,90.664 228.192,87.208 233.952,80.68 C234.208,86.184 236,90.664 242.656,90.664 C248.8,90.664 252.896,86.952 254.432,79.144 L252.896,78.504 C251.744,83.24 249.696,86.696 247.136,86.696 C245.472,86.696 243.808,85.928 243.808,80.296 L243.808,47.016 C243.808,44.712 243.04,42.024 242.016,40.488 C240.224,37.672 236,33.576 225.632,33.576 C211.168,33.576 203.744,42.024 203.744,47.784 C203.744,51.368 205.92,53.032 208.352,53.032 C209.632,53.032 211.04,52.776 212.064,52.008 C212.576,51.624 213.088,50.728 212.832,49.704 C212.704,48.68 212.32,47.144 212.32,45.608 C212.32,39.976 215.648,35.496 223.84,35.496 C231.392,35.496 234.208,41 234.208,47.016 L234.208,53.416 Z M212.064,74.024 C212.064,66.856 215.392,64.68 218.464,63.016 C223.072,60.584 230.624,57.512 234.208,55.464 L234.208,71.592 C234.08,73 233.824,75.432 233.44,76.712 C231.648,81.448 228.064,86.056 221.024,86.056 C215.264,86.056 212.064,80.552 212.064,74.152 L212.064,74.024 Z M253.184,2.984 L257.664,3.112 C259.584,3.24 260.352,3.88 260.352,5.032 C260.608,9.128 260.608,15.912 260.608,29.48 L260.608,60.072 C260.608,72.872 260.224,82.344 259.84,84.776 C259.584,86.952 258.688,87.72 252.928,87.976 L252.8,89.512 C255.616,89.512 258.944,89 264.192,89 C269.952,89 274.688,89.512 277.888,89.512 L278.144,87.976 C272.128,87.72 270.976,87.336 270.848,84.648 C270.464,77.864 270.464,69.928 270.464,61.352 C271.872,60.968 272.64,61.352 273.536,62.76 C275.84,66.088 289.408,83.752 294.016,90.792 C297.984,90.024 306.944,89.384 312.192,89.384 L312.576,87.976 L308.352,87.976 C306.816,87.848 305.664,87.592 303.872,86.056 C300.288,82.344 286.72,64.04 280.064,54.952 C284.8,50.088 292.48,42.664 295.68,39.72 C298.24,37.288 301.312,36.136 307.328,35.624 L307.2,34.216 C299.904,34.728 290.688,35.24 285.312,35.24 L285.056,36.648 L290.816,37.16 C292.224,37.288 292.608,37.928 291.84,39.08 C288.128,44.968 275.328,58.92 270.464,59.688 L270.464,31.912 C270.464,20.264 270.848,6.056 271.104,0.04 C267.008,0.808 259.328,1.448 253.312,1.576 L253.184,2.984 Z M334.88,33.576 C317.216,33.576 307.744,46.632 307.744,62.76 C307.744,78.76 316.832,90.664 334.112,90.664 C350.496,90.664 360.864,79.656 360.864,61.48 C360.864,45.224 351.392,33.576 335.008,33.576 L334.88,33.576 Z M334.368,35.496 C340.256,35.496 343.968,38.696 346.4,43.432 C348.448,47.528 349.728,54.824 349.728,62.632 C349.728,70.824 348.448,77.352 346.784,81.192 C344.224,86.696 340.512,88.872 335.264,88.872 C329.632,88.872 325.024,85.8 322.336,80.296 C320.288,75.816 319.008,68.52 319.008,61.096 C319.008,53.672 320.16,47.016 322.464,42.664 C325.152,38.056 328.864,35.496 334.24,35.496 L334.368,35.496 Z M88.5119999,139.68 C88.2559999,133.664 88.5119999,121.504 89.7919999,113.696 L88.5119999,113.056 L86.3359999,120.096 C82.3679999,115.616 74.5599999,111.904 63.2959999,111.904 C51.2639999,111.904 42.6879999,115.36 35.9039999,122.144 C28.0959999,129.312 22.8479999,140.704 22.8479999,156.192 C22.8479999,167.456 25.6639999,177.952 30.7839999,184.736 C37.3119999,194.208 47.6799999,198.304 60.2239999,198.304 C76.6079999,198.304 88.2559999,189.344 91.8399999,174.88 L90.4319999,173.856 C86.2079999,187.68 77.5039999,194.08 64.4479999,194.08 C54.7199999,194.08 46.9119999,190.496 41.6639999,181.664 C37.4399999,174.88 35.3919999,165.408 35.3919999,154.4 C35.3919999,140.96 38.7199999,129.952 44.6079999,122.784 C49.3439999,116.896 55.6159999,113.952 63.9359999,113.952 C79.8079999,113.952 86.3359999,126.368 86.9759999,140.064 L88.5119999,139.68 Z M94.1759999,109.984 C100.448,109.984 101.344,110.368 101.6,112.288 C101.728,115.488 101.856,118.944 101.856,133.792 L101.856,166.048 C101.856,178.464 101.344,188.832 101.216,191.264 C100.96,194.08 99.9359999,194.72 94.0479999,194.976 L94.0479999,196.512 C96.4799999,196.512 100.832,196 106.208,196 C110.56,196 115.552,196.512 119.008,196.512 L119.392,194.976 C113.376,194.72 112.224,194.336 111.968,191.52 C111.84,188.576 111.712,182.432 111.712,167.2 L111.712,136.352 C111.712,122.4 112.096,112.8 112.352,107.04 C108,107.68 100.96,108.576 94.3039999,108.576 L94.1759999,109.984 Z M153.984,143.648 C160.384,143.648 161.92,143.904 162.176,145.568 C162.432,148.128 162.56,151.968 162.56,159.52 L162.56,174.496 C162.56,177.184 162.432,179.104 161.28,181.792 C158.464,188.576 152.192,193.696 144.128,193.696 C140.544,193.696 138.368,191.904 137.728,188.832 C137.088,185.76 136.96,180.256 136.96,167.84 C136.96,153.632 137.472,144.416 137.984,140.832 C136.576,141.088 133.888,141.344 130.56,141.6 C127.232,141.856 123.52,141.984 119.808,141.984 L119.424,143.392 C125.184,143.392 126.72,143.52 126.848,145.312 C126.976,147.104 127.104,149.664 127.104,155.424 C127.104,166.176 126.72,178.72 126.72,185.504 C126.72,188.32 127.232,191.008 128.256,192.544 C129.408,194.848 132.736,197.664 139.776,197.664 C150.144,197.664 158.848,190.112 162.432,185.12 C162.176,188.32 162.432,194.336 162.176,197.792 C164.608,197.28 167.936,196.896 171.264,196.64 C174.848,196.384 177.92,196.128 180.48,196 L180.864,194.336 C173.952,194.464 173.312,194.08 172.928,192.032 C172.672,189.088 172.416,183.84 172.416,174.88 L172.416,159.776 C172.416,151.712 172.672,145.056 172.928,141.088 C171.648,141.216 169.472,141.6 166.016,141.856 C162.816,141.984 157.312,142.112 153.728,142.112 L153.984,143.648 Z M181.024,109.984 C187.296,109.984 188.192,110.368 188.448,112.288 C188.576,115.488 188.704,118.944 188.704,133.792 L188.704,166.048 C188.704,178.464 188.192,188.832 188.064,191.264 C187.808,194.08 186.784,194.72 180.896,194.976 L180.896,196.512 C183.328,196.512 187.68,196 193.056,196 C197.408,196 202.4,196.512 205.856,196.512 L206.24,194.976 C200.224,194.72 199.072,194.336 198.816,191.52 C198.688,188.576 198.56,182.432 198.56,167.2 L198.56,136.352 C198.56,122.4 198.944,112.8 199.2,107.04 C194.848,107.68 187.808,108.576 181.152,108.576 L181.024,109.984 Z M235.84,140.576 C218.176,140.576 208.704,153.632 208.704,169.76 C208.704,185.76 217.792,197.664 235.072,197.664 C251.456,197.664 261.824,186.656 261.824,168.48 C261.824,152.224 252.352,140.576 235.968,140.576 L235.84,140.576 Z M235.328,142.496 C241.216,142.496 244.928,145.696 247.36,150.432 C249.408,154.528 250.688,161.824 250.688,169.632 C250.688,177.824 249.408,184.352 247.744,188.192 C245.184,193.696 241.472,195.872 236.224,195.872 C230.592,195.872 225.984,192.8 223.296,187.296 C221.248,182.816 219.968,175.52 219.968,168.096 C219.968,160.672 221.12,154.016 223.424,149.664 C226.112,145.056 229.824,142.496 235.2,142.496 L235.328,142.496 Z M261.088,143.392 C266.464,143.776 267.616,144.16 269.152,148.256 C272.864,157.472 282.336,186.144 285.792,197.152 C287.2,197.28 288.608,197.28 290.144,197.664 C293.728,186.016 299.36,170.4 304.096,155.168 C309.088,169.76 316.256,189.472 318.816,197.664 C320.352,197.408 321.504,197.152 323.168,197.152 C327.904,181.664 336.096,158.112 339.296,150.304 C341.6,144.544 343.136,143.904 349.024,143.264 L348.896,141.856 C346.976,141.856 343.776,142.24 339.424,142.24 C335.712,142.24 331.744,141.856 328.672,141.856 L328.416,143.392 L333.92,144.16 C336.352,144.416 336.992,144.928 336.48,146.976 C335.2,153.632 330.208,169.504 324.832,185.12 C320.864,173.344 312.16,149.536 309.984,141.856 C307.936,142.112 307.296,142.24 305.376,142.112 C301.792,154.272 295.904,173.856 292.064,184.864 C288.096,171.808 282.72,157.472 279.904,146.848 C279.392,144.8 279.52,144.16 281.952,144.032 L286.56,143.392 L286.176,141.856 C281.952,141.984 277.344,142.24 272.992,142.24 C267.616,142.24 263.904,141.984 261.216,141.856 L261.088,143.392 Z" id="Hanako-Clulow" fill="#8C718C"></path>
    </g>
</svg>