<?xml version="1.0" encoding="UTF-8" standalone="no"?>
<svg width="468px" height="245px" viewBox="0 0 468 245" version="1.1" xmlns="http://www.w3.org/2000/svg" xmlns:xlink="http://www.w3.org/1999/xlink">
    <!-- Generator: Sketch 3.7.2 (28276) - http://www.bohemiancoding.com/sketch -->
    <title>Group</title>
    <desc>Created with Sketch.</desc>
    <defs></defs>
    <g id="Page-1" stroke="none" stroke-width="1" fill="none" fill-rule="evenodd">
        <g id="Group" transform="translate(-172.000000, -290.000000)">
            <circle id="Oval-1" cx="404" cy="404" r="404"></circle>
            <path d="M251.143133,338.588905 C252.32218,338.588905 253.181889,338.3924 253.722285,337.999385 C254.262682,337.606369 254.532876,336.82035 254.532876,335.641303 L254.532876,315.597604 C254.532876,312.551733 254.360934,309.948043 254.017045,307.786457 C253.673157,305.624871 253.009953,303.856327 252.027414,302.480772 C251.044874,301.105217 249.644777,300.049004 247.82708,299.312099 C246.009382,298.575195 243.577634,298.108496 240.531763,297.911988 C239.94224,297.911988 239.500104,297.641794 239.205342,297.101397 C238.91058,296.561001 238.763201,295.996049 238.763201,295.406526 C238.763201,294.817002 238.91058,294.276614 239.205342,293.785344 C239.500104,293.294075 239.94224,293.048443 240.531763,293.048443 C243.675888,293.048443 247.262102,293.195822 251.290513,293.490584 C255.318923,293.785346 259.101642,293.932724 262.638783,293.932724 C264.702116,293.932724 266.642601,293.883598 268.460299,293.785344 C270.277996,293.68709 272.04654,293.588838 273.765984,293.490584 C275.485427,293.39233 277.229408,293.294077 278.997978,293.195824 C280.766549,293.09757 282.682471,293.048443 284.745804,293.048443 C285.335327,293.048443 285.7529,293.294075 285.998535,293.785344 C286.24417,294.276614 286.342422,294.817002 286.293295,295.406526 C286.244168,295.996049 286.072226,296.561001 285.777465,297.101397 C285.482703,297.641794 285.089693,297.911988 284.598423,297.911988 C281.552552,298.108496 279.096241,298.526069 277.229417,299.164719 C275.362592,299.803369 273.937932,300.785894 272.955393,302.112322 C271.972854,303.43875 271.334213,305.18273 271.039451,307.344317 C270.744689,309.505903 270.597311,312.256971 270.597311,315.597604 L270.597311,373.370617 C270.597311,376.612996 270.793816,379.142997 271.186831,380.960694 C271.579847,382.778392 272.292177,384.203052 273.323843,385.234718 C274.355509,386.266384 275.804733,387.003278 277.671557,387.44542 C279.538382,387.887563 281.945566,388.256009 284.893184,388.550771 C285.482707,388.649025 285.949406,388.943782 286.293295,389.435052 C286.637184,389.926322 286.809126,390.46671 286.809126,391.056233 C286.809126,391.645757 286.637184,392.186145 286.293295,392.677415 C285.949406,393.168685 285.433581,393.414316 284.745804,393.414316 C280.815647,393.414316 277.057491,393.217811 273.471223,392.824795 C269.884955,392.431779 266.323304,392.235275 262.786163,392.235275 C259.052515,392.235275 255.196106,392.431779 251.216823,392.824795 C247.237539,393.217811 243.626762,393.414316 240.384383,393.414316 C239.794859,393.414316 239.352723,393.168685 239.057962,392.677415 C238.7632,392.186145 238.615821,391.645757 238.615821,391.056233 C238.615821,390.46671 238.7632,389.926322 239.057962,389.435052 C239.352723,388.943782 239.794859,388.649025 240.384383,388.550771 C243.430254,388.256009 245.862002,387.887563 247.6797,387.44542 C249.497397,387.003278 250.922057,386.266384 251.953723,385.234718 C252.98539,384.203052 253.673157,382.778392 254.017045,380.960694 C254.360934,379.142997 254.532876,376.612996 254.532876,373.370617 L254.532876,348.905515 C254.532876,346.350913 253.452099,345.073631 251.290513,345.073631 L207.223852,345.073631 C205.062266,345.073631 203.981489,346.056156 203.981489,348.021234 L203.981489,373.370617 C203.981489,376.612996 204.177994,379.142997 204.57101,380.960694 C204.964026,382.778392 205.676356,384.203052 206.708022,385.234718 C207.739688,386.266384 209.188912,387.003278 211.055736,387.44542 C212.92256,387.887563 215.329745,388.256009 218.277363,388.550771 C218.866886,388.649025 219.333585,388.943782 219.677474,389.435052 C220.021363,389.926322 220.193304,390.46671 220.193304,391.056233 C220.193304,391.645757 220.021363,392.186145 219.677474,392.677415 C219.333585,393.168685 218.81776,393.414316 218.129982,393.414316 C214.199826,393.414316 210.44167,393.217811 206.855402,392.824795 C203.269134,392.431779 199.707483,392.235275 196.170342,392.235275 C192.436693,392.235275 188.580285,392.431779 184.601002,392.824795 C180.621718,393.217811 177.010941,393.414316 173.768562,393.414316 C173.179038,393.414316 172.736902,393.168685 172.44214,392.677415 C172.147379,392.186145 172,391.645757 172,391.056233 C172,390.46671 172.147379,389.926322 172.44214,389.435052 C172.736902,388.943782 173.179038,388.649025 173.768562,388.550771 C176.814433,388.256009 179.246181,387.887563 181.063878,387.44542 C182.881576,387.003278 184.306236,386.266384 185.337902,385.234718 C186.369568,384.203052 187.057335,382.778392 187.401224,380.960694 C187.745113,379.142997 187.917055,376.612996 187.917055,373.370617 L187.917055,315.597604 C187.917055,312.551733 187.745113,309.948043 187.401224,307.786457 C187.057335,305.624871 186.394131,303.856327 185.411592,302.480772 C184.429053,301.105217 183.028956,300.049004 181.211258,299.312099 C179.393561,298.575195 176.961813,298.108496 173.915942,297.911988 C173.326418,297.911988 172.884282,297.641794 172.589521,297.101397 C172.294759,296.561001 172.14738,295.996049 172.14738,295.406526 C172.14738,294.817002 172.294759,294.276614 172.589521,293.785344 C172.884282,293.294075 173.326418,293.048443 173.915942,293.048443 C177.060067,293.048443 180.646281,293.195822 184.674692,293.490584 C188.703102,293.785346 192.485821,293.932724 196.022962,293.932724 C198.086294,293.932724 200.02678,293.883598 201.844477,293.785344 C203.662175,293.68709 205.430719,293.588838 207.150162,293.490584 C208.869606,293.39233 210.613587,293.294077 212.382157,293.195824 C214.150728,293.09757 216.06665,293.048443 218.129982,293.048443 C218.719506,293.048443 219.137079,293.294075 219.382714,293.785344 C219.628348,294.276614 219.726601,294.817002 219.677474,295.406526 C219.628347,295.996049 219.456405,296.561001 219.161643,297.101397 C218.866882,297.641794 218.473872,297.911988 217.982602,297.911988 C214.936731,298.108496 212.48042,298.526069 210.613595,299.164719 C208.746771,299.803369 207.322111,300.785894 206.339572,302.112322 C205.357032,303.43875 204.718392,305.18273 204.42363,307.344317 C204.128868,309.505903 203.981489,312.256971 203.981489,315.597604 L203.981489,335.641303 C203.981489,337.606381 205.062266,338.588905 207.223852,338.588905 L251.143133,338.588905 Z M328.207391,362.022347 C328.207391,360.941554 328.158265,360.27835 328.060011,360.032715 C327.961757,359.78708 327.716126,359.664265 327.323111,359.664265 C319.26629,360.352042 313.297454,362.046897 309.416424,364.748879 C305.535394,367.450862 303.594909,370.914261 303.594909,375.139179 C303.594909,378.086796 304.331802,380.56767 305.805611,382.581876 C307.27942,384.596081 309.735731,385.603168 313.174618,385.603168 C315.434458,385.603168 317.817079,385.161033 320.322554,384.276747 C322.828029,383.392462 325.063272,382.11518 327.02835,380.444864 C327.814382,379.658832 328.207391,378.872813 328.207391,378.086782 L328.207391,362.022347 Z M342.061124,376.61298 C342.061124,380.051867 342.380445,382.459052 343.019095,383.834607 C343.657745,385.210162 344.910464,385.897929 346.777288,385.897929 C347.858082,385.897929 348.742353,385.775113 349.430131,385.529478 C350.117908,385.283844 351.100433,384.768018 352.377734,383.981987 C352.672495,383.785479 352.991816,383.785479 353.335704,383.981987 C353.679593,384.178495 353.974351,384.448689 354.219985,384.792578 C354.46562,385.136466 354.637562,385.529476 354.735816,385.971619 C354.83407,386.413761 354.735817,386.782208 354.441055,387.07697 C350.609153,391.694904 346.089541,394.003836 340.882083,394.003836 C338.032719,394.003836 335.600972,393.24238 333.586766,391.719444 C331.572561,390.196508 330.074211,388.403401 329.091672,386.340069 C328.895164,385.8488 328.600407,385.799673 328.207391,386.192689 C325.65279,388.452529 322.680653,390.319325 319.290893,391.793134 C315.901133,393.266943 311.651715,394.003836 306.542511,394.003836 C300.942038,394.003836 296.618931,392.505486 293.57306,389.508742 C290.527188,386.511998 289.004275,382.26258 289.004275,376.76036 C289.004275,369.686078 292.295732,364.257631 298.878744,360.474855 C305.461757,356.69208 315.04137,354.80072 327.617871,354.80072 C327.814379,354.80072 327.961757,354.555089 328.060011,354.063819 C328.158265,353.57255 328.207391,352.442647 328.207391,350.674076 L328.207391,346.694813 C328.207391,344.238465 328.010886,341.929532 327.617871,339.767946 C327.224855,337.60636 326.561651,335.715001 325.628239,334.093811 C324.694827,332.472622 323.392982,331.19534 321.722665,330.261928 C320.052349,329.328515 317.989048,328.861816 315.5327,328.861816 C311.897305,328.861816 308.949732,329.574147 306.689892,330.998828 C304.430052,332.42351 303.300148,334.265743 303.300148,336.525583 C303.300148,337.606376 303.644032,338.66259 304.331809,339.694256 C305.019587,340.725922 305.36347,341.782136 305.36347,342.862929 C305.36347,344.238484 304.675703,345.564892 303.300148,346.842193 C301.924594,348.119494 300.254302,348.758135 298.289224,348.758135 C295.636368,348.758135 293.745009,348.045804 292.615089,346.621123 C291.485169,345.196441 290.920217,343.45246 290.920217,341.389128 C290.920217,338.93278 291.607984,336.599284 292.983539,334.388571 C294.359094,332.177858 296.22589,330.286499 298.583984,328.714436 C300.942078,327.142374 303.693146,325.889655 306.837272,324.956243 C309.981397,324.022831 313.272854,323.556131 316.711741,323.556131 C324.572054,323.556131 330.761958,325.373802 335.281638,329.009196 C339.801318,332.644591 342.061124,338.687116 342.061124,347.136953 L342.061124,376.61298 Z M377.711565,374.697038 C377.711565,377.153386 377.760691,379.216688 377.858945,380.887004 C377.957199,382.557321 378.227393,383.932855 378.669536,385.013648 C379.111678,386.094441 379.848571,386.929587 380.880238,387.51911 C381.911904,388.108634 383.361127,388.55077 385.227952,388.845531 C385.817475,388.943785 386.259611,389.21398 386.554373,389.656122 C386.849135,390.098265 386.996513,390.61409 386.996513,391.203614 C386.996513,391.694883 386.849135,392.161582 386.554373,392.603725 C386.259611,393.045868 385.817475,393.266936 385.227952,393.266936 C384.245412,393.266936 382.403179,393.094994 379.701197,392.751105 C376.999214,392.407216 374.174456,392.235275 371.226839,392.235275 C368.082713,392.235275 365.036888,392.407216 362.08927,392.751105 C359.141653,393.094994 356.390585,393.266936 353.835983,393.266936 C353.344713,393.266936 352.951703,393.045868 352.656942,392.603725 C352.36218,392.161582 352.214801,391.694883 352.214801,391.203614 C352.214801,390.61409 352.36218,390.098265 352.656942,389.656122 C352.951703,389.21398 353.393839,388.943785 353.983363,388.845531 C356.439711,388.55077 358.33107,388.15776 359.657498,387.66649 C360.983926,387.175221 361.96645,386.438327 362.605101,385.455788 C363.243751,384.473249 363.612198,383.195967 363.710452,381.623905 C363.808706,380.051842 363.857832,378.037667 363.857832,375.581319 L363.857832,357.011422 C363.857832,352.19698 363.808706,348.193193 363.710452,344.999941 C363.612198,341.806689 363.268314,339.276689 362.678791,337.409864 C362.089267,335.54304 361.155869,334.241195 359.878568,333.504291 C358.601267,332.767386 356.783597,332.39894 354.425503,332.39894 C353.83598,332.39894 353.369281,332.202435 353.025392,331.809419 C352.681503,331.416403 352.509562,330.974267 352.509562,330.482998 C352.509562,329.893474 352.681503,329.402212 353.025392,329.009196 C353.369281,328.616181 353.83598,328.419676 354.425503,328.419676 C356.292328,328.419676 359.018833,328.124919 362.605101,327.535395 C366.191369,326.945872 369.851272,326.110726 373.584921,325.029933 C374.960476,324.636917 375.992126,324.907111 376.679904,325.840524 C377.367681,326.773936 377.711565,327.830149 377.711565,329.009196 L377.711565,334.904402 C377.711565,335.10091 377.785254,335.223725 377.932635,335.272852 C378.080016,335.321979 378.202831,335.24829 378.301085,335.051782 C378.988863,333.970989 379.946824,332.767397 381.174998,331.440969 C382.403172,330.114541 383.876958,328.861822 385.596402,327.682775 C387.315845,326.503728 389.256331,325.521204 391.417917,324.735173 C393.579503,323.949141 395.986688,323.556131 398.639544,323.556131 C406.008588,323.556131 411.780918,325.59487 415.95671,329.672407 C420.132501,333.749945 422.220366,340.357421 422.220366,349.495035 L422.220366,374.697038 C422.220366,377.349894 422.294055,379.511448 422.441436,381.181764 C422.588817,382.852081 422.9327,384.203052 423.473097,385.234718 C424.013493,386.266384 424.848639,387.052404 425.978559,387.5928 C427.108479,388.133197 428.705081,388.55077 430.768413,388.845531 C431.357937,388.943785 431.800073,389.21398 432.094835,389.656122 C432.389596,390.098265 432.536975,390.61409 432.536975,391.203614 C432.536975,391.694883 432.389596,392.161582 432.094835,392.603725 C431.800073,393.045868 431.357937,393.266936 430.768413,393.266936 C429.491113,393.266936 427.403248,393.094994 424.504758,392.751105 C421.606267,392.407216 418.683257,392.235275 415.73564,392.235275 C412.591514,392.235275 409.594815,392.407216 406.745451,392.751105 C403.896088,393.094994 401.538029,393.266936 399.671205,393.266936 C399.179935,393.266936 398.786926,393.045868 398.492164,392.603725 C398.197402,392.161582 398.050023,391.694883 398.050023,391.203614 C398.050023,390.61409 398.197402,390.098265 398.492164,389.656122 C398.786926,389.21398 399.229062,388.943785 399.818585,388.845531 C401.980171,388.55077 403.6259,388.108634 404.75582,387.51911 C405.88574,386.929587 406.720885,386.119004 407.261282,385.087338 C407.801678,384.055672 408.120999,382.77839 408.219253,381.255454 C408.317507,379.732519 408.366633,377.841159 408.366633,375.581319 L408.366633,353.179539 C408.366633,350.723191 408.26838,348.26688 408.071873,345.810532 C407.875365,343.354184 407.334976,341.143504 406.450691,339.178426 C405.566406,337.213348 404.289124,335.592182 402.618808,334.314881 C400.948491,333.03758 398.639559,332.39894 395.691941,332.39894 C392.744324,332.39894 390.165197,332.865639 387.954484,333.799051 C385.743771,334.732463 383.876975,335.985182 382.354039,337.557244 C380.831103,339.129307 379.676637,340.97154 378.890606,343.083999 C378.104574,345.196459 377.711565,347.431702 377.711565,349.789796 L377.711565,374.697038 Z M473.230001,362.022347 C473.230001,360.941554 473.180875,360.27835 473.082621,360.032715 C472.984367,359.78708 472.738736,359.664265 472.34572,359.664265 C464.288899,360.352042 458.320064,362.046897 454.439034,364.748879 C450.558004,367.450862 448.617519,370.914261 448.617519,375.139179 C448.617519,378.086796 449.354412,380.56767 450.828221,382.581876 C452.302029,384.596081 454.75834,385.603168 458.197227,385.603168 C460.457067,385.603168 462.839689,385.161033 465.345164,384.276747 C467.850639,383.392462 470.085882,382.11518 472.05096,380.444864 C472.836991,379.658832 473.230001,378.872813 473.230001,378.086782 L473.230001,362.022347 Z M487.083734,376.61298 C487.083734,380.051867 487.403054,382.459052 488.041705,383.834607 C488.680355,385.210162 489.933074,385.897929 491.799898,385.897929 C492.880691,385.897929 493.764963,385.775113 494.452741,385.529478 C495.140518,385.283844 496.123043,384.768018 497.400343,383.981987 C497.695105,383.785479 498.014426,383.785479 498.358314,383.981987 C498.702203,384.178495 498.99696,384.448689 499.242595,384.792578 C499.48823,385.136466 499.660172,385.529476 499.758426,385.971619 C499.856679,386.413761 499.758427,386.782208 499.463665,387.07697 C495.631763,391.694904 491.11215,394.003836 485.904693,394.003836 C483.055329,394.003836 480.623581,393.24238 478.609376,391.719444 C476.595171,390.196508 475.096821,388.403401 474.114282,386.340069 C473.917774,385.8488 473.623017,385.799673 473.230001,386.192689 C470.675399,388.452529 467.703263,390.319325 464.313503,391.793134 C460.923743,393.266943 456.674325,394.003836 451.565121,394.003836 C445.964648,394.003836 441.641541,392.505486 438.595669,389.508742 C435.549798,386.511998 434.026885,382.26258 434.026885,376.76036 C434.026885,369.686078 437.318342,364.257631 443.901354,360.474855 C450.484367,356.69208 460.06398,354.80072 472.640481,354.80072 C472.836988,354.80072 472.984367,354.555089 473.082621,354.063819 C473.180875,353.57255 473.230001,352.442647 473.230001,350.674076 L473.230001,346.694813 C473.230001,344.238465 473.033496,341.929532 472.640481,339.767946 C472.247465,337.60636 471.584261,335.715001 470.650849,334.093811 C469.717437,332.472622 468.415592,331.19534 466.745275,330.261928 C465.074959,329.328515 463.011657,328.861816 460.55531,328.861816 C456.919915,328.861816 453.972341,329.574147 451.712501,330.998828 C449.452661,332.42351 448.322758,334.265743 448.322758,336.525583 C448.322758,337.606376 448.666642,338.66259 449.354419,339.694256 C450.042197,340.725922 450.38608,341.782136 450.38608,342.862929 C450.38608,344.238484 449.698313,345.564892 448.322758,346.842193 C446.947203,348.119494 445.276912,348.758135 443.311834,348.758135 C440.658978,348.758135 438.767619,348.045804 437.637698,346.621123 C436.507778,345.196441 435.942827,343.45246 435.942827,341.389128 C435.942827,338.93278 436.630594,336.599284 438.006149,334.388571 C439.381704,332.177858 441.2485,330.286499 443.606594,328.714436 C445.964688,327.142374 448.715756,325.889655 451.859882,324.956243 C455.004007,324.022831 458.295464,323.556131 461.734351,323.556131 C469.594664,323.556131 475.784568,325.373802 480.304248,329.009196 C484.823928,332.644591 487.083734,338.687116 487.083734,347.136953 L487.083734,376.61298 Z M573.464602,393.266936 C571.892539,393.168682 570.295937,393.070429 568.674748,392.972175 C567.053558,392.873921 565.358703,392.824795 563.590133,392.824795 C561.625055,392.824795 559.684569,392.898484 557.768618,393.045865 C555.852666,393.193246 554.059559,393.266936 552.389243,393.266936 C551.701465,393.266936 551.210203,393.021304 550.915441,392.530035 C550.62068,392.038765 550.424175,391.596629 550.325921,391.203614 C549.539889,387.076949 548.238045,383.220541 546.420347,379.634273 C544.60265,376.048005 542.514785,372.879364 540.156691,370.128254 C537.798597,367.377145 535.268597,365.215591 532.566614,363.643528 C529.864632,362.071466 527.187253,361.285446 524.534397,361.285446 L524.534397,372.781097 C524.534397,375.63046 524.583523,377.988519 524.681777,379.855343 C524.780031,381.722168 525.099352,383.24508 525.639748,384.424127 C526.180145,385.603174 527.039853,386.536573 528.2189,387.22435 C529.397947,387.912127 531.117365,388.452516 533.377205,388.845531 C533.966729,388.943785 534.408865,389.238543 534.703626,389.729812 C534.998388,390.221082 535.145767,390.712344 535.145767,391.203614 C535.145767,391.694883 534.998388,392.161582 534.703626,392.603725 C534.408865,393.045868 533.966729,393.266936 533.377205,393.266936 C530.626096,393.266936 528.120658,393.094994 525.860818,392.751105 C523.600978,392.407216 520.997289,392.235275 518.049671,392.235275 C514.905546,392.235275 511.810594,392.407216 508.764723,392.751105 C505.718851,393.094994 502.623899,393.266936 499.479774,393.266936 C498.988504,393.266936 498.595495,393.045868 498.300733,392.603725 C498.005971,392.161582 497.858593,391.694883 497.858593,391.203614 C497.858593,390.61409 498.005971,390.098265 498.300733,389.656122 C498.595495,389.21398 499.037631,388.943785 499.627154,388.845531 C502.378264,388.55077 504.515254,388.108634 506.03819,387.51911 C507.561126,386.929587 508.666466,386.119004 509.354243,385.087338 C510.042021,384.055672 510.43503,382.77839 510.533284,381.255454 C510.631538,379.732519 510.680664,377.841159 510.680664,375.581319 L510.680664,317.660926 C510.680664,313.436008 510.582412,310.070862 510.385904,307.565387 C510.189396,305.059912 509.649008,303.119426 508.764723,301.743871 C507.880437,300.368317 506.554029,299.434918 504.785459,298.943649 C503.016888,298.452379 500.560577,298.059369 497.416452,297.764608 C496.925183,297.764608 496.556736,297.518977 496.311101,297.027707 C496.065466,296.536437 495.918088,296.045175 495.868961,295.553906 C495.819834,295.062636 495.918086,294.571374 496.163721,294.080104 C496.409356,293.588835 496.826929,293.343204 497.416452,293.343204 C500.953593,293.146696 504.859128,292.851939 509.133173,292.458923 C513.407218,292.065907 517.361879,291.329014 520.997274,290.248221 C522.372829,289.855205 523.281664,289.928895 523.723806,290.469291 C524.165949,291.009688 524.436143,291.574639 524.534397,292.164163 L524.534397,354.9481 C526.401221,353.769053 528.169765,352.442645 529.840082,350.968837 C531.510399,349.495028 533.033311,347.972115 534.408866,346.400052 C535.784421,344.82799 537.061703,343.305077 538.24075,341.831268 C539.419797,340.35746 540.451447,339.080178 541.335733,337.999385 C543.300811,335.444783 544.16052,333.60255 543.914885,332.47263 C543.66925,331.34271 541.974395,330.679506 538.83027,330.482998 C538.339001,330.482998 537.945991,330.237367 537.651229,329.746097 C537.356467,329.254828 537.209089,328.763565 537.209089,328.272296 C537.209089,327.682772 537.356467,327.166947 537.651229,326.724804 C537.945991,326.282662 538.339001,326.061594 538.83027,326.061594 C540.402333,326.061594 541.753304,326.11072 542.883224,326.208974 C544.013144,326.307228 545.044795,326.430043 545.978207,326.577424 C546.911619,326.724805 547.820454,326.847621 548.704739,326.945875 C549.589025,327.044128 550.620675,327.093255 551.799722,327.093255 C554.059562,327.093255 556.368495,326.921313 558.726589,326.577424 C561.084682,326.233536 563.393615,326.061594 565.653455,326.061594 C566.046471,326.061594 566.390354,326.282662 566.685116,326.724804 C566.979878,327.166947 567.127256,327.682772 567.127256,328.272296 C567.127256,328.763565 567.004441,329.230264 566.758806,329.672407 C566.513171,330.11455 566.144724,330.384744 565.653455,330.482998 C563.688377,330.679506 562.067211,330.974263 560.78991,331.367279 C559.51261,331.760294 558.33358,332.300683 557.252787,332.98846 C556.171994,333.676238 555.140343,334.48682 554.157804,335.420232 C553.175265,336.353645 551.996236,337.458985 550.620681,338.736285 C549.736396,339.522317 548.557367,340.603094 547.083558,341.978648 C545.609749,343.354203 544.013147,344.803427 542.293703,346.326362 C540.57426,347.849298 538.903968,349.298522 537.282779,350.674076 C535.661589,352.049631 534.261492,353.179534 533.082445,354.063819 C532.689429,354.358581 532.542051,354.653339 532.640305,354.9481 C532.738558,355.242862 532.935063,355.390241 533.229825,355.390241 C537.159982,355.586749 540.426875,356.249953 543.030604,357.379873 C545.634333,358.509793 547.82045,359.934453 549.58902,361.653896 C551.357591,363.37334 552.85594,365.313826 554.084114,367.475412 C555.312288,369.636998 556.540444,371.872241 557.768618,374.181208 C558.996792,376.490175 560.372326,378.749981 561.895261,380.960694 C563.418197,383.171407 565.358683,385.210145 567.716777,387.07697 C568.404554,387.568239 569.264263,387.961249 570.295929,388.256011 C571.327595,388.550773 572.383809,388.747278 573.464602,388.845531 C574.054126,388.845531 574.496262,389.091163 574.791023,389.582432 C575.085785,390.073702 575.233164,390.61409 575.233164,391.203614 C575.233164,391.694883 575.085785,392.161582 574.791023,392.603725 C574.496262,393.045868 574.054126,393.266936 573.464602,393.266936 L573.464602,393.266936 Z M639.096532,356.864042 C639.096532,362.857531 638.261386,368.163163 636.59107,372.781097 C634.920753,377.399031 632.538131,381.280002 629.443133,384.424127 C626.348135,387.568253 622.639105,389.950874 618.315933,391.572064 C613.992761,393.193254 609.178391,394.003836 603.87268,394.003836 C599.254746,394.003836 594.980764,393.24238 591.050608,391.719444 C587.120451,390.196508 583.730742,387.936702 580.881379,384.939958 C578.032015,381.943213 575.772209,378.160494 574.101892,373.591687 C572.431576,369.02288 571.59643,363.643559 571.59643,357.453563 C571.59643,352.442613 572.431576,347.849311 574.101892,343.67352 C575.772209,339.497729 578.105704,335.936078 581.102449,332.98846 C584.099193,330.040843 587.70997,327.73191 591.934889,326.061594 C596.159807,324.391277 600.777672,323.556131 605.788621,323.556131 C610.603063,323.556131 615.048986,324.293025 619.126524,325.766833 C623.204061,327.240642 626.716586,329.377633 629.664203,332.177869 C632.611821,334.978106 634.920753,338.441505 636.59107,342.568169 C638.261386,346.694833 639.096532,351.460077 639.096532,356.864042 L639.096532,356.864042 Z M623.621618,358.485224 C623.621618,354.751575 623.375987,351.116234 622.884717,347.579094 C622.393448,344.041953 621.509176,340.897874 620.231875,338.146765 C618.954574,335.395655 617.18603,333.184975 614.92619,331.514659 C612.66635,329.844342 609.767903,329.009196 606.230762,329.009196 C602.300605,329.009196 599.107401,329.844342 596.651053,331.514659 C594.194705,333.184975 592.254219,335.420218 590.829538,338.220455 C589.404856,341.020692 588.422331,344.189333 587.881935,347.726474 C587.341538,351.263615 587.071344,354.948081 587.071344,358.779984 C587.071344,362.120617 587.316975,365.559452 587.808245,369.096593 C588.299514,372.633734 589.232913,375.826939 590.608467,378.676302 C591.984022,381.525666 593.875382,383.883724 596.282603,385.750549 C598.689824,387.617373 601.760212,388.550771 605.493861,388.550771 C609.325764,388.550771 612.420716,387.666499 614.77881,385.897929 C617.136904,384.129358 618.979137,381.820426 620.305565,378.971062 C621.631993,376.121699 622.516265,372.903931 622.958407,369.317664 C623.40055,365.731396 623.621618,362.120618 623.621618,358.485224 L623.621618,358.485224 Z M259.642531,431.621181 C263.376179,432.701975 267.060646,434.126635 270.696041,435.895205 C271.776834,436.386475 272.783921,436.853174 273.717334,437.295317 C274.650746,437.737459 275.461328,437.958527 276.149106,437.958527 C277.721168,437.958527 278.752819,437.025129 279.244089,435.158305 C279.342343,434.765289 279.661663,434.470532 280.20206,434.274024 C280.742456,434.077516 281.282844,434.003827 281.823241,434.052954 C282.363638,434.102081 282.830337,434.224896 283.223352,434.421404 C283.616368,434.617912 283.763747,434.912669 283.665493,435.305685 C283.272477,436.877748 283.002283,438.498913 282.854902,440.169229 C282.707521,441.839546 282.633832,443.558964 282.633832,445.327534 C282.633832,448.078644 282.830337,450.829712 283.223352,453.580822 C283.616368,456.331931 284.009378,459.181252 284.402393,462.12887 C284.402393,462.521885 284.181325,462.841206 283.739183,463.08684 C283.29704,463.332475 282.756652,463.479854 282.118001,463.528981 C281.479351,463.578108 280.865273,463.504418 280.27575,463.307911 C279.686226,463.111403 279.342343,462.767519 279.244089,462.27625 C276.787741,453.433397 272.808517,446.924173 267.306298,442.748382 C261.804078,438.57259 254.877281,436.484726 246.525699,436.484726 C240.04094,436.484726 234.686182,437.86026 230.461264,440.61137 C226.236345,443.362479 222.871199,446.92413 220.365725,451.29643 C217.86025,455.668729 216.116269,460.483098 215.13373,465.739683 C214.151191,470.996267 213.659928,476.129957 213.659928,481.140907 C213.659928,486.643126 214.249443,492.145263 215.42849,497.647482 C216.607537,503.149701 218.52346,508.11145 221.176315,512.532876 C223.829171,516.954302 227.29257,520.565079 231.566615,523.365316 C235.84066,526.165552 241.023476,527.56565 247.115219,527.56565 C251.831407,527.56565 256.056262,527.148077 259.789911,526.312919 C263.52356,525.47776 266.667638,523.930284 269.222239,521.670444 C272.366365,518.821081 274.871802,515.406808 276.738626,511.427525 C278.605451,507.448241 279.931859,502.953192 280.71789,497.942242 C280.816144,497.254465 281.135464,496.812329 281.675861,496.615821 C282.216257,496.419313 282.781209,496.39475 283.370732,496.542131 C283.960256,496.689512 284.500644,496.959706 284.991914,497.352722 C285.483184,497.745738 285.679688,498.138747 285.581434,498.531763 C285.286673,500.496841 285.090168,502.437327 284.991914,504.353278 C284.89366,506.26923 284.685591,507.65741 284.110151,510.848816 C283.598436,513.686808 283.288622,520.43731 281.675863,524.029724 C280.717894,526.31292 276.149107,528.607361 272.542524,530.158142 C270.300743,531.122077 261.910689,533.755615 246.083558,533.755615 C228.69404,533.755616 215.796982,529.407945 207.396273,520.712473 C198.995563,512.017002 194.795271,499.563505 194.795271,483.351609 C194.795271,474.705265 196.121679,467.066137 198.774535,460.433998 C201.42739,453.801859 205.087294,448.226033 209.754355,443.706353 C214.421416,439.186673 219.972679,435.7724 226.40831,433.463433 C232.843942,431.154466 239.844428,430 247.409979,430 C251.831406,430 255.908882,430.540388 259.642531,431.621181 Z M303.440215,456.660926 C303.440215,452.436008 303.341963,449.070862 303.145455,446.565387 C302.948947,444.059912 302.457685,442.119426 301.671654,440.743871 C300.885622,439.368317 299.68203,438.434918 298.06084,437.943649 C296.439651,437.452379 294.204408,437.059369 291.355044,436.764608 C290.863775,436.764608 290.495328,436.518977 290.249693,436.027707 C290.004059,435.536437 289.85668,435.045175 289.807553,434.553906 C289.758426,434.062636 289.856678,433.571374 290.102313,433.080104 C290.347948,432.588835 290.765521,432.343204 291.355044,432.343204 C294.302662,432.146696 297.864313,431.851939 302.040104,431.458923 C306.215896,431.065907 310.12143,430.329014 313.756825,429.248221 C315.13238,428.855205 316.041215,428.928895 316.483357,429.469291 C316.9255,430.009688 317.195694,430.574639 317.293948,431.164163 L317.293948,513.697038 C317.293948,516.153386 317.343074,518.216688 317.441328,519.887004 C317.539582,521.557321 317.908029,522.932855 318.546679,524.013648 C319.18533,525.094441 320.21698,525.929587 321.641662,526.51911 C323.066344,527.108634 325.055956,527.55077 327.610558,527.845531 C328.200081,527.943785 328.642217,528.21398 328.936979,528.656122 C329.231741,529.098265 329.379119,529.61409 329.379119,530.203614 C329.379119,530.694883 329.231741,531.161582 328.936979,531.603725 C328.642217,532.045868 328.200081,532.266936 327.610558,532.266936 C325.252464,532.266936 322.599648,532.094994 319.65203,531.751105 C316.704413,531.407216 313.75684,531.235275 310.809222,531.235275 C307.665097,531.235275 304.570145,531.407216 301.524274,531.751105 C298.478402,532.094994 295.38345,532.266936 292.239325,532.266936 C291.748056,532.266936 291.355046,532.045868 291.060284,531.603725 C290.765522,531.161582 290.618144,530.694883 290.618144,530.203614 C290.618144,529.61409 290.765522,529.098265 291.060284,528.656122 C291.355046,528.21398 291.797182,527.943785 292.386705,527.845531 C295.137815,527.55077 297.274805,527.108634 298.797741,526.51911 C300.320677,525.929587 301.426017,525.119004 302.113794,524.087338 C302.801572,523.055672 303.194581,521.77839 303.292835,520.255454 C303.391089,518.732519 303.440215,516.841159 303.440215,514.581319 L303.440215,456.660926 Z M398.623708,506.191987 C398.623708,510.220397 398.697397,513.487291 398.844778,515.992766 C398.992159,518.498241 399.434295,520.46329 400.171199,521.887971 C400.908104,523.312653 402.013444,524.295178 403.487252,524.835574 C404.961061,525.375971 407.024362,525.646165 409.677218,525.646165 C410.070234,525.646165 410.389554,525.867233 410.635189,526.309375 C410.880824,526.751518 411.003639,527.267343 411.003639,527.856867 C411.003639,528.348136 410.905387,528.839399 410.708879,529.330668 C410.512371,529.821938 410.168488,530.067569 409.677218,530.067569 C408.891187,530.067569 408.227983,530.092132 407.687586,530.141259 C407.14719,530.190386 406.606801,530.239512 406.066405,530.288639 C405.526008,530.337766 404.936494,530.411455 404.297843,530.509709 C403.659193,530.607963 402.84861,530.706216 401.866071,530.80447 C401.08004,530.902723 399.9747,531.099228 398.550018,531.39399 C397.125336,531.688752 395.676113,531.983509 394.202304,532.278271 C392.728495,532.573033 391.352961,532.818664 390.07566,533.015172 C388.798359,533.211679 387.963213,533.309932 387.570198,533.309932 C385.801627,533.309932 384.917355,530.558864 384.917355,525.056644 C384.917355,524.860136 384.819103,524.737321 384.622595,524.688194 C384.426087,524.639067 384.229582,524.712756 384.033075,524.909264 C380.39768,528.053389 376.737776,530.239506 373.053254,531.46768 C369.368733,532.695854 365.807082,533.309932 362.368195,533.309932 C357.848515,533.309932 354.114922,532.74498 351.167304,531.61506 C348.219687,530.48514 345.910755,528.839412 344.240438,526.677826 C342.570121,524.51624 341.391092,521.838861 340.703315,518.645608 C340.015537,515.452356 339.671654,511.841579 339.671654,507.813168 L339.671654,491.159213 C339.671654,486.934295 339.573401,483.642838 339.376894,481.284744 C339.180386,478.92665 338.73825,477.158106 338.050472,475.979059 C337.362695,474.800012 336.331044,474.013993 334.955489,473.620977 C333.579935,473.227961 331.713138,472.884078 329.355044,472.589316 C328.863775,472.589316 328.495328,472.343685 328.249693,471.852415 C328.004059,471.361146 327.85668,470.869884 327.807553,470.378614 C327.758426,469.887344 327.856678,469.396082 328.102313,468.904813 C328.347948,468.413543 328.765521,468.167912 329.355044,468.167912 C330.337583,468.069658 331.639428,467.922279 333.260618,467.725772 C334.881807,467.529264 336.625788,467.234506 338.492613,466.841491 C340.359437,466.448475 342.299923,466.030902 344.314128,465.58876 C346.328333,465.146617 348.219693,464.679918 349.988263,464.188648 C351.363818,463.795633 352.297216,464.016701 352.788486,464.851859 C353.279755,465.687017 353.525387,466.399347 353.525387,466.988871 L353.525387,502.065343 C353.525387,505.9955 353.697328,509.336083 354.041217,512.087192 C354.385106,514.838302 354.999183,517.098108 355.883469,518.866679 C356.767754,520.635249 357.995909,521.912531 359.567972,522.698562 C361.140035,523.484593 363.105084,523.877603 365.463177,523.877603 C368.803811,523.877603 372.291772,523.288089 375.927167,522.109042 C379.562562,520.929995 382.31363,519.505334 384.180455,517.835018 C384.475216,517.540256 384.647158,516.999867 384.696285,516.213836 C384.745412,515.427805 384.769975,514.83829 384.769975,514.445275 L384.769975,491.159213 C384.769975,486.934295 384.720849,483.642838 384.622595,481.284744 C384.524341,478.92665 384.180458,477.158106 383.590934,475.979059 C383.001411,474.800012 382.092576,474.013993 380.864402,473.620977 C379.636228,473.227961 377.843121,472.884078 375.485027,472.589316 C374.993757,472.491062 374.62531,472.220868 374.379676,471.778725 C374.134041,471.336583 373.986662,470.84532 373.937535,470.304924 C373.888408,469.764527 373.986661,469.273265 374.232296,468.831123 C374.47793,468.38898 374.895503,468.167912 375.485027,468.167912 C379.022168,467.971404 382.264498,467.529268 385.212116,466.841491 C388.159733,466.153713 391.45119,465.269441 395.086585,464.188648 C396.46214,463.795633 397.395538,464.016701 397.886807,464.851859 C398.378077,465.687017 398.623708,466.399347 398.623708,466.988871 L398.623708,506.191987 Z M424.440215,456.660926 C424.440215,452.436008 424.341963,449.070862 424.145455,446.565387 C423.948947,444.059912 423.457685,442.119426 422.671654,440.743871 C421.885622,439.368317 420.68203,438.434918 419.06084,437.943649 C417.439651,437.452379 415.204408,437.059369 412.355044,436.764608 C411.863775,436.764608 411.495328,436.518977 411.249693,436.027707 C411.004059,435.536437 410.85668,435.045175 410.807553,434.553906 C410.758426,434.062636 410.856678,433.571374 411.102313,433.080104 C411.347948,432.588835 411.765521,432.343204 412.355044,432.343204 C415.302662,432.146696 418.864313,431.851939 423.040104,431.458923 C427.215896,431.065907 431.12143,430.329014 434.756825,429.248221 C436.13238,428.855205 437.041215,428.928895 437.483357,429.469291 C437.9255,430.009688 438.195694,430.574639 438.293948,431.164163 L438.293948,513.697038 C438.293948,516.153386 438.343074,518.216688 438.441328,519.887004 C438.539582,521.557321 438.908029,522.932855 439.546679,524.013648 C440.18533,525.094441 441.21698,525.929587 442.641662,526.51911 C444.066344,527.108634 446.055956,527.55077 448.610558,527.845531 C449.200081,527.943785 449.642217,528.21398 449.936979,528.656122 C450.231741,529.098265 450.379119,529.61409 450.379119,530.203614 C450.379119,530.694883 450.231741,531.161582 449.936979,531.603725 C449.642217,532.045868 449.200081,532.266936 448.610558,532.266936 C446.252464,532.266936 443.599648,532.094994 440.65203,531.751105 C437.704413,531.407216 434.75684,531.235275 431.809222,531.235275 C428.665097,531.235275 425.570145,531.407216 422.524274,531.751105 C419.478402,532.094994 416.38345,532.266936 413.239325,532.266936 C412.748056,532.266936 412.355046,532.045868 412.060284,531.603725 C411.765522,531.161582 411.618144,530.694883 411.618144,530.203614 C411.618144,529.61409 411.765522,529.098265 412.060284,528.656122 C412.355046,528.21398 412.797182,527.943785 413.386705,527.845531 C416.137815,527.55077 418.274805,527.108634 419.797741,526.51911 C421.320677,525.929587 422.426017,525.119004 423.113794,524.087338 C423.801572,523.055672 424.194581,521.77839 424.292835,520.255454 C424.391089,518.732519 424.440215,516.841159 424.440215,514.581319 L424.440215,456.660926 Z M521.295373,496.307911 C521.295373,502.301399 520.460227,507.607031 518.789911,512.224965 C517.119594,516.842899 514.736973,520.723871 511.641974,523.867996 C508.546976,527.012121 504.837946,529.394743 500.514774,531.015933 C496.191602,532.637122 491.377232,533.447705 486.071521,533.447705 C481.453587,533.447705 477.179606,532.686248 473.249449,531.163313 C469.319292,529.640377 465.929583,527.380571 463.08022,524.383826 C460.230856,521.387082 457.97105,517.604363 456.300733,513.035556 C454.630417,508.466749 453.795271,503.087428 453.795271,496.897431 C453.795271,491.886481 454.630417,487.29318 456.300733,483.117388 C457.97105,478.941597 460.304545,475.379946 463.30129,472.432329 C466.298034,469.484711 469.908811,467.175779 474.13373,465.505462 C478.358648,463.835146 482.976513,463 487.987462,463 C492.801904,463 497.247827,463.736893 501.325365,465.210702 C505.402902,466.684511 508.915427,468.821501 511.863044,471.621738 C514.810662,474.421974 517.119594,477.885373 518.789911,482.012037 C520.460227,486.138702 521.295373,490.903945 521.295373,496.307911 L521.295373,496.307911 Z M505.345545,497.476027 C505.345545,493.742378 505.099914,490.107038 504.608644,486.569897 C504.117374,483.032756 503.233102,479.888678 501.955802,477.137568 C500.678501,474.386459 498.909957,472.175779 496.650117,470.505462 C494.390277,468.835146 491.49183,468 487.954689,468 C484.024532,468 480.831328,468.835146 478.37498,470.505462 C475.918632,472.175779 473.978146,474.411022 472.553464,477.211258 C471.128783,480.011495 470.146258,483.180136 469.605862,486.717277 C469.065465,490.254418 468.795271,493.938885 468.795271,497.770787 C468.795271,501.11142 469.040902,504.550256 469.532172,508.087397 C470.023441,511.624538 470.956839,514.817742 472.332394,517.667106 C473.707949,520.516469 475.599309,522.874528 478.00653,524.741352 C480.41375,526.608177 483.484139,527.541575 487.217788,527.541575 C491.049691,527.541575 494.144643,526.657303 496.502737,524.888732 C498.86083,523.120162 500.703064,520.811229 502.029492,517.961866 C503.355919,515.112502 504.240191,511.894735 504.682334,508.308467 C505.124477,504.722199 505.345545,501.111422 505.345545,497.476027 L505.345545,497.476027 Z M590.737513,487.917611 C593.783385,495.237528 596.878337,502.581898 600.022462,509.950941 C600.21897,510.638719 600.53829,510.933476 600.980433,510.835222 C601.422576,510.736968 601.741896,510.442211 601.938404,509.950941 C603.60872,504.64523 605.057944,499.536103 606.286118,494.623407 C607.514292,489.710711 608.668758,484.748963 609.749551,479.738014 C610.142567,478.165951 610.339072,476.741291 610.339072,475.46399 C610.339072,473.20415 609.749557,471.754926 608.57051,471.116276 C607.391463,470.477625 605.524667,469.9618 602.970065,469.568784 C602.282287,469.47053 601.791025,469.175773 601.496263,468.684503 C601.201502,468.193234 601.054123,467.701972 601.054123,467.210702 C601.054123,466.621179 601.226065,466.105353 601.569953,465.663211 C601.913842,465.221068 602.380541,465 602.970065,465 C605.328159,465 607.489712,465.196505 609.454791,465.589521 C611.419869,465.982536 613.384918,466.179041 615.349996,466.179041 C617.315074,466.179041 619.402939,465.982536 621.613652,465.589521 C623.824365,465.196505 625.617472,465 626.993027,465 C627.58255,465 628.000123,465.221068 628.245758,465.663211 C628.491393,466.105353 628.614208,466.621179 628.614208,467.210702 C628.614208,467.800226 628.491393,468.340614 628.245758,468.831884 C628.000123,469.323153 627.680803,469.568784 627.287787,469.568784 C625.322709,469.765292 623.67698,470.231991 622.350553,470.968895 C621.024125,471.7058 619.894222,472.712887 618.960809,473.990188 C618.027397,475.267489 617.241378,476.741276 616.602727,478.411592 C615.964077,480.081909 615.349999,481.899579 614.760476,483.864657 C609.84778,500.666077 604.591274,517.319866 598.990801,533.826523 C598.794293,534.416047 598.180215,534.735367 597.148549,534.784494 C596.116883,534.833621 595.502806,534.563427 595.306298,533.973903 C592.456934,526.211844 589.558487,518.499027 586.61087,510.835222 C583.663252,503.171417 580.371795,495.262095 576.736401,487.10702 C576.539893,486.615751 576.245135,486.37012 575.85212,486.37012 C575.459104,486.37012 575.164347,486.615751 574.967839,487.10702 C573.199269,491.724954 571.528977,496.048062 569.956914,500.076472 C568.384852,504.104883 566.886502,507.985854 565.46182,511.719503 C564.037138,515.453152 562.637041,519.137618 561.261486,522.773013 C559.885932,526.408408 558.510397,530.142001 557.134843,533.973903 C556.938335,534.563427 556.299694,534.882747 555.218901,534.931874 C554.138108,534.981001 553.499467,534.661681 553.302959,533.973903 C550.257088,525.327559 547.284951,516.755033 544.386461,508.25607 C541.48797,499.757106 538.712339,491.282833 536.059483,482.832996 C535.273452,480.376649 534.511995,478.362473 533.775091,476.790411 C533.038187,475.218348 532.227604,473.941066 531.343319,472.958527 C530.459034,471.975988 529.427383,471.239095 528.248336,470.747825 C527.069289,470.256556 525.693755,469.863546 524.121692,469.568784 C523.630423,469.47053 523.286539,469.175773 523.090031,468.684503 C522.893523,468.193234 522.795271,467.701972 522.795271,467.210702 C522.795271,466.621179 522.893523,466.105353 523.090031,465.663211 C523.286539,465.221068 523.630423,465 524.121692,465 C526.57804,465 529.10804,465.196505 531.711769,465.589521 C534.315498,465.982536 537.042003,466.179041 539.891367,466.179041 C542.74073,466.179041 545.516362,465.982536 548.218344,465.589521 C550.920327,465.196505 553.646832,465 556.397942,465 C556.889211,465 557.282221,465.221068 557.576983,465.663211 C557.871745,466.105353 558.043687,466.596615 558.092813,467.137012 C558.14194,467.677408 558.019125,468.193234 557.724363,468.684503 C557.429601,469.175773 556.987465,469.47053 556.397942,469.568784 C553.548578,469.9618 551.534403,470.600441 550.355356,471.484726 C549.176309,472.369011 548.586795,473.597167 548.586795,475.169229 C548.586795,475.955261 548.685047,476.81497 548.881555,477.748382 C549.078063,478.681794 549.323694,479.688881 549.618456,480.769674 C550.99401,485.780624 552.443234,490.693246 553.96617,495.507688 C555.489105,500.32213 557.085708,505.136499 558.756024,509.950941 C558.952532,510.540465 559.296415,510.835222 559.787685,510.835222 C560.377209,510.835222 560.770218,510.589591 560.966726,510.098321 C566.665453,494.574203 572.364095,479.885463 578.062822,466.031661 C578.357584,465.343884 578.897972,465 579.684003,465 C580.568289,465 581.157803,465.294757 581.452565,465.884281 C584.59669,473.253324 587.691642,480.597694 590.737513,487.917611 Z" id="Hanako-Copy-20" fill="#FFFFFF"></path>
        </g>
    </g>
</svg>